<svg width="38" height="42" viewBox="0 0 38 42" fill="none" xmlns="http://www.w3.org/2000/svg">
<g clip-path="url(#clip0_11346_15638)">
<path d="M22.4346 2.7711V2.85333C22.0253 3.09158 21.6103 3.31912 21.1926 3.54046C21.11 3.54947 21.0269 3.55905 20.9444 3.56806C20.8206 3.61255 20.599 3.73533 20.3927 3.67789C20.2858 3.64804 20.2293 3.57989 20.0891 3.56806C20.0676 4.24054 20.9958 4.74575 21.5239 4.99751C21.5572 5.92794 21.408 6.63084 20.9998 7.2791C20.9467 7.36358 20.9218 7.50833 20.8619 7.58155C20.6199 7.87837 20.0427 8.48101 20.0065 8.92877C20.1207 8.98791 20.2553 9.07577 20.3655 9.12139V9.09379C20.3983 9.06169 20.3898 9.02001 20.4209 8.98396C20.5142 8.87357 20.6629 8.79528 20.7522 8.68151C20.7612 8.65392 20.7709 8.62632 20.7799 8.59929C21.1524 8.29458 21.5781 8.03212 21.8563 7.63731C21.9439 7.51284 22.2316 6.90062 22.3255 6.86739C22.3605 6.91921 22.3814 6.91245 22.408 6.97722C22.555 7.15294 22.5708 7.58268 22.6013 7.85696H22.7116C22.7466 7.71729 22.8337 7.55114 22.8772 7.41709V7.22447C22.8987 7.14168 22.9462 6.97834 22.9598 6.89442C22.9507 6.83923 22.9417 6.7846 22.9321 6.7294C22.9654 6.56719 23.0112 6.19096 22.9598 5.98708C22.8942 5.72744 22.8196 5.42386 22.7664 5.16253H22.8218C23.1898 5.81473 23.2763 7.04593 22.9598 7.85696C22.8851 8.04733 22.7071 8.2377 22.6013 8.40666C22.5736 8.39765 22.5459 8.38808 22.5188 8.37907C22.49 8.23376 22.4142 8.11604 22.3809 7.99439C22.3554 7.90089 22.3814 7.6221 22.3809 7.44469C22.339 7.42948 22.3345 7.42554 22.2706 7.41709V7.44469H22.2429C22.2345 7.65477 22.1881 7.89301 22.105 8.04958C22.0886 8.08 22.01 8.12844 21.9948 8.15941V8.26924C21.8246 8.61506 21.6426 8.9175 21.5809 9.39624C21.6087 9.40525 21.6364 9.41482 21.6635 9.42384C21.7132 9.47002 21.8517 9.49931 21.884 9.47903C22.0637 9.42046 22.0965 9.2391 22.2152 9.12139C22.239 9.0983 22.3571 9.06225 22.3809 9.03916C22.5392 8.88202 22.8309 8.4765 23.0429 8.40666V8.48889C23.0039 8.54465 22.8959 8.95073 22.8772 9.0386H22.629C22.5476 9.07971 22.1559 9.53648 22.1875 9.5883C22.2836 9.68123 22.512 9.74769 22.6844 9.75332C22.6935 9.72572 22.7025 9.69812 22.7121 9.67109C22.7653 9.59449 22.754 9.29711 22.7947 9.20362C22.8461 9.22108 22.8196 9.20587 22.8501 9.23122C22.9524 9.38272 22.9027 9.73023 23.0434 9.89131C23.1424 9.98762 23.3996 10.0715 23.568 10.0839C23.5839 10.04 23.5912 10.018 23.5957 9.9465C23.4776 9.78655 23.4708 9.07183 23.5403 8.79191C23.6805 8.22869 23.6302 7.35232 23.5126 6.72996H23.568V6.78516C23.7546 6.98904 23.6658 7.51509 23.7337 7.85753C23.78 8.09183 23.7619 8.62745 23.7891 8.76487C23.78 8.98453 23.771 9.20475 23.7614 9.42496C23.9304 10.107 23.84 10.6207 24.1752 11.1569C24.1933 11.2211 24.2119 11.2853 24.2306 11.3495C24.4019 11.6249 24.7959 11.9448 25.2238 11.8716V11.7894C24.9689 11.6018 24.8027 11.1501 24.8926 10.717C25.052 9.95101 24.8926 8.34753 24.5613 7.50045C24.5008 7.34612 24.3747 7.13661 24.3131 6.97834C24.3041 6.91414 24.2945 6.84993 24.2854 6.78572C24.2747 6.76094 24.2136 6.72321 24.2029 6.70349V6.62126C24.0921 6.41907 23.884 6.22701 23.8439 5.96117H23.8993C23.9751 6.06987 24.1187 6.13464 24.2029 6.23602C24.2119 6.27263 24.221 6.30924 24.2306 6.34585C24.4234 6.64492 24.6099 7.02171 24.7275 7.39062C24.7953 7.60464 24.771 7.82993 24.8377 8.05071C24.9875 8.54522 25.1905 9.12139 25.5274 9.42553C25.9045 9.76571 26.7061 9.75782 26.9074 9.2605C26.9209 9.2498 26.952 9.26783 26.9351 9.23291H26.9074C26.8859 9.17489 26.8661 9.15743 26.8248 9.12308C26.7847 9.17433 26.7994 9.16419 26.7146 9.17827C26.6654 9.11294 26.5761 9.0983 26.5212 9.04085C26.4495 8.96594 26.2855 8.60379 26.2454 8.49115V8.38132C26.2267 8.37231 26.2086 8.3633 26.19 8.35372C26.1329 8.22249 26.177 8.12224 26.1351 7.96904C26.052 7.66716 25.9655 7.31796 25.8593 7.0341C25.8135 6.91188 25.8372 6.81388 25.7767 6.70406C25.753 6.66069 25.6659 6.61112 25.6388 6.56663C25.6111 6.4844 25.5834 6.40161 25.5563 6.31938C25.4104 6.05467 25.1611 5.83614 24.9214 5.65929C24.8756 5.60409 24.8293 5.54946 24.7835 5.49426H24.7009C24.5036 5.385 24.2849 5.2318 24.1215 5.08199C23.8009 4.78799 23.6427 4.3008 23.2662 4.06482V3.98259C23.4895 3.98822 23.4725 4.04905 23.68 4.06482C23.7399 4.25631 23.9892 4.34924 24.0938 4.50469V4.58692C24.3391 4.96033 24.5947 5.30896 25.0593 5.46667C25.5269 5.62549 26.2917 5.34614 26.3562 4.9716C26.2827 4.93217 26.2397 4.9164 26.108 4.9164C26.043 4.94963 25.9045 4.87191 25.8321 4.83417C25.4347 4.62691 25.4336 4.35938 25.1696 4.06425C25.0842 3.96907 24.8654 3.86882 24.8383 3.73421C25.2199 3.3867 25.2821 2.68775 25.4455 2.19437C25.5076 2.00738 25.4556 1.34785 25.4455 1.31462C25.3816 1.10905 25.4115 0.789704 25.2244 0.709727C25.1939 0.686071 25.2001 0.692267 25.1419 0.682129C25.0633 1.03808 24.6721 1.59792 24.3143 1.6717V1.42445C24.3764 1.31969 24.2504 1.13101 24.204 1.03977H24.1763V1.06737C24.0107 1.17382 23.9496 1.39742 23.7896 1.50724C23.5477 1.67396 23.2407 1.7973 22.9343 1.89192C22.8037 1.93247 22.5866 1.90713 22.5205 1.91952C22.3424 1.95219 22.1157 1.80012 21.9965 1.7545C21.8076 1.68184 21.5691 1.64354 21.3893 1.58947H21.1683C21.1157 1.57652 20.9597 1.53428 20.8647 1.56188C20.4249 1.68916 19.9658 2.20507 19.5402 2.11158C19.5226 2.16283 19.5379 2.13636 19.5125 2.16677C19.5582 2.40952 19.6029 2.42642 19.7606 2.55145C19.7589 2.70971 19.9766 2.70296 20.1467 2.7711C20.5984 2.95246 21.1796 2.72548 21.6923 2.66128C21.7166 2.65846 22.1485 2.67254 22.1892 2.68887C22.2531 2.71422 22.3311 2.75984 22.4374 2.7711H22.4346ZM24.6144 2.96373C24.5517 3.36248 23.9027 3.16085 23.6489 3.10115C23.6398 3.07355 23.6308 3.04596 23.6212 3.01892C23.9468 2.86178 24.4075 2.57736 24.6144 2.3042C24.7173 2.16846 24.8021 1.89643 24.9734 1.83673V1.86432H25.0011C24.9542 2.12678 24.9242 2.38586 24.7801 2.55145C24.6749 2.67254 24.4584 2.72605 24.4211 2.90909H24.4488V2.93669C24.5042 2.9457 24.559 2.95528 24.6144 2.96429V2.96373ZM20.0891 4.20055C20.2892 4.52102 20.6154 4.72097 20.9167 4.94287C21.0405 5.03355 21.1315 5.16872 21.3028 5.21772C21.3294 5.46779 21.3486 5.77531 21.2751 6.01524C21.049 6.75024 20.7121 7.50608 20.1439 7.91216C19.8533 8.11999 19.5696 8.26248 19.0953 8.13238H18.9573C18.9047 8.11379 18.682 8.00453 18.626 7.96735C18.5983 7.93075 18.5706 7.89414 18.5435 7.85753C18.3383 7.75502 17.7588 7.94764 17.5502 7.80233C17.5248 7.77248 17.5401 7.79895 17.5225 7.74714C17.734 7.58211 17.985 7.40019 18.1297 7.16984C18.3671 7.2025 18.5605 7.37767 18.8471 7.36246C19.3457 7.33599 19.7352 6.9958 20.006 6.72996C20.0868 6.65055 20.2253 6.61056 20.2819 6.50975C20.2909 6.44554 20.3005 6.38133 20.3096 6.31713C20.357 6.17013 20.4537 5.94146 20.4198 5.79502C20.4017 5.71504 20.3706 5.63563 20.3644 5.52017C19.98 5.17041 19.4701 4.91584 18.9019 4.75025H18.6537C18.4372 4.69787 17.9364 4.72603 17.7984 4.83248H17.6605L17.5225 4.58523V4.36557C17.4756 4.23603 17.2834 3.99441 17.1364 3.9533C17.1449 3.91387 17.1381 3.80743 17.1641 3.76068C17.1879 3.71844 17.2761 3.70548 17.3021 3.65085C17.2925 3.62325 17.2687 3.57031 17.2467 3.54102H17.1913C17.1234 3.43964 17.1528 3.27913 17.081 3.18338C17.0748 2.8922 17.1664 2.97161 17.3569 2.88093C17.4632 2.83081 17.6305 2.73844 17.743 2.68831C17.8352 2.6793 17.9267 2.66973 18.0189 2.66071C18.0279 2.64213 18.037 2.6241 18.0466 2.60552H18.2948C18.2857 2.5875 18.2761 2.56891 18.2671 2.55032H18.3773C18.4338 2.52723 18.5689 2.46133 18.6255 2.4405C18.7261 2.40332 19.1173 2.3149 19.1772 2.35827C19.305 2.41628 19.1993 2.41797 19.2598 2.49569C19.279 2.52047 19.3745 2.53286 19.3977 2.55089C19.3887 2.56947 19.379 2.5875 19.37 2.60608C19.392 2.63199 19.4056 2.66522 19.4254 2.68831H19.4808C19.5554 2.77786 19.5628 2.9519 19.6464 3.04596V3.18338C19.4056 3.22675 19.0902 3.08256 18.7911 3.15578C18.3581 3.26167 17.9109 3.32362 17.5491 3.48583V3.62325C17.847 3.61143 18.0381 3.47907 18.2665 3.4036C18.4779 3.39459 18.6894 3.38501 18.9014 3.376C18.9675 3.3591 19.1495 3.34221 19.1772 3.3484C19.4548 3.41148 19.6255 3.28363 19.729 3.51343C19.7505 3.56074 19.7623 3.57369 19.729 3.62325V3.67845C19.2304 3.66662 18.6662 3.56862 18.2111 3.73364C18.2201 3.75223 18.2298 3.77025 18.2388 3.78884C18.4632 3.76575 18.8612 3.71506 18.9562 3.73364C19.0885 3.76012 19.6724 3.81756 19.729 3.78884C19.8923 3.81644 19.9003 3.92964 20.0048 4.00849C20.0122 4.1217 20.0111 4.08791 20.0048 4.20112H20.0874L20.0891 4.20055ZM20.5029 3.01836C20.5747 3.02286 20.5967 3.03018 20.6408 3.04596C20.6216 3.18113 20.5583 3.2994 20.5029 3.4036C20.2095 3.38445 20.1303 3.24252 19.9511 3.12875V2.99132C20.1332 3.00597 20.4226 3.07186 20.5029 3.01892V3.01836ZM18.8199 15.9397C19.0461 15.7927 19.1767 15.5162 19.2892 15.2526C19.5068 15.2965 19.4712 15.5494 19.565 15.7201C19.5927 15.7386 19.6204 15.7567 19.6476 15.7752C19.7855 15.9763 19.8663 16.2129 20.0614 16.3525C20.1971 16.45 20.3785 16.4905 20.5029 16.5998C20.5673 16.5919 20.5713 16.5874 20.6131 16.5722C20.5843 16.3593 20.4221 16.1104 20.4198 15.9397C20.4187 15.8732 20.4842 15.7634 20.5023 15.7201C20.4707 15.5697 20.5849 15.2886 20.6403 15.1428C20.6951 14.9986 20.6934 14.7277 20.8059 14.6477V14.6201C20.8997 14.6742 20.8907 14.8752 20.9438 14.9777C20.9828 15.0521 21.0869 15.1388 21.1372 15.1974C21.1971 15.2672 21.1943 15.3663 21.2474 15.4446C21.2994 15.5212 21.408 15.5905 21.4679 15.6643V15.7195H21.5233C21.5877 15.7927 21.6522 15.8659 21.7166 15.9391H21.772C21.9184 16.0552 22.0598 16.245 22.2412 16.3238C22.3797 16.3846 22.7105 16.3295 22.8207 16.406C22.871 16.4821 22.8275 16.6246 22.8761 16.7637C22.9609 17.007 23.0977 17.3218 23.1797 17.5612C23.2481 17.7606 23.2317 17.9341 23.3176 18.1109C23.3357 18.1199 23.3543 18.1295 23.373 18.1385C23.3611 18.1723 23.4923 18.6144 23.5386 18.7158C23.5726 18.7902 23.6664 18.8887 23.7043 18.9631C23.7229 19.0453 23.741 19.1281 23.7597 19.2103C23.8547 19.4069 23.9982 19.6462 24.091 19.8428V19.9526C24.1 19.9707 24.1644 20.0118 24.1735 20.0349C24.2165 20.1464 24.1837 20.2123 24.2289 20.3097C24.2498 20.3548 24.3193 20.4021 24.3391 20.4471C24.3487 20.5294 24.3578 20.6122 24.3668 20.6944C24.4104 20.8155 24.5138 20.9878 24.5602 21.1067C24.6235 21.2717 24.5952 21.475 24.6704 21.6293C24.6868 21.6626 24.7654 21.6975 24.7806 21.7392C24.7897 21.8676 24.7993 21.996 24.8083 22.1244C24.9384 22.5998 24.8061 23.0194 24.9186 23.4716C24.9683 23.671 24.9022 23.8315 24.974 23.9937C25.4613 25.0954 26.4093 26.0033 27.5128 26.5778C27.6214 26.6347 27.8447 26.7073 27.9543 26.7428C28.0188 26.7518 28.0832 26.7614 28.1477 26.7704C28.1567 26.789 28.1663 26.807 28.1754 26.8256C28.3116 26.8819 28.4326 26.8301 28.5615 26.8808C29.1149 27.0965 30.1557 27.275 30.769 27.1832C30.8798 27.1669 31.0319 27.1939 31.1003 27.2108H31.5695C31.591 27.2029 31.6374 27.1348 31.6521 27.1286C31.7533 27.1196 31.8544 27.1106 31.9556 27.101C32.015 27.0773 32.0455 26.994 32.0936 26.9636C32.2078 26.8915 32.3514 26.9072 32.4525 26.8261C32.9885 26.3942 33.4859 25.8174 33.7771 25.1489C33.8494 24.9822 33.8302 24.8042 33.8873 24.6268C33.997 24.2872 34.0286 23.4288 33.915 23.0599C33.8217 22.758 33.742 22.4263 33.6391 22.1526C33.6301 22.0884 33.6205 22.0241 33.6114 21.9599C33.5396 21.8034 33.4085 21.6214 33.3356 21.4654V21.3556C33.3175 21.3466 33.2988 21.337 33.2807 21.328V21.2452C33.2519 21.1833 33.1722 21.1078 33.1428 21.0526C33.1338 21.007 33.1241 20.9608 33.1151 20.9152H33.0597C33.0043 20.8324 33.0263 20.7203 32.9772 20.6403C32.9122 20.535 32.8064 20.4021 32.7567 20.2827C32.7279 20.214 32.7674 20.1712 32.7567 20.1453C32.7386 20.1036 32.664 20.0692 32.6465 20.0354C32.4955 19.7459 32.2343 18.998 32.2326 18.6882C32.2326 18.6246 32.1885 18.6133 32.1772 18.5784V18.1385C32.1145 17.9014 32.1275 17.6051 32.1772 17.3962C32.2196 17.2182 32.1699 16.9636 32.2049 16.8189C32.2581 16.5964 32.1897 16.4156 32.2603 16.214C32.6346 15.1467 33.036 14.0884 33.53 13.1349C33.5951 13.0093 33.5832 12.9073 33.6403 12.7772C33.7087 12.6218 33.8477 12.463 33.9162 12.3098C33.9653 12.1999 33.9942 12.0169 34.0541 11.9251H34.1095V11.8153C34.1259 11.7837 34.2033 11.7364 34.2197 11.7054C34.2288 11.6598 34.2378 11.6136 34.2474 11.568C34.2751 11.5494 34.3028 11.5314 34.33 11.5128C34.3933 11.4137 34.3831 11.3168 34.4402 11.2104C34.5403 11.0239 34.7065 10.7941 34.7992 10.6055V10.4956C34.8173 10.4596 34.8885 10.3993 34.9094 10.3582C34.9185 10.3126 34.9275 10.2664 34.9371 10.2208C34.9648 10.2022 34.9925 10.1842 35.0196 10.1656V10.0558C35.0892 9.88905 35.2169 9.69137 35.2955 9.53366C35.3142 9.45143 35.3323 9.36864 35.3509 9.28641C35.5533 8.8961 35.7947 8.43145 35.9581 8.02199C36.0644 7.75446 36.0807 7.53593 36.1791 7.25207C36.2571 7.02622 36.4154 6.40048 36.3171 6.06987C36.1944 5.65591 35.9999 5.30502 35.7653 4.99751C35.7195 4.96991 35.6732 4.94231 35.6274 4.91528C35.6031 4.88543 35.5691 4.77334 35.5448 4.75025C35.5081 4.74124 35.4713 4.73167 35.4346 4.72265C35.3764 4.68154 35.1423 4.49962 35.1033 4.4478C34.9563 4.43879 34.8088 4.42922 34.6618 4.42021C34.0247 4.61339 33.1739 4.98737 32.9512 5.5748V5.71223C32.9235 5.80122 32.8664 5.91893 32.8409 6.01468V6.2349C32.8093 6.32726 32.7245 6.48158 32.703 6.59254C32.712 6.62915 32.7211 6.66576 32.7307 6.70237C32.7262 6.71532 32.6561 6.78798 32.6481 6.81219C32.6301 6.93103 32.6114 7.05044 32.5933 7.16984C32.5747 7.21264 32.5006 7.27122 32.4831 7.30726V7.41709C32.4554 7.43568 32.4277 7.4537 32.4005 7.47229C32.3576 7.53762 32.3621 7.60295 32.318 7.66491C32.2411 7.77135 32.0455 7.87724 32.0421 8.04958C32.041 8.11267 32.0981 8.34584 32.0975 8.40723C32.0953 8.68715 32.045 9.23122 31.9048 9.50719C31.9166 9.54831 31.8878 9.84231 31.8494 9.94707C31.8335 9.98987 31.7555 10.0496 31.7391 10.0845V10.1943C31.5791 10.5812 31.3428 11.0037 31.0217 11.2391V11.2667C31.0246 11.3067 30.747 11.6474 30.6628 11.7066C30.626 11.7156 30.5893 11.7251 30.5525 11.7342V11.7894C30.5158 11.8316 30.4564 11.8338 30.4146 11.8716V11.9268C30.2009 12.116 29.8934 12.3036 29.7249 12.5317C29.5728 12.7372 29.4157 12.9749 29.3111 13.2188C29.2314 13.4047 29.2359 13.6243 29.1177 13.7685C29.0878 13.7938 29.1138 13.7786 29.0623 13.7961C28.8176 13.1264 29.2738 12.392 29.5593 11.9814C29.665 11.8293 29.7096 11.6767 29.8074 11.5139C29.8442 11.4863 29.8809 11.4587 29.9177 11.4317C29.9861 11.3348 29.9929 11.2368 30.0556 11.1293C30.0833 11.1107 30.111 11.0927 30.1381 11.0741C30.2015 10.9766 30.1986 10.8843 30.2484 10.7716C30.3614 10.5165 30.5226 10.1729 30.6068 9.89187V9.64462C30.6803 9.38666 30.7515 8.97664 30.717 8.70968C30.6854 8.46242 30.8945 7.64576 30.8273 7.52748C30.8007 7.5196 30.8171 7.50608 30.7996 7.52748C30.5944 7.5945 30.5627 7.89245 30.4683 8.07718C30.3337 8.3402 30.2721 8.67476 30.2201 9.03916C30.1992 9.1856 30.2733 9.55507 30.2201 9.75388C30.1743 9.9251 30.1438 10.1059 30.0822 10.3036C30.0731 10.3768 30.0635 10.45 30.0545 10.5238C30.0109 10.615 29.9126 10.7305 29.8611 10.8262H29.8057C29.9092 10.2765 29.7243 9.73924 29.6124 9.28641C29.3851 8.3678 29.8905 6.96877 30.3027 6.59198V6.53678C30.0251 6.57339 29.8498 6.8595 29.7232 7.05888C29.5333 7.35795 29.4739 7.57535 29.3648 7.96623C29.2506 8.37343 29.3586 8.94904 29.4473 9.25825V9.5331C29.4812 9.66095 29.5214 9.98536 29.5299 10.0552C29.5576 10.2771 29.3512 10.7074 29.5299 10.935C29.5253 11.0065 29.5186 11.0284 29.5022 11.0724C29.2913 11.051 29.198 10.5475 29.0884 10.3852C29.0183 10.2816 28.8831 10.1859 28.8125 10.0828C28.7107 9.93411 28.6112 9.74712 28.5366 9.58773V9.5055C28.5089 9.48748 28.4812 9.46889 28.4535 9.45031C28.4445 9.3861 28.4354 9.32189 28.4258 9.25769H28.3704C28.3676 9.25318 28.3427 9.17546 28.3427 9.17546C28.3337 9.08365 28.3246 8.99241 28.315 8.90061C28.2997 8.84541 28.246 8.7277 28.2325 8.68039C28.2415 8.57957 28.2506 8.47876 28.2602 8.37794C28.2364 8.25685 28.2302 8.03269 28.2602 7.91047V7.60802C28.2839 7.52185 28.3461 7.40076 28.3704 7.33317V7.19575C28.873 6.04059 29.315 5.03693 30.5226 4.5841C30.8244 4.4709 31.219 4.42528 31.5989 4.41908C31.777 4.41626 32.171 4.47934 32.2886 4.39148C32.3118 4.37402 32.3169 4.30137 32.344 4.28166C32.426 4.22195 32.5113 4.20337 32.5922 4.14423C32.6662 4.09016 32.7165 3.9854 32.785 3.92458C32.8274 3.88628 32.8861 3.88459 32.9229 3.84235V3.78715C32.9596 3.77814 32.9964 3.76856 33.0331 3.75955C33.0518 3.73195 33.0699 3.70436 33.0885 3.67732H33.1439V3.62213C33.2977 3.48695 33.5012 3.44528 33.6957 3.34728C33.7047 3.32925 33.7143 3.31067 33.7234 3.29208C34.1084 3.1141 34.8161 2.90008 35.3792 3.01723C35.4753 3.03751 35.5951 2.96823 35.7382 3.01723C35.8049 3.04032 35.8931 3.12819 35.9586 3.15466C36.1192 3.21943 36.2413 3.25378 36.3725 3.34728C36.4092 3.3929 36.4459 3.43908 36.4827 3.4847C36.5861 3.5506 36.689 3.5827 36.7586 3.67732C36.788 3.71731 36.7795 3.78152 36.814 3.81475C36.8507 3.82376 36.8875 3.83277 36.9242 3.84235C36.9836 3.89979 36.9847 3.99272 37.0344 4.06256C37.0932 4.14367 37.2244 4.19661 37.2826 4.28222C37.667 4.84318 38.2131 6.12225 37.9175 7.14168C37.8988 7.27009 37.8807 7.3985 37.8621 7.52635C37.758 7.79219 37.5528 8.08788 37.4482 8.35091C37.3748 8.5362 37.3618 8.668 37.2826 8.84597C37.2193 8.98903 37.0972 9.14279 37.0344 9.28585C36.9327 9.51564 36.9021 9.72741 36.7863 9.94594C36.7139 10.0817 36.5771 10.2416 36.5104 10.3858C36.438 10.5424 36.4233 10.6742 36.3447 10.8257C36.3131 10.8871 36.2407 10.9389 36.2068 10.9907C36.1791 11.0729 36.152 11.1557 36.1243 11.238C36.0762 11.3174 35.9705 11.3974 35.9309 11.4852C35.9219 11.5584 35.9128 11.6317 35.9032 11.7054C35.8252 11.9133 35.6568 12.1312 35.5443 12.3103C35.4793 12.4145 35.4199 12.5891 35.3786 12.695C35.3696 12.7592 35.36 12.8234 35.3509 12.8876C35.3323 12.8966 35.3142 12.9062 35.2955 12.9152C35.2769 12.9704 35.2588 13.0251 35.2401 13.0802C35.2198 13.1124 35.1474 13.1574 35.1299 13.1901C35.0881 13.2678 35.1163 13.332 35.0745 13.4097C34.8252 13.8806 34.5985 14.4432 34.3848 14.9496C34.3571 15.069 34.3294 15.1878 34.3023 15.3072C34.2243 15.488 34.0773 15.6761 33.9987 15.8569C33.971 15.9758 33.9433 16.0952 33.9162 16.2146C33.7805 16.6032 33.6674 16.9777 33.668 17.5342V18.1667C34.1378 19.8315 34.9433 21.2509 35.4069 22.9501C35.4651 23.1647 35.4239 23.4012 35.3792 23.5826C35.3701 23.7566 35.3605 23.9306 35.3515 24.1047C35.304 24.2686 35.2215 24.4865 35.1581 24.6268C35.1305 24.7552 35.1028 24.8836 35.0756 25.0115C34.9727 25.2441 34.7963 25.4665 34.6618 25.6716C34.6528 25.7082 34.6432 25.7448 34.6341 25.7814C34.6126 25.8152 34.5459 25.8574 34.5239 25.8912C34.5148 25.9278 34.5058 25.9644 34.4962 26.001H34.4408C34.4368 26.0055 34.3859 26.0827 34.3854 26.0833C34.3441 26.1463 34.3503 26.2207 34.3028 26.2759H34.2474C34.1903 26.3412 34.1869 26.4206 34.1372 26.4961C34.1095 26.5147 34.0818 26.5327 34.0547 26.5513C34.01 26.6273 34.0253 26.7062 33.9721 26.7715C33.9535 26.7625 33.9354 26.7529 33.9167 26.7439L33.7788 26.8537C33.7697 26.8813 33.7601 26.9089 33.7511 26.936C33.7234 26.945 33.6957 26.954 33.6685 26.9636V27.0188H33.6131C33.5764 27.0644 33.5396 27.1106 33.5029 27.1562H33.4475C33.4226 27.1793 33.4175 27.2446 33.3921 27.266C33.3277 27.3207 33.2366 27.3246 33.1711 27.3758C33.162 27.4034 33.1524 27.431 33.1434 27.4581C33.0823 27.5155 32.9619 27.5431 32.8952 27.5955C32.8765 27.6321 32.8584 27.6687 32.8398 27.7053H32.7573C32.6781 27.7442 32.6063 27.8264 32.5362 27.8704C32.4808 27.8884 32.426 27.907 32.3706 27.9255C32.322 27.9577 32.292 28.0376 32.2326 28.063C32.1772 28.072 32.1224 28.0816 32.067 28.0906C32.058 28.1182 32.0483 28.1458 32.0393 28.1734C31.9839 28.1644 31.9291 28.1548 31.8737 28.1458C31.8228 28.1649 31.7397 28.2629 31.6803 28.2832H30.9629C30.8719 28.3136 30.7289 28.4184 30.5491 28.3654C30.401 28.3221 30.1749 28.2207 30.0245 28.2004C29.994 28.1965 29.9284 28.2466 29.8589 28.228C29.812 28.2156 29.7079 28.1582 29.6655 28.1458H29.4722C29.3829 28.1154 29.2579 28.059 29.1409 28.0359C29.1161 28.0658 29.1438 28.0388 29.1132 28.0635C29.31 28.3908 30.0584 28.9213 30.548 28.9433V28.9985C30.4214 29.0176 30.2942 28.9675 30.0788 29.0261C30.0663 29.0295 29.9595 29.0852 29.9408 29.0813C29.7746 29.0464 29.6079 28.999 29.3614 28.999C29.3919 28.9754 29.3851 28.9805 29.4439 28.9714C29.3557 28.9089 29.0697 28.9281 28.947 28.8892C28.8407 28.8554 28.683 28.7653 28.5886 28.7242H28.4507C28.3806 28.6904 28.2992 28.5749 28.2302 28.5316C28.1488 28.4809 28.0521 28.4814 27.982 28.4217C27.7836 28.2517 27.5484 28.0354 27.4026 27.8168C27.1725 27.4722 27.0589 27.0238 26.5473 26.9647V27.0469C26.8548 27.2227 27.0481 27.5504 27.1544 27.9267C27.2149 28.1407 27.19 28.2849 27.2646 28.4764C27.2963 28.558 27.3907 28.6521 27.4303 28.7236C27.5349 28.914 27.6298 29.1725 27.8441 29.2463V29.3015C27.1657 29.2221 26.874 28.6684 26.5473 28.2291C26.4483 28.0956 26.2827 28.0123 26.1611 27.8991C26.1057 27.8259 26.0509 27.7526 25.9955 27.6794C25.9588 27.6698 25.922 27.6608 25.8853 27.6518C25.827 27.6034 25.7716 27.475 25.7196 27.4316C25.6247 27.3528 25.511 27.2857 25.4438 27.1844C25.238 26.8757 25.338 26.339 25.0848 26.0844C25.0543 26.0607 25.061 26.0664 25.0022 26.0568C24.9909 26.5547 24.7128 27.4688 25.0576 27.8163C25.0401 27.867 25.056 27.8416 25.0299 27.8715C24.8632 27.9577 24.5602 27.6321 24.4782 27.5138C24.2481 27.181 24.1271 26.8729 24.2849 26.3868C24.2758 26.3226 24.2668 26.2584 24.2572 26.1942C24.2605 26.1756 24.308 26.0207 24.3126 26.0016C24.3606 25.7915 24.2611 25.6614 24.2572 25.4795H24.2295V25.4519C24.0226 25.4722 24.0655 25.6192 23.9813 25.7543C23.8422 25.9785 23.6387 26.2494 23.5398 26.4967V26.6065C23.3911 26.9867 23.1559 27.3849 23.0706 27.8439C23.0892 27.9633 23.1073 28.0821 23.126 28.2015C23.126 28.2015 23.1763 28.6262 23.2085 28.6966C23.2826 28.8577 23.6822 29.4243 23.8156 29.5211C23.8569 29.5516 23.9174 29.542 23.9536 29.5763C23.9818 29.6034 23.9751 29.6636 24.009 29.6862C24.2628 29.8574 24.6365 29.9024 24.9745 29.9886C25.2923 30.0692 25.723 29.8337 25.8853 29.9334H25.9407C25.9079 30.1221 25.7524 30.0827 25.6371 30.1807C25.1266 30.6155 24.3781 30.6465 23.7054 30.4279C23.4352 30.3401 23.1904 30.357 23.0157 30.1807H22.9332C23.005 30.4093 23.2758 30.5209 23.4849 30.6205C23.6641 30.7062 23.8857 30.8329 24.0921 30.8954H24.2854C24.316 30.9055 24.4109 30.9664 24.4511 30.9776H24.6715V31.0328H25.0028C25.1204 31.0632 25.2855 31.1269 25.4166 31.1427C25.4709 31.1494 25.6201 31.0953 25.6648 31.0875C25.7292 31.0965 25.7937 31.106 25.8581 31.115C25.84 31.1793 25.8214 31.2435 25.8027 31.3077C25.3776 31.4795 24.4918 31.4361 24.1198 31.3353C23.9264 31.2829 23.6969 31.3325 23.568 31.2254H23.4578C23.5539 31.4693 23.9027 31.4327 24.0926 31.5831C24.2498 31.578 24.2786 31.5487 24.286 31.6383C25.0497 31.6507 25.5399 31.743 26.0797 31.9683C26.2917 32.0568 26.4585 32.2398 26.7146 32.2708V32.353C26.5297 32.4296 25.9831 32.6729 25.6936 32.6003C25.173 32.4702 24.58 32.2528 24.0655 32.2978C24.0406 32.3277 24.0683 32.3012 24.0378 32.3254C24.0989 32.5192 24.4482 32.6335 24.645 32.7101C25.2069 32.9292 25.8943 33.0165 26.411 33.2874C26.4534 33.3099 26.5043 33.4006 26.549 33.4248C26.6914 33.5014 26.8305 33.502 26.9628 33.5898C27.0515 33.649 26.9724 33.7042 27.1561 33.7273C27.1804 33.8855 27.3704 34.0466 27.5145 34.0849V34.1671C27.2709 34.1694 26.9051 34.237 26.6592 34.1671C26.6219 34.1564 26.5309 34.0956 26.4935 34.0849H26.2731V34.0297C26.1493 33.9632 25.9599 33.9813 25.8316 33.9199C25.8225 33.9019 25.8129 33.8833 25.8039 33.8647C25.684 33.8106 25.5873 33.8382 25.4726 33.7825C25.4336 33.7633 25.3522 33.6912 25.3069 33.6726C25.1407 33.6033 24.896 33.6343 24.7552 33.5352C24.6761 33.5375 24.6371 33.5453 24.5896 33.5628C24.6478 33.6428 24.6908 33.6214 24.7829 33.6726C24.8835 33.7289 24.9757 33.8461 25.0588 33.9199C25.1029 33.9593 25.2092 33.9903 25.2521 34.0297C25.2809 34.0567 25.2809 34.108 25.3075 34.1395C25.4127 34.2674 25.5834 34.3462 25.6942 34.4696C25.8497 34.6425 25.9899 34.8379 26.1634 34.9917C26.3641 35.1697 26.6298 35.2485 26.8531 35.404V35.4592H27.0187C27.0278 35.4772 27.0368 35.4958 27.0464 35.5143C27.2646 35.6039 27.7045 35.5718 27.8192 35.5966C27.9492 35.6253 28.1539 35.6045 28.2053 35.5414C28.2771 35.5459 28.2992 35.5532 28.3433 35.569C28.3139 35.7993 28.0979 35.8292 27.9295 35.9266C27.8249 35.9869 27.7022 36.1052 27.5705 36.1468C27.4144 36.1559 27.2579 36.1649 27.1013 36.1744C26.8384 36.237 26.5043 36.1756 26.3008 36.1192C26.1114 36.0669 25.9667 36.1176 25.8039 36.064C25.7411 36.0432 25.6394 35.9762 25.5834 35.9542H25.4732C25.4545 35.9266 25.4364 35.899 25.4178 35.872H25.2521C25.1379 35.8314 25.0418 35.7323 24.9208 35.6794C24.9118 35.707 24.9027 35.7346 24.8931 35.7622C24.9745 35.8388 25.0203 35.9756 25.1136 36.037C25.2385 36.1187 25.4562 36.1361 25.5828 36.202V36.6695C25.5828 36.6695 25.5625 36.9038 25.5551 36.9168C25.5828 37.1972 25.5987 37.6709 25.7208 37.9891V38.099C25.7445 38.157 25.8276 38.2133 25.8587 38.264C25.948 38.4099 25.9661 38.5309 26.1069 38.6211C26.0831 38.6965 26.0588 38.701 26.0243 38.7585C25.4828 38.7292 24.8338 38.4853 24.5896 38.1536H24.507C24.5161 38.3186 24.5257 38.4836 24.5347 38.6487C24.3301 39.2919 24.1215 39.8359 23.8727 40.4081C23.7297 40.3867 23.5997 40.2375 23.5692 40.1057C23.4719 40.0849 23.3074 40.1096 23.1831 40.0781C23.0355 40.0409 22.7958 39.8877 22.6584 40.0229C22.4911 40.0877 22.5126 40.3068 22.4103 40.4352C22.3656 40.4915 22.2152 40.5473 22.1621 40.6002C22.1367 40.625 22.118 40.7117 22.0796 40.7376C21.9292 40.8396 21.6657 40.9077 21.4724 40.8751C21.4487 40.9089 21.4515 40.9066 21.417 40.9303C21.4136 41.3183 21.6652 41.4794 22.0519 41.48C22.0767 41.5098 22.049 41.4828 22.0796 41.5075V41.5627C22.0078 41.578 21.8274 41.6534 21.776 41.645C21.2423 41.556 20.5487 41.0305 20.6996 40.3806C20.7415 40.2003 20.7092 40.0832 20.7822 39.9407C20.85 39.8089 20.971 39.7802 21.0857 39.6934C21.1564 39.6399 21.2129 39.4749 21.2791 39.4186C21.33 39.3746 21.5634 39.2828 21.638 39.2536C21.6471 39.2355 21.6567 39.2169 21.6657 39.1984C21.6358 39.1736 21.6629 39.2012 21.638 39.1708C21.309 39.1916 20.8749 39.3882 20.7273 39.583C20.6674 39.6624 20.625 39.7869 20.5617 39.8579C20.4842 39.9446 20.3406 39.9677 20.2581 40.0505C19.8935 40.0488 19.7753 39.9717 19.5956 39.8033C19.5707 39.7802 19.4254 39.716 19.4022 39.6934C19.3089 39.6011 19.3061 39.4957 19.154 39.4462C19.0353 39.3775 18.8335 39.7604 18.7951 39.886V40.2437C18.6029 40.2251 18.6385 40.0815 18.5192 39.9964C18.5102 39.8314 18.5005 39.6664 18.4915 39.5014C18.6176 39.1037 18.9274 38.7545 19.3191 38.6216C19.5939 38.5281 20.0461 38.5715 20.2847 38.5394C20.3118 38.5354 20.4797 38.5884 20.5057 38.5946H21.3062C21.3916 38.5698 21.4809 38.4977 21.5544 38.4572V38.402C21.4351 38.3603 21.2367 38.4127 21.0852 38.3744C20.8613 38.318 20.4916 38.2696 20.3401 38.1271C20.2021 38.0798 20.0676 37.645 20.0919 37.5222C20.0976 37.4941 20.1354 37.4321 20.1473 37.3848C20.1219 37.3549 20.1371 37.3814 20.1196 37.3296C20.0094 37.3206 19.8986 37.3116 19.7883 37.302C19.7148 37.3887 19.63 37.449 19.595 37.5769C19.4542 37.5695 19.4265 37.5301 19.4017 37.4118C19.3304 37.3065 19.5379 37.155 19.595 37.0818C19.859 36.7399 19.9885 36.7281 20.478 36.6143C20.5594 36.5952 20.6278 36.5862 20.6714 36.6143C20.9534 36.6188 21.4645 37.0204 21.5267 37.2468H21.6092V37.329C21.889 37.5915 21.9337 37.9311 22.4922 37.9339C22.5963 37.8292 22.7755 37.7914 22.8507 37.6591C22.9428 37.4969 23.0327 37.2812 23.0717 37.0818C23.0626 36.9996 23.053 36.9168 23.044 36.8345C23.1474 36.4042 23.2854 35.5222 23.0717 34.9652C22.9892 34.8464 22.9061 34.727 22.8235 34.6076C22.7958 34.5986 22.7681 34.5895 22.741 34.58C22.7088 34.5405 22.7195 34.4797 22.6856 34.4425C22.6607 34.4149 22.603 34.4138 22.5753 34.3873V34.3322C22.538 34.3 22.473 34.3085 22.4374 34.277C22.3752 34.2229 22.3 34.1457 22.2441 34.0843V34.0291C22.1841 33.9813 22.0321 33.9756 21.9682 33.9193C21.9478 33.9013 21.9083 33.7982 21.8857 33.7819H21.8031V33.7267C21.7715 33.6923 21.7325 33.7013 21.6929 33.6715C21.6375 33.6073 21.5826 33.5431 21.5272 33.4789C21.3243 33.3291 21.123 33.1466 20.9201 33.0114C20.8834 33.0024 20.8466 32.9928 20.8099 32.9838C20.6985 32.9078 20.616 32.7563 20.5063 32.6814C20.4034 32.611 20.3005 32.5879 20.2027 32.5163C20.0156 32.3789 19.9155 32.1407 19.7058 32.0213C19.7555 31.5836 20.0614 31.4834 20.3406 31.2789C20.4107 31.2277 20.4797 31.0796 20.534 31.0317H20.6165C20.6578 30.9951 20.9297 30.638 20.9478 30.5918C20.9834 30.4995 20.9523 30.3874 21.0032 30.317C21.006 30.228 21.0122 30.1182 20.9755 30.0697C20.9506 30.0399 20.9783 30.0663 20.9478 30.0421C20.7262 30.4003 20.43 30.7585 20.1202 31.0317C19.9545 31.1781 19.7143 31.2514 19.5684 31.4169C19.5226 31.4688 19.4254 31.6535 19.4028 31.7194C19.3813 31.7819 19.4039 31.8179 19.3751 31.8568V31.8844H19.3197C19.2332 31.444 19.2513 31.3139 19.3751 30.9224C19.3937 30.8306 19.4118 30.7394 19.4305 30.6476C19.5368 30.4426 19.677 30.322 19.6787 29.9881C19.3604 30.0371 18.7527 30.5699 18.6577 30.8402V31.0328C18.639 31.0424 18.621 31.0514 18.6023 31.0604V31.4727H18.5469C18.388 31.199 18.0562 30.825 18.1879 30.2905C18.2168 30.1745 18.2416 29.9723 18.2705 29.8506V29.6034C18.3202 29.4091 18.4005 29.1967 18.3807 29.0261C18.3637 28.8785 18.4559 28.7495 18.353 28.6408C18.3349 28.5901 18.3513 28.6161 18.3253 28.5856C18.2428 28.9191 17.7741 29.4372 17.47 29.6028C17.1596 29.7718 16.6429 29.7943 16.5869 30.2077H16.4767C16.4829 29.9633 16.5886 29.711 16.6977 29.5482C16.7452 29.4772 16.8323 29.4186 16.8634 29.328C17.0341 28.8261 16.9731 28.1565 17.1393 27.6507C17.1709 27.5538 17.2715 27.422 17.3049 27.3482V27.2108C17.3569 27.0762 17.4881 26.9202 17.5531 26.7985C17.5621 26.7529 17.5717 26.7067 17.5808 26.6611C17.6797 26.4916 17.812 26.3249 17.912 26.1661C17.9759 26.0647 17.9844 25.9622 18.05 25.8636C18.1144 25.7673 18.2416 25.6597 18.2982 25.5612C18.3072 25.5155 18.3168 25.4694 18.3259 25.4237C18.3536 25.4051 18.3813 25.3871 18.4084 25.3685C18.5916 25.0931 18.7561 24.7276 18.9053 24.4336C18.9421 24.2776 18.9788 24.1221 19.0155 23.9661C19.0642 23.84 19.2349 23.3663 19.2089 23.1962C19.1772 22.9884 19.1981 22.5175 19.1263 22.3441C19.1139 22.3136 19.0308 22.2365 19.0161 22.2066C18.9132 21.9971 18.937 21.7656 18.8228 21.5741C18.7939 21.5257 18.712 21.4587 18.6848 21.4091C18.613 21.2784 18.6 21.1472 18.5192 21.0244C18.4904 20.9805 18.4073 20.9343 18.3813 20.887C18.3722 20.8414 18.3626 20.7952 18.3536 20.7496H18.2982C18.2388 20.6781 18.2388 20.584 18.1879 20.5023C18.1568 20.4528 18.0811 20.3874 18.05 20.3373C17.9759 20.2179 17.959 20.0963 17.8843 19.9797C17.8171 19.8743 17.7023 19.7538 17.6362 19.6496C17.6175 19.5854 17.5994 19.5212 17.5808 19.457C17.5576 19.421 17.4915 19.3905 17.4705 19.3472C17.3332 19.065 17.2331 18.8009 17.0844 18.5226C17.0516 18.4612 16.9753 18.3959 16.9465 18.33C16.9374 18.2748 16.9278 18.2202 16.9188 18.165C16.8996 18.1284 16.8272 18.0709 16.8085 18.0276C16.7933 17.9921 16.8232 18.0191 16.8363 18C16.8351 17.9273 16.6763 17.6558 16.6429 17.5877C16.5282 17.3506 16.5666 17.0785 16.4773 16.8178C16.4439 16.7209 16.3586 16.4646 16.3947 16.4055C16.4185 16.263 16.7351 16.0095 16.864 15.9656C16.8962 15.9408 16.9092 15.9425 16.9742 15.938C16.9883 16.7569 17.2167 17.3641 17.4982 17.9724V18.1098C17.6192 18.3221 17.7826 18.5705 17.8843 18.7969C17.8934 18.8521 17.903 18.9067 17.912 18.9619C18.1031 19.3308 18.3847 19.715 18.6017 20.0619C18.6464 20.1334 18.6396 20.2106 18.6843 20.2816C18.7436 20.3767 18.8448 20.4866 18.9047 20.584C18.9652 20.682 18.9703 20.802 19.0427 20.8864H19.0981C19.1433 20.9394 19.1631 21.0532 19.2083 21.1061C19.2863 21.1973 19.513 21.1855 19.6221 21.2435C19.716 21.2931 19.8364 21.3832 19.9257 21.4361H20.0082V21.4913C20.0716 21.5612 20.158 21.5922 20.2293 21.6564C20.2383 21.6648 20.3062 21.7876 20.3118 21.7938H20.3672C20.4153 21.8484 20.4085 21.9239 20.4498 21.9864C20.5187 22.0889 20.6442 22.2004 20.6979 22.3165C20.8675 22.6826 20.8743 23.4604 20.56 23.6637C20.5832 23.7363 20.5877 23.738 20.6425 23.7735C20.7725 23.8264 20.8223 23.5995 20.8907 23.4987C20.9274 23.4711 20.9642 23.4435 21.0009 23.4164C21.01 23.3342 21.0196 23.2514 21.0286 23.1692C21.1112 22.8673 21.1654 22.5102 21.0563 22.2072C21.0479 22.1835 20.9811 22.121 20.9738 22.0974C20.9501 22.023 21.0162 22.0416 20.9738 21.9599C20.9551 21.9509 20.9371 21.9414 20.9184 21.9323C20.9054 21.907 20.9546 21.8794 20.9184 21.8225C20.8817 21.7949 20.8449 21.7673 20.8082 21.7403C20.7991 21.7037 20.7895 21.6671 20.7805 21.6305H20.7251V21.5753C20.6781 21.5325 20.5498 21.5088 20.5046 21.4654V21.4102C20.4599 21.3596 20.2067 21.1737 20.1456 21.1354C20.0569 21.0802 19.9574 21.0813 19.8697 21.0256C19.8511 20.998 19.833 20.9704 19.8143 20.9433C19.6945 20.8831 19.5079 20.9332 19.4005 20.8611C19.2315 20.8053 19.2767 20.6583 19.2072 20.5035C19.1721 20.4252 19.0941 20.254 19.0415 20.1734C19.0138 20.1548 18.9861 20.1368 18.959 20.1182C18.9014 20.0152 18.903 19.8946 18.8488 19.7882C18.682 19.4632 18.4779 19.1546 18.297 18.8532C18.288 18.8076 18.2784 18.7614 18.2693 18.7158C18.2128 18.6105 18.1037 18.4962 18.0483 18.3858V18.3035C17.7798 17.9279 17.5152 17.4919 17.3309 17.0391C17.241 16.8189 17.0686 16.009 17.193 15.8569C17.1924 15.7719 17.1839 15.7161 17.1653 15.6643C16.6118 15.6879 16.1415 16.2117 15.8407 16.5164C15.7684 16.5902 15.7322 16.7029 15.6474 16.7637C15.5422 16.8392 15.423 16.9259 15.3161 16.9839C15.2019 17.0459 15.0719 17.0628 14.9848 17.1489H14.9294C14.9402 17.0256 14.9871 17.0042 15.012 16.9287C15.0029 16.7271 14.9933 16.5255 14.9843 16.3238C14.9447 16.2281 14.8412 16.1244 14.7909 16.0214C14.6931 16.04 14.5275 16.3666 14.4874 16.4612C14.2872 16.4235 14.3381 16.1318 14.2115 16.0214H14.129C14.1747 15.9791 14.0385 15.8631 13.991 15.8288C13.8259 15.7093 13.597 15.5331 13.5218 15.3337V15.1963C13.4947 15.109 13.4308 14.9327 13.4664 14.8662V14.7012H13.4387C13.3494 14.8358 13.203 14.9546 13.1351 15.1135C13.117 15.2053 13.0984 15.2965 13.0797 15.3883C13.0028 15.5747 12.8756 15.7764 12.7761 15.938V16.0202H12.7207C12.6863 16.0625 12.6976 16.1137 12.6653 16.1577C12.6173 16.223 12.5393 16.2455 12.472 16.2951C12.3736 16.3678 12.299 16.4984 12.1961 16.5699C12.1153 16.6257 12.0147 16.6392 11.948 16.7074C11.8694 16.7051 11.8298 16.6972 11.7823 16.6798C11.8044 16.4815 11.9383 16.3931 12.0028 16.2399C12.0305 16.0935 12.0582 15.9465 12.0853 15.8C12.0599 15.7702 12.0752 15.7966 12.0576 15.7448C11.9299 15.7781 11.8976 15.8541 11.8095 15.9099C11.5251 16.0884 11.325 16.0422 11.1469 16.3497H11.0644C11.0491 16.263 11.0028 16.0884 11.0367 15.965C11.1 15.7341 11.3606 15.2841 11.1746 15.0577V15.0025C11.0406 15.0571 11.044 15.1602 10.9541 15.2498C10.8891 15.3145 10.5765 15.4858 10.4849 15.5246C10.2107 15.6418 9.88682 15.6626 9.5742 15.7448C9.47301 15.7538 9.37181 15.7629 9.27062 15.7724C9.13834 15.8197 8.99249 15.9442 8.88451 16.0197H8.80197C8.79123 16.0259 8.58659 16.152 8.5815 16.1571V16.2123C8.51706 16.2675 8.45261 16.3221 8.38816 16.3773C8.35481 16.4235 8.36612 16.4686 8.33276 16.5148C8.27736 16.5604 8.22253 16.6066 8.16712 16.6522C8.10777 16.7383 8.11285 16.8121 8.02919 16.8724V16.9276H8.00149C7.99244 16.7169 7.98283 16.5057 7.97379 16.2951C7.9947 16.2196 8.06537 16.0845 8.08402 16.0202C8.07498 15.9926 8.06593 15.965 8.05632 15.938C8.06084 15.9087 8.11907 15.6587 8.13886 15.608C8.20444 15.4429 8.32711 15.3517 8.3322 15.1129C8.23609 15.123 8.16373 15.1428 8.11116 15.1951C7.89634 15.2126 7.8562 15.452 7.69735 15.5798C7.61029 15.6502 7.45426 15.6789 7.39377 15.7724C7.35476 15.8327 7.37738 15.9634 7.33837 16.0197V16.7344C6.93078 16.4798 6.63003 15.8344 6.53788 15.3326H6.45535V15.3602C6.38468 15.412 6.21622 15.6153 6.15177 15.6902C6.06641 15.6896 6.01044 15.6812 5.95843 15.6626C5.96635 15.568 5.99801 15.5477 6.01383 15.4976C6.07998 15.2858 5.95335 15.0656 5.9036 14.9479C5.87477 14.8792 5.89399 14.8054 5.8482 14.7553C5.79562 14.6972 5.72948 14.6894 5.68256 14.6178C5.35241 14.6235 5.28684 14.8983 5.10311 15.0577C4.96235 15.1794 4.74809 15.2103 4.6062 15.3326C4.10759 15.3179 4.28114 15.3618 4.08215 15.6074C4.10363 15.8085 4.17543 16.1346 4.30262 16.2399C4.28905 16.3278 4.27831 16.3199 4.24722 16.3773C3.27996 16.3503 3.02501 14.7969 3.66777 14.2332V14.178C3.46369 14.1374 2.90346 14.1729 2.78475 14.2878C2.47213 14.2985 2.21661 14.3047 2.1499 14.0681C2.08602 13.9842 2.09054 13.7499 2.0945 13.5731C1.93169 13.5708 1.79318 13.5809 1.70839 13.6553C1.51505 13.7184 1.34319 13.9955 1.32227 14.2326C1.25726 14.2275 1.24483 14.2303 1.21204 14.205C1.09163 14.0619 1.14985 13.4863 1.23974 13.3252C1.30136 13.2149 1.46021 13.0949 1.57101 13.0228C1.61002 12.9975 1.68917 12.9287 1.73665 12.913H2.09563C2.17873 12.8848 2.26635 12.7767 2.3438 12.7479C2.70673 12.6139 3.59372 12.9242 3.86168 13.0228C4.01883 13.0808 4.35633 13.0955 4.46883 13.1878H4.7724V13.1602C4.35746 13.0391 3.80345 12.7451 3.5581 12.4455C3.51118 12.3886 3.4066 12.1109 3.39246 12.0332C3.38285 11.9803 3.42129 11.7854 3.36476 11.7032C3.30088 11.6519 2.76835 11.5207 2.67508 11.5934C2.54505 11.59 2.43877 11.501 2.50944 11.4007C2.55579 11.2847 3.03349 10.9749 3.17142 10.9333C3.40151 10.8645 3.63894 11.0296 3.77857 11.0155C4.08724 10.9845 4.14094 11.0166 4.35802 11.1253H4.44056V11.1805C4.50218 11.247 4.60846 11.3005 4.6616 11.3731C4.74583 11.4875 4.7724 11.617 4.85494 11.7308C4.92843 11.795 5.00192 11.8592 5.07597 11.9234V12.0056C5.10368 12.0146 5.13138 12.0242 5.15851 12.0332C5.29984 12.1673 5.45474 12.3492 5.62772 12.4455C5.7374 12.5069 5.82558 12.5176 5.9313 12.5829C6.01666 12.6359 6.11107 12.7344 6.20717 12.7755C6.28971 12.7941 6.37281 12.8122 6.45535 12.8307C6.74762 12.9428 7.11224 13.0403 7.42091 13.1332C7.56789 13.1422 7.71544 13.1518 7.86242 13.1608C7.98509 13.1929 8.53119 13.2329 8.60751 13.216C8.88903 13.1523 9.23331 13.216 9.46283 13.1608C9.66917 13.1107 9.98405 13.1416 10.2356 13.1332C10.2876 13.1315 10.3221 13.1022 10.3459 13.1056C10.4787 13.1253 10.5482 13.1225 10.7597 13.1332H11.0909C11.2775 13.1844 11.9225 13.225 12.1673 13.243C12.2928 13.2526 12.6241 13.2165 12.7468 13.1878C12.8197 13.1709 12.9096 13.2205 12.9401 13.2154C13.1159 13.1867 13.2425 13.1687 13.3816 13.1332H13.6298C13.7994 13.087 14.0187 13.0848 14.2092 13.0234C14.3681 12.9721 14.5795 12.8882 14.7333 12.8307C14.7977 12.8217 14.8622 12.8127 14.9266 12.8031C15.0046 12.7699 15.0843 12.6528 15.2302 12.6933C15.3206 12.7187 15.441 12.8015 15.5338 12.8307C15.6898 12.8797 15.9549 12.7406 16.0855 12.8307C16.1132 12.8398 16.1409 12.8493 16.168 12.8583C16.0963 13.3089 15.6316 13.6942 15.5055 14.0957C15.4467 14.2838 15.4648 14.8099 15.5609 14.9203C15.5699 14.9389 15.5796 14.9569 15.5886 14.9755C15.7209 14.9327 15.7876 14.8217 15.8922 14.7553C16.0222 14.673 16.1494 14.6454 16.2783 14.5626C16.2969 14.535 16.315 14.5074 16.3337 14.4804H16.4439C16.5706 14.4303 17.2111 14.143 17.2715 14.0681C17.3269 13.9994 17.3473 13.8766 17.3818 13.7933C17.4406 13.8034 17.4338 13.7967 17.4643 13.8209C17.492 13.8299 17.5197 13.8395 17.5469 13.8485C17.5146 14.0332 17.3937 14.1577 17.4366 14.3982V15.0583C17.4694 15.1918 17.509 15.3793 17.5469 15.4981V15.608C17.6904 15.991 17.9788 16.3165 18.2088 16.6251C18.2659 16.7012 18.3728 16.7395 18.4299 16.8178H18.5401C18.5492 16.5502 18.6046 16.2376 18.7335 16.0754V16.0202H18.816V15.938L18.8199 15.9397ZM7.91952 5.60296C7.91047 5.56636 7.90086 5.52975 7.89182 5.49314C7.82228 5.38444 7.69961 5.25715 7.64364 5.13549C7.6346 5.05326 7.62499 4.97047 7.61594 4.88824C7.55036 4.75926 7.21739 4.64775 7.11903 4.50356C6.98166 4.3008 7.06928 3.82151 6.95339 3.67901C6.83467 3.52356 6.43669 3.46612 6.1806 3.45879V3.4312H6.1529V3.34897C6.38638 3.30166 6.68034 3.27068 6.92569 3.21154C7.29088 3.12368 7.54754 3.32137 7.72618 3.43176C7.78158 3.44978 7.83641 3.46837 7.89182 3.48695C8.49727 3.98202 8.67421 4.93105 9.07841 5.63169C9.08011 5.6345 9.20731 5.7877 9.21635 5.79671H9.27175C9.2808 5.83332 9.29041 5.86993 9.29945 5.90654C9.3362 5.93414 9.37294 5.96173 9.40969 5.98877C9.41873 6.02538 9.42835 6.06199 9.43739 6.0986C9.51371 6.20842 9.70083 6.27826 9.79637 6.37345C9.85064 6.42808 9.86873 6.52326 9.9343 6.56607H10.0168C10.0496 6.59254 10.1118 6.70237 10.1548 6.73109C10.2927 6.8229 10.5121 6.97271 10.6517 7.03354C10.7071 7.04255 10.7619 7.05212 10.8173 7.06114V7.11633C10.8496 7.14618 10.8852 7.11746 10.9276 7.14393C10.9734 7.19912 11.0197 7.25376 11.0655 7.30895H11.148C11.2419 7.36133 11.3137 7.47003 11.3962 7.52861C11.442 7.56127 11.4895 7.55001 11.5341 7.5838C11.6523 7.67335 11.667 7.87442 11.7546 7.99608C11.8547 8.13463 12.0661 8.18757 12.1961 8.29853C12.2329 8.37175 12.2696 8.44496 12.3064 8.51818C12.355 8.58408 12.4302 8.57957 12.4997 8.62801C12.5348 8.65223 12.5608 8.74572 12.5822 8.76543C12.6376 8.78402 12.6925 8.80204 12.7479 8.82063C12.844 8.8854 12.9073 8.9834 13.0238 9.04029C12.9938 9.06563 13.0204 9.05042 12.9684 9.06788C13.1306 9.32753 13.4155 9.43848 13.658 9.61758C13.9283 9.81696 14.2064 10.0608 14.5134 10.2225C14.5846 10.2602 14.64 10.2428 14.7067 10.2777C14.9396 10.4005 15.2053 10.5565 15.4518 10.6624C15.5343 10.6804 15.6174 10.699 15.7 10.7175C15.8933 10.8133 16.181 10.9158 16.3897 10.9924H16.5276C16.6113 11.0234 16.6327 11.0729 16.7758 11.0746V11.1845H16.7481C16.4891 11.4092 15.7017 11.4019 15.2856 11.5691C15.1205 11.6356 14.8243 11.7674 14.6784 11.8716C14.5179 11.9859 14.3913 12.1825 14.2369 12.3115C14.2279 12.3391 14.2183 12.3667 14.2092 12.3937C14.281 12.428 14.4715 12.4968 14.5682 12.4213C14.6326 12.4292 14.6366 12.4337 14.6784 12.4489C14.6739 12.521 14.6671 12.5424 14.6507 12.5863C14.4274 12.6325 14.2635 12.7249 14.0713 12.7789C13.8508 12.8409 12.8813 12.8229 12.6642 12.7789C12.4929 12.7446 12.2057 12.8381 12.0848 12.7513H12.0571C12.1181 12.5638 12.3233 12.579 12.4986 12.5041C12.7648 12.3897 13.0814 12.183 13.2714 11.982H13.2991V11.9544C12.7083 12.027 12.1492 12.3419 11.4776 12.0642C11.4686 12.0456 11.459 12.0276 11.4499 12.009C11.9926 11.8198 12.8169 11.5348 12.8299 10.8544C12.619 10.8702 12.4042 10.9457 12.2227 10.9918C12.0113 11.0459 11.7812 10.9119 11.6433 10.9366C11.6336 10.9383 11.4754 10.9113 11.3951 10.9366C11.3171 10.9609 11.1576 11.0245 11.0638 11.0465C10.944 11.0375 10.8247 11.0279 10.7048 11.0189C10.6511 11.0459 10.702 11.091 10.5946 11.1287C10.4951 10.9321 10.3165 10.6184 10.429 10.3041C10.4781 10.1656 10.6099 10.0749 10.6771 9.9465C10.0875 9.73868 9.39499 10.1819 9.18695 10.5514C9.12194 10.5463 9.10951 10.5491 9.07672 10.5238C8.80763 10.2061 9.09481 9.26163 9.27006 9.03916C9.34185 8.94792 9.44813 8.91807 9.49053 8.79191H9.51823C9.45548 8.65561 9.20278 8.67363 9.07672 8.59929C8.74036 8.40103 8.11229 7.9606 7.58654 8.15941V8.13181C7.4944 8.04057 7.88447 7.82317 7.97266 7.77417C8.16599 7.66772 8.75958 7.51396 9.02132 7.58155C9.15134 7.61534 9.66012 7.76628 9.7387 7.71897H9.7941V7.66378C9.66182 7.58718 9.5024 7.47003 9.35259 7.41653C9.18582 7.35683 8.81385 7.35345 8.71774 7.3343C8.41417 7.34331 8.11059 7.35232 7.80702 7.36189C7.58768 7.30332 7.26827 7.15576 7.14503 7.00425C6.97487 7.04537 6.87198 7.14618 6.73122 7.19687C6.56898 7.25488 5.92734 7.29881 5.7928 7.19687C5.52992 7.21039 5.48187 7.40526 5.29588 7.49932C5.27497 7.61478 5.28966 7.66209 5.29588 7.80177C5.04941 7.7646 4.8555 7.32529 4.96461 7.03185C5.08502 6.708 5.29871 6.34641 5.59946 6.2073C5.71083 6.15548 5.80919 6.16731 5.93073 6.12507C6.02853 6.09071 6.30158 6.00003 6.37225 6.04284H6.62042C6.56841 5.875 6.40616 5.8367 6.31684 5.71279C6.22583 5.58663 6.15403 5.30502 6.04097 5.21772C5.86911 5.08537 5.67012 5.09438 5.46152 4.99751C5.37898 4.92429 5.29588 4.85107 5.21335 4.77785C5.21561 4.63761 5.24161 4.56045 5.32358 4.503C5.3185 4.43823 5.32132 4.42584 5.29588 4.39317C5.09576 4.22421 4.76957 4.4754 4.6339 4.5582V4.72322H4.49596C4.49483 4.5351 4.48579 4.35656 4.55136 4.22815C4.74753 3.84291 5.38916 3.53933 5.95843 3.78828C6.41012 3.9854 6.62381 4.209 6.86916 4.61283C6.9336 4.66802 6.99805 4.72266 7.0625 4.77785C7.16199 4.91246 7.21344 5.04876 7.31067 5.19013C7.35646 5.22674 7.40282 5.26334 7.44861 5.29995C7.65099 5.57593 7.86581 5.95498 8.27623 6.01468C8.23609 5.80234 8.01958 5.75053 7.91725 5.6024L7.91952 5.60296ZM16.1432 5.30052C16.2534 5.336 16.3484 5.44301 16.4467 5.49314C16.5112 5.51172 16.5756 5.52975 16.6401 5.54833C16.6678 5.58494 16.6955 5.62155 16.7226 5.65816C16.9934 5.83726 17.4564 5.98314 17.7436 6.04284C17.907 6.07719 18.1156 5.99215 18.2405 5.96061C18.5446 5.88288 19.3434 5.81305 19.5927 5.87838C19.7522 5.92006 19.9059 5.89471 20.0065 5.98821C20.1168 6.11718 19.9087 6.57564 19.7584 6.6207C19.6419 6.67533 19.3084 6.47539 19.041 6.53847C18.1093 6.757 17.1568 6.44835 16.5853 6.12619C16.5666 6.0986 16.5485 6.071 16.5298 6.04396C16.3846 5.94427 16.2568 5.87218 16.116 5.76911C16.0793 5.72349 16.0425 5.67731 16.0058 5.63169C15.8667 5.53031 15.6836 5.4768 15.5643 5.35684C15.5134 5.33882 15.5394 5.35515 15.5089 5.32924C15.5598 5.31178 15.5338 5.32755 15.5643 5.30164H16.1437L16.1432 5.30052ZM20.0614 8.15941V8.18701H20.0891C20.0614 8.52269 19.8675 8.70855 19.7301 8.92933C19.53 8.91412 19.4022 8.82739 19.2886 8.79191C19.1003 8.73333 18.9392 8.8195 18.8194 8.70968C18.7985 8.68771 18.7849 8.64941 18.764 8.62745C18.7651 8.5041 18.7815 8.47707 18.8194 8.40723C18.9618 8.41455 19.0088 8.46242 19.0953 8.48946C19.3728 8.57732 19.8771 8.32162 19.9783 8.15941H20.0608H20.0614ZM20.8619 9.03916C20.928 8.83415 21.1943 8.74178 21.3311 8.59929C21.4266 8.6083 21.4057 8.58351 21.4413 8.65448C21.4685 8.70855 21.3537 9.22446 21.3034 9.31457C21.11 9.26895 20.9173 9.22277 20.7239 9.17715V9.03972H20.8619V9.03916ZM20.7788 9.34161C20.889 9.36019 20.9992 9.37822 21.11 9.3968C21.3729 9.48635 21.6991 9.59674 21.9377 9.69925C22.053 9.74881 22.1536 9.73192 22.2689 9.78148C22.4866 9.87554 22.7398 10.0225 22.9586 10.1115H23.0689C23.2322 10.1876 23.3883 10.3199 23.5929 10.3588C23.5963 10.5227 23.6099 10.7328 23.5375 10.8262C23.4838 10.8786 23.4047 10.744 23.3442 10.7164H23.2616C23.0502 10.6218 22.789 10.4968 22.5719 10.414C22.5075 10.405 22.4431 10.3954 22.3786 10.3864C21.7483 10.1448 21.0428 9.92172 20.4192 9.69925C20.3367 9.69024 20.2536 9.68066 20.1711 9.67165C20.0139 9.61195 19.4797 9.43792 19.3434 9.47903C19.1823 9.43059 18.6063 9.22108 18.4604 9.28641H18.3502C18.3784 9.1411 18.4112 9.00987 18.4604 8.90173C19.3626 8.9068 20.1185 9.09717 20.7782 9.34161H20.7788ZM18.5712 10.249C18.5622 10.2214 18.5525 10.1938 18.5435 10.1667C18.4146 10.1943 18.3666 10.3627 18.3225 10.4692C18.2637 10.459 18.2705 10.4658 18.2399 10.4416C18.2122 10.4326 18.1845 10.4235 18.1574 10.414C18.1704 10.2185 18.2722 10.1419 18.323 10.0017V9.86427C18.3575 9.74994 18.4152 9.61195 18.461 9.50663C18.5118 9.48861 18.4858 9.50494 18.5164 9.47903C18.5458 9.51451 18.5073 9.5117 18.5441 9.56126C18.5429 9.67109 18.5395 9.70714 18.5995 9.75388C18.6294 9.77923 18.6029 9.76402 18.6549 9.78148C18.6967 9.73361 18.7572 9.6694 18.8205 9.64405C18.8556 9.61758 18.8889 9.61758 18.9584 9.61646C18.9568 9.84174 18.8098 9.90764 18.6826 10.0011C18.7041 10.1498 18.7408 10.2884 18.738 10.4962H18.6277C18.6238 10.4078 18.6142 10.3025 18.5723 10.249H18.5712ZM19.3717 9.69925C19.4627 9.80401 19.4537 10 19.5373 10.1115C19.5238 10.3013 19.3841 10.5705 19.2615 10.6612C19.2315 10.6866 19.2581 10.6714 19.2061 10.6888C19.0913 10.5627 18.972 10.3571 18.9302 10.1667C19.0676 10.0389 19.2185 9.83217 19.3163 9.67165C19.3672 9.68911 19.3412 9.67334 19.3717 9.69925ZM19.7301 9.72685C19.8047 9.85977 19.8912 10.0293 19.9234 10.1943C19.8545 10.2709 19.8432 10.3796 19.7855 10.4692C19.729 10.5576 19.6419 10.6128 19.5922 10.7164C19.5277 10.7085 19.5238 10.704 19.4819 10.6888C19.4944 10.5435 19.6668 10.2608 19.7578 10.1938C19.7301 10.0214 19.6001 9.87892 19.6476 9.72628H19.7301V9.72685ZM20.5306 10.0293C20.5238 10.1892 20.3587 10.2991 20.2547 10.3593C20.2564 10.4607 20.2632 10.5745 20.3101 10.6342C20.3107 10.7322 20.305 10.8201 20.2824 10.8814H20.1722C20.145 10.7378 20.1417 10.4894 20.0619 10.3864C20.0987 10.1904 20.2689 10.2422 20.3378 10.1115C20.3604 10.0682 20.3542 9.97579 20.3655 9.9465C20.469 9.9634 20.4633 9.98762 20.5312 10.0287L20.5306 10.0293ZM20.9167 10.0839C20.9489 10.1769 20.9438 10.3413 20.9992 10.414C21.0089 10.9721 20.8398 10.7474 20.6403 11.0465C20.5753 11.0414 20.5628 11.0442 20.53 11.0189C20.4814 10.958 20.3972 10.5328 20.4198 10.4968C20.452 10.3582 20.7415 10.2078 20.8336 10.0845H20.9161L20.9167 10.0839ZM21.2203 10.6336C21.2197 10.5108 21.2073 10.4128 21.1377 10.3588C21.1457 10.2946 21.1502 10.2906 21.1654 10.249C21.2898 10.2478 21.4504 10.2484 21.5244 10.3041C21.5708 10.3762 21.4521 10.481 21.4142 10.5514C21.3446 10.6804 21.3396 10.7953 21.2762 10.9361C21.2406 11.0155 21.1564 11.1073 21.1106 11.1833C21.0083 11.1631 21.0349 11.1394 20.9173 11.1281C20.9291 10.9552 21.1089 10.7057 21.2208 10.6331L21.2203 10.6336ZM22.4069 10.6888C22.3905 10.9 22.1525 11.0566 21.9931 11.1287C21.9931 11.2419 21.997 11.3179 22.0485 11.3759C22.0406 11.4402 22.036 11.4441 22.0208 11.4858C21.8613 11.4706 21.75 11.2627 21.7172 11.1281C21.8551 11.002 21.9586 10.7153 22.0485 10.5508C22.2446 10.5559 22.2763 10.6257 22.4074 10.6883L22.4069 10.6888ZM19.4819 10.9637C19.6385 10.9913 19.7946 11.0189 19.9511 11.0459C20.6131 11.2909 21.4538 11.4689 22.0485 11.7882H22.2141C22.5618 11.9409 22.8891 12.1583 23.2628 12.2833C23.2543 12.4703 23.1995 12.6229 23.1802 12.7784C22.9784 12.7902 22.4872 12.5001 22.2695 12.3937C22.2141 12.3847 22.1593 12.3751 22.1039 12.3661C21.9829 12.3148 21.8167 12.2236 21.6901 12.1735H21.5798C21.0846 11.9425 20.4944 11.8096 19.9794 11.5962C19.7165 11.4875 19.0551 11.4711 18.903 11.2937C18.7397 11.2999 18.6899 11.332 18.6826 11.2385C18.3553 11.2132 18.0963 11.0893 17.7718 11.0735C17.7628 11.0459 17.7532 11.0183 17.7441 10.9913C17.7125 10.9411 17.838 10.7091 17.8821 10.6336C18.4819 10.6426 19.0076 10.8144 19.4825 10.9637H19.4819ZM22.6556 10.7711C22.6884 10.824 22.6093 11.0791 22.6556 11.2109C22.6686 11.2481 22.7059 11.2565 22.711 11.2932C22.7189 11.3512 22.6986 11.3523 22.6833 11.3754C22.6177 11.5055 22.4097 11.5286 22.3243 11.6502H22.2141C22.1943 11.5286 22.2486 11.2971 22.1864 11.2104V11.0729C22.2135 11.0172 22.3017 11.0273 22.352 10.9907C22.4216 10.94 22.5092 10.762 22.5725 10.6883C22.6285 10.7198 22.6279 10.7052 22.6551 10.7705L22.6556 10.7711ZM22.6279 11.6238C22.7449 11.5421 22.7998 11.3895 22.9038 11.2937C22.9038 11.1557 22.8897 11.0836 22.8213 11.0189C22.845 10.9434 22.8693 10.9389 22.9038 10.8814C22.9925 10.8854 23.0983 10.895 23.152 10.9366C23.2758 10.9378 23.3029 10.9541 23.373 10.9918C23.3425 11.3191 23.113 11.4734 23.0417 11.7894C22.8535 11.7843 22.8246 11.7353 22.6279 11.7342V11.6243V11.6238ZM18.4887 12.7508C18.3886 12.8392 18.2535 12.8792 18.1574 12.9704C18.1483 12.998 18.1387 13.0256 18.1297 13.0526C17.6978 13.3956 17.2263 13.7218 16.7498 14.0146C16.401 14.2292 15.938 14.3514 15.7011 14.6742H15.6457C15.6745 14.5773 15.7469 14.5272 15.7836 14.4545C15.8023 14.3537 15.8204 14.2529 15.839 14.1521C15.8577 14.143 15.8758 14.1335 15.8944 14.1245V13.987C15.9131 13.978 15.9312 13.9684 15.9498 13.9594V13.7944C15.9674 13.7488 16.0352 13.7201 16.0601 13.6846C16.0991 13.6299 16.0996 13.5697 16.1426 13.5196H16.198C16.2071 13.4829 16.2167 13.4463 16.2257 13.4097H16.2811C16.3156 13.3697 16.3043 13.3151 16.3365 13.2723C16.388 13.2025 16.4988 13.1715 16.557 13.1073C16.6033 13.0566 16.6124 12.9828 16.6672 12.9423C16.8662 12.7958 17.0669 12.6967 17.2744 12.5576C17.3021 12.521 17.3298 12.4844 17.3569 12.4478H17.4394V12.3926C17.5926 12.2664 17.795 12.1695 17.9087 12.0079C17.9522 11.9454 17.9318 11.9155 17.9912 11.8705C17.9867 11.7989 17.9793 11.777 17.9635 11.733C17.7803 11.7753 17.5825 12.0546 17.4117 12.1453C17.3049 12.2022 17.1901 12.2011 17.0805 12.2551C16.4134 12.5846 15.9617 12.5266 15.2867 12.2551C15.1375 12.1949 14.8757 12.2574 14.7898 12.1999C14.7644 12.1701 14.7796 12.1966 14.7621 12.1447C14.9453 11.9983 15.1233 11.8474 15.3416 11.7325C15.4337 11.7235 15.5253 11.7139 15.6174 11.7049C16.0143 11.5804 16.54 11.6255 16.9697 11.4847C17.1692 11.4193 17.4129 11.4531 17.5768 11.3472V11.292H17.7425C17.7334 11.2734 17.7238 11.2554 17.7148 11.2368C17.7882 11.2627 17.7391 11.2757 17.7702 11.292H18.0737V11.3472H18.3496C18.6995 11.4464 19.1263 11.5444 19.4537 11.6497H19.5916C19.6295 11.6615 19.7188 11.7206 19.7572 11.7319H19.9506V11.7871H20.0885C20.1134 11.7967 20.1739 11.8609 20.1988 11.8693H20.3644C20.3734 11.8879 20.383 11.9059 20.3921 11.9245C20.5199 11.9775 20.6538 11.9544 20.7782 12.0068C21.4775 12.3008 22.2458 12.5779 22.9027 12.9141C23.0044 13.452 23.3809 14.045 23.7303 14.3435C23.78 14.3858 23.9553 14.441 24.0062 14.481V14.5362C24.0226 14.5525 24.1023 14.6111 24.1164 14.6184C24.321 14.7282 24.5686 14.771 24.7784 14.8656C24.7682 14.9242 24.775 14.9175 24.7507 14.9479C24.52 15.1388 23.7648 14.9107 23.5918 14.8381C23.4482 14.7778 23.1457 14.7012 23.04 14.6178C23.0372 14.6156 22.9665 14.4883 22.9575 14.4804C22.9179 14.4461 22.8625 14.4568 22.8196 14.4252C22.7534 14.3773 22.6545 14.2675 22.5991 14.2056V14.1504C22.5516 14.1042 22.473 14.0946 22.4334 14.0405C22.3814 13.969 22.3735 13.893 22.3232 13.8203C22.2429 13.706 22.1225 13.5821 22.0473 13.4627C22.0287 13.4075 22.0106 13.3528 21.9919 13.2977H21.9365C21.9179 13.2425 21.8998 13.1878 21.8811 13.1326C21.7997 12.9794 21.6318 12.5784 21.5222 12.4731C21.4973 12.4523 21.4368 12.4382 21.4119 12.4179H21.3565C21.3854 12.7817 21.6211 13.0431 21.7426 13.3252C22.0615 14.0631 22.6307 14.9755 23.2605 15.3872C23.4849 15.5336 23.884 15.5792 24.2538 15.5798C24.2306 15.7707 24.109 15.7488 23.9779 15.8271C23.5873 16.0597 22.9547 16.0845 22.4877 15.8823C21.8173 15.5916 21.4215 14.9575 21.1355 14.2878C21.0405 14.0659 21.0558 13.835 20.9698 13.6007C20.9614 13.5781 20.8947 13.5348 20.8873 13.5184V13.381C20.88 13.3641 20.8144 13.3207 20.8048 13.2988C20.768 13.1889 20.7313 13.0791 20.6945 12.9687C20.6617 12.9169 20.5922 12.8848 20.5566 12.8313C20.3955 12.918 20.5826 13.3162 20.5289 13.5736C20.5091 13.6699 20.5589 14.0101 20.5012 14.2061C20.4107 14.5148 20.305 14.8589 20.1976 15.1411C20.1541 15.2554 20.0868 15.6068 20.1699 15.7184C20.1507 15.7831 20.1411 15.7792 20.1145 15.8282C19.8765 15.7865 19.8686 15.4266 19.7555 15.2509C19.552 14.9344 19.4254 14.4996 19.314 14.0963C19.2564 13.8862 19.3282 13.5297 19.2315 13.3816C19.2049 13.3737 19.2213 13.3602 19.2038 13.3816C18.9658 13.5702 19.167 14.1076 19.0659 14.4539C18.9833 14.7361 18.8657 14.9777 18.7346 15.1963C18.7165 15.2605 18.6978 15.3247 18.6792 15.3889C18.4655 15.7223 18.2535 15.8687 18.21 16.406H18.1274C18.1235 16.1166 18.0082 16.0873 17.8793 15.9386C17.8126 15.862 17.8436 15.7657 17.7967 15.6637C17.6447 15.3371 17.6226 15.1129 17.7142 14.7564V14.5638C17.7244 14.5328 17.7871 14.4742 17.7967 14.4539C17.8154 14.3531 17.8335 14.2523 17.8521 14.1515C17.9725 13.8693 18.1964 13.4818 18.3762 13.2441C18.4039 13.2351 18.4316 13.2256 18.4587 13.2165C18.4678 13.1709 18.4774 13.1247 18.4864 13.0791C18.5113 13.0521 18.5735 13.0549 18.5966 13.0239C18.7329 12.8443 18.9251 12.5728 18.9556 12.3092C18.721 12.3531 18.6373 12.6156 18.4864 12.7491L18.4887 12.7508ZM1.26914 28.9438C1.17699 28.843 1.08541 28.7422 0.993261 28.6414C0.945209 27.6406 1.36693 27.3804 2.20756 27.1844C2.30084 27.1624 2.5377 27.1951 2.67677 27.1844V27.1292C2.59028 27.0802 2.50266 26.9934 2.4009 26.9641C2.16855 26.8977 1.90738 27.0565 1.68351 26.9641C1.33302 26.82 1.22448 26.3705 1.04866 26.0568C0.462994 26.0483 0.305836 26.3159 0.110237 26.6893C0.0457906 26.6808 0.0418334 26.6769 0 26.6617C0.00282658 26.4325 0.0797096 26.3491 0.137937 26.1942C0.200122 26.0292 0.193338 25.8709 0.275874 25.7267C0.479388 25.3719 1.04131 25.1506 1.54501 25.3421C1.62415 25.3719 1.67221 25.3573 1.73835 25.3973C1.76039 25.4102 1.79488 25.466 1.82088 25.4795H1.90342V25.5347C1.93282 25.5612 2.01479 25.5927 2.04136 25.6169V25.6721H2.09676C2.23809 25.7848 2.49022 26.0478 2.59367 26.1942C2.68977 26.33 2.78249 26.6144 2.92495 26.6893C3.00748 26.7079 3.09058 26.7259 3.17312 26.7445C3.38455 26.8729 3.59654 27.0013 3.80797 27.1292H3.83567C3.80288 26.6882 3.31728 26.6065 3.03518 26.4144C2.90403 26.3249 2.90855 26.1323 2.81471 26.0022C2.74178 25.9013 2.5394 25.7667 2.48343 25.6721C2.44386 25.6057 2.46648 25.5414 2.42803 25.4795C2.35567 25.3629 2.07754 24.9247 2.2347 24.7096V24.2973C2.12785 24.1159 1.62528 24.0106 1.29627 24.0224C1.2714 23.9926 1.2991 24.0191 1.26857 23.9948C1.29627 23.8174 1.42912 23.8067 1.54444 23.72C1.59645 23.6806 1.62246 23.5876 1.68238 23.555C1.81297 23.4834 2.27992 23.4502 2.42747 23.4998C2.76553 23.6141 3.0821 23.7679 3.28279 24.0224C3.30145 24.0134 3.31954 24.0044 3.33819 23.9948C3.39529 24.0562 3.40377 24.1914 3.44843 24.2697C3.49083 24.344 3.59598 24.4392 3.64177 24.517V24.5992C3.66947 24.6082 3.69717 24.6172 3.7243 24.6268V24.7642C3.80062 25.0019 3.85093 25.27 3.91764 25.5341C3.9476 25.6541 3.88994 25.8084 3.94534 25.8912C3.96061 26.1734 4.36594 26.3074 4.55249 26.4409C4.65425 26.5141 4.73 26.6431 4.82837 26.7158C5.25122 27.0272 5.64808 27.368 5.93243 27.8157C6.10824 27.8135 6.69335 27.8033 6.78775 27.8709C7.2157 27.8642 7.45878 27.3843 7.58824 27.0734C7.59729 27.0002 7.6069 26.927 7.61594 26.8537C7.87881 26.2207 7.82907 25.5555 8.00205 24.9292V24.6268L8.05745 24.5445C8.0665 24.4527 8.07611 24.3609 8.08515 24.2697C8.15412 24.0551 8.26492 23.7898 8.38873 23.6102C8.43169 23.5477 8.51197 23.5156 8.55437 23.4451C8.82741 23.4801 9.02075 23.5606 9.38199 23.555V23.5826H9.40969V23.6648C9.37464 23.7335 9.25366 23.7307 9.18865 23.7746C9.10951 23.8281 9.04167 23.9323 8.96818 23.9943C9.00492 24.2032 9.28362 24.2539 9.46509 24.3243C10.027 24.5429 10.8773 24.5322 11.3414 24.2421V24.1869C11.2147 24.1908 11.1022 24.2275 11.0378 24.2145C11.031 24.2134 11.0033 24.1768 10.9553 24.1869C10.8919 24.2004 10.7693 24.2629 10.6794 24.2421C10.3928 24.1751 10.0558 24.1351 9.79637 24.0219C9.68161 23.9718 9.57137 23.8659 9.46509 23.8017V23.7465C9.69235 23.6552 9.99762 23.546 10.0722 23.3066H10.0999C10.0519 23.2238 9.71044 23.2384 9.60303 23.1968C9.55837 23.1793 9.50975 23.1044 9.46509 23.0869H9.32715C9.25536 23.0548 9.15699 22.9574 9.07898 22.9219C9.0021 22.887 8.958 22.909 8.88564 22.8667C8.83137 22.8352 8.7754 22.7321 8.72 22.7017C8.62051 22.6476 8.47579 22.6797 8.38873 22.6195H8.33333V22.5919H8.36103C8.41982 22.4466 8.61881 22.5282 8.77484 22.482C8.98061 22.4207 9.32489 22.348 9.46453 22.2072H9.49223C9.40686 22.0394 8.92974 22.0799 8.71944 22.0146C8.47918 21.9402 8.23892 21.7786 8.02975 21.6845C7.94722 21.6474 7.88842 21.6716 7.80871 21.6293C7.66569 21.5544 7.55263 21.4283 7.3672 21.3821C7.37512 21.3179 7.37964 21.3139 7.3949 21.2723C7.55602 21.2447 7.8562 21.3303 8.08459 21.2723C8.20217 21.2424 8.38194 21.1962 8.4984 21.1624H8.63634C9.1112 20.9676 10.3549 20.758 10.6783 21.2447C10.9892 21.2368 11.2017 20.9698 11.5059 20.9698C11.8309 20.9698 12.2532 21.0211 12.5545 21.1072H12.8304C12.9503 21.1393 13.1419 21.1427 13.2719 21.1895C13.7123 21.3489 14.125 21.5713 14.5688 21.7392C14.5597 21.7577 14.5501 21.7758 14.5411 21.7944H14.6236C14.6694 21.822 14.7378 21.9059 14.7892 21.9318C14.8893 21.9825 14.9617 21.9684 15.0651 22.0146C15.4936 22.2044 16.0035 22.3818 16.4722 22.5367H16.6932C17.0432 22.6369 17.5576 22.7687 17.9075 22.7839H18.5424C18.63 22.7496 18.7696 22.6775 18.8736 22.6465C18.9709 22.9101 18.9217 23.2621 18.8459 23.5539C18.8369 23.6457 18.8273 23.7369 18.8182 23.8287C18.6583 24.3069 18.4661 24.7456 18.2388 25.1759C18.1093 25.4209 17.8154 25.7932 17.7419 26.0557C17.4683 26.108 17.2659 26.1593 17.0522 26.2207C16.8707 26.2725 16.5027 26.2263 16.3625 26.1931C16.0589 26.1751 15.7554 26.1565 15.4518 26.1379C15.4043 26.1249 15.3014 26.0686 15.2585 26.0557H15.0928V26.0005H14.9826C14.9351 25.9808 14.8644 25.9098 14.8169 25.8906H14.7067C14.6541 25.8659 14.5382 25.751 14.4862 25.7256H14.376C14.2115 25.6501 13.8712 25.4739 13.7688 25.3409C13.5258 25.3556 13.4805 25.5302 13.3273 25.6158C13.2499 25.6592 13.1888 25.6355 13.1063 25.671C13.0803 25.6823 13.0221 25.7436 12.9961 25.7532C12.8084 25.8247 12.6512 25.8163 12.472 25.8906C12.1453 26.0264 11.749 26.2708 11.5613 26.5507C11.468 26.6898 11.4787 26.8323 11.4233 27.0182C11.1362 27.9841 11.853 28.9602 12.3618 29.4102V29.4654C11.3549 29.4767 10.7942 28.8611 10.5126 28.1458C10.4352 27.9492 10.3097 27.3415 10.4301 27.1838V26.9912C10.2475 27.052 10.1112 27.5797 10.209 27.8433C10.3334 28.1756 10.5381 28.7963 10.4024 29.3004C10.3589 29.4626 10.4171 29.6107 10.347 29.7402C10.3193 29.7583 10.2916 29.7768 10.2644 29.7954C10.178 29.9334 10.1633 30.0827 10.0711 30.2077C10.0021 30.3018 9.8936 30.2961 9.85064 30.4279H9.79524C9.72457 30.0776 9.67087 29.8281 9.54706 29.5482C9.46453 29.4108 9.38142 29.2733 9.29889 29.1359C9.23388 28.9698 9.24349 28.8098 9.13325 28.696V28.6684H9.10555C9.08011 28.7681 9.02188 28.8492 8.99531 28.9433C8.96761 29.1449 8.93991 29.3465 8.91278 29.5482C8.90486 29.5651 8.83985 29.6084 8.83024 29.6304C8.7935 29.7115 8.81837 29.7729 8.77484 29.8506C8.74714 29.8687 8.71944 29.8872 8.6923 29.9058V29.9881C8.67308 30.0117 8.60468 30.0196 8.58207 30.0432C8.54532 30.0984 8.50858 30.1531 8.47183 30.2083C8.33163 30.3496 8.16486 30.4437 8.05802 30.6205C7.99357 30.6121 7.98961 30.6082 7.94778 30.5929C7.95965 30.4409 8.02353 30.3665 8.05802 30.2629C8.12699 30.0585 8.04671 29.9064 8.11342 29.7132C7.95117 29.6051 7.94213 29.3556 7.78214 29.2457C7.65269 29.2046 7.55319 29.5189 7.45087 29.6028C7.38812 29.6546 7.33498 29.6422 7.25753 29.685C7.24849 29.7036 7.23888 29.7217 7.22983 29.7402C6.98448 29.8861 6.62098 29.8816 6.37451 29.9329C6.23657 29.9238 6.09863 29.9143 5.9607 29.9053C5.85102 29.934 5.74022 29.9813 5.60172 29.9875C5.60907 29.8084 5.75549 29.5324 5.84989 29.4378V29.3556C5.63846 29.4046 5.47622 29.5341 5.29814 29.6028C5.15851 29.6569 4.9827 29.6783 4.85663 29.7126C4.57567 29.7892 4.28623 29.7087 4.11155 29.8777C4.03975 29.8732 4.0177 29.8658 3.97361 29.8501C4.00414 29.6417 4.11211 29.5763 4.11155 29.3274C3.81136 29.3218 3.49931 29.4226 3.22852 29.3274C3.2076 29.3201 3.16012 29.2508 3.14599 29.2452C3.0414 29.2029 2.90516 29.2587 2.87011 29.3004C2.80566 29.2925 2.80171 29.288 2.75987 29.2728C2.79436 29.0086 3.13242 28.8318 3.31162 28.6955V28.6403C3.4733 28.5355 3.74183 28.5642 3.89107 28.4206H3.91877V28.3654C3.51457 28.3722 3.13355 28.3423 2.81471 28.4477C2.61685 28.513 2.40938 28.6639 2.23526 28.7225C1.97861 28.8087 1.72365 28.6279 1.62811 28.5299C1.51561 28.54 1.52014 28.5614 1.43477 28.5851C1.40707 28.7045 1.37937 28.8233 1.35224 28.9427H1.2697L1.26914 28.9438ZM20.9721 39.556V39.6112H20.9444V39.556H20.9721Z" fill="white"/>
</g>
<defs>
<clipPath id="clip0_11346_15638">
<rect width="38" height="40.9645" fill="white" transform="translate(0 0.681641)"/>
</clipPath>
</defs>
</svg>
