<?xml version="1.0" encoding="UTF-8"?>
<svg width="466px" height="60px" viewBox="0 0 466 60" version="1.1" xmlns="http://www.w3.org/2000/svg" xmlns:xlink="http://www.w3.org/1999/xlink">
    <!-- Generator: sketchtool 52.6 (67491) - http://www.bohemiancoding.com/sketch -->
    <title>543B8352-8A8A-4964-B45A-1E52A8AA72D8</title>
    <desc>Created with sketchtool.</desc>
    <g id="Interior" stroke="none" stroke-width="1" fill="none" fill-rule="evenodd">
        <g id="Style-Guide" transform="translate(-30.000000, -20.000000)">
            <g id="Header-+-Tier-2-+-Breadcrumbs">
                <g id="Header/Interior">
                    <g id="Logo" transform="translate(30.000000, 20.000000)">
                        <path d="M58.8756303,29.8512605 C58.8756303,45.889916 45.8737815,58.8917647 29.8351261,58.8917647 C13.7964706,58.8917647 0.794621849,45.889916 0.794621849,29.8512605 C0.794621849,13.812605 13.7964706,0.810756303 29.8351261,0.810756303 C45.8737815,0.810756303 58.8756303,13.812605 58.8756303,29.8512605" id="Fill-1" fill="#FFFFFF"></path>
                        <path d="M29.7912605,58.4757983 C13.9835294,58.4757983 1.16773109,45.6615126 1.16773109,29.8522689 C1.16773109,14.042521 13.9835294,1.22672269 29.7912605,1.22672269 C45.6005042,1.22672269 58.4168067,14.042521 58.4168067,29.8522689 C58.4168067,45.6615126 45.6005042,58.4757983 29.7912605,58.4757983 Z M29.7917647,0.481008403 C13.5715966,0.481008403 0.421008403,13.6315966 0.421008403,29.8522689 C0.421008403,46.072437 13.5715966,59.2230252 29.7917647,59.2230252 C46.012437,59.2230252 59.162521,46.072437 59.162521,29.8522689 C59.162521,13.6315966 46.012437,0.481008403 29.7917647,0.481008403 Z" id="Fill-2" fill="#046A38"></path>
                        <path d="M29.7917647,50.3858824 C18.4517647,50.3858824 9.25815126,41.1922689 9.25815126,29.8522689 C9.25815126,18.5122689 18.4517647,9.31815126 29.7917647,9.31815126 C41.1332773,9.31815126 50.3253782,18.5122689 50.3253782,29.8522689 C50.3253782,41.1922689 41.1332773,50.3858824 29.7917647,50.3858824 Z M29.7917647,1.87764706 C14.3631933,1.87764706 1.81764706,14.4231933 1.81764706,29.8522689 C1.81764706,45.2808403 14.3631933,57.8263866 29.7917647,57.8263866 C45.2208403,57.8263866 57.7663866,45.2808403 57.7663866,29.8522689 C57.7663866,14.4231933 45.2208403,1.87764706 29.7917647,1.87764706 Z" id="Fill-3" fill="#046A38"></path>
                        <path d="M33.127563,4.20957983 C33.2127731,4.50504202 33.4991597,5.57647059 33.594958,5.99848739 C33.2430252,5.94756303 32.4705882,5.83159664 32.1428571,5.77462185 C32.292605,5.51042017 32.6394958,4.96588235 32.885042,4.58067227 C32.9747899,4.44 33.0564706,4.31142857 33.1210084,4.20857143 C33.1235294,4.20907563 33.1255462,4.20907563 33.127563,4.20957983 Z M33.9690756,7.37596639 C34.0492437,7.64268908 34.0951261,7.79546218 34.1122689,7.83882353 C34.1268908,7.87613445 34.1596639,7.90386555 34.1989916,7.91294118 C34.2630252,7.92806723 34.3719328,7.94168067 34.4742857,7.95428571 C34.5211765,7.95983193 34.5660504,7.96537815 34.6033613,7.97092437 C34.6094118,7.97142857 34.6154622,7.97193277 34.6210084,7.97193277 C34.6542857,7.97193277 34.6860504,7.95882353 34.7092437,7.93462185 C34.7369748,7.90588235 34.7490756,7.86605042 34.7420168,7.82773109 C34.7188235,7.69563025 34.4515966,6.6892437 34.1813445,5.71663866 C33.6312605,3.73361345 33.6030252,3.72655462 33.5067227,3.70386555 C33.4648739,3.69478992 33.0932773,3.62067227 32.8936134,3.61915966 C32.8583193,3.61966387 32.825042,3.63529412 32.8023529,3.66201681 C32.6097479,3.88638655 30.6655462,6.91361345 30.5006723,7.2010084 C30.48,7.23680672 30.4789916,7.28067227 30.4971429,7.31747899 C30.5157983,7.35428571 30.5515966,7.3789916 30.592437,7.38453782 C30.6231933,7.38806723 30.6690756,7.39260504 30.7205042,7.39815126 C30.8188235,7.40823529 30.9388235,7.42033613 31.0058824,7.43243697 C31.0583193,7.44151261 31.1107563,7.41579832 31.1359664,7.36840336 C31.1853782,7.27411765 31.6058824,6.5989916 31.7954622,6.34033613 C32.2658824,6.38823529 33.4063866,6.57176471 33.7396639,6.6312605 C33.7971429,6.80268908 33.8914286,7.11680672 33.9690756,7.37596639 Z" id="Fill-4" fill="#FFFFFF"></path>
                        <path d="M20.812437,9.28235294 C20.825042,9.28235294 20.8376471,9.28033613 20.8497479,9.27630252 C20.9808403,9.23445378 21.1063866,9.18806723 21.1936134,9.1487395 C21.2495798,9.12352941 21.2783193,9.0605042 21.2606723,9.00201681 C21.2203361,8.86537815 21.062521,8.40655462 20.8951261,7.9205042 C20.7373109,7.46168067 20.5714286,6.97915966 20.4887395,6.72252101 C20.4272269,6.54302521 20.3571429,6.32470588 20.285042,6.08823529 C20.4867227,6.20621849 20.7433613,6.35798319 20.82,6.40739496 C21.289916,6.70739496 21.7623529,7.03310924 22.2191597,7.34773109 C22.4984874,7.54033613 22.7778151,7.73294118 23.0581513,7.9210084 C23.1781513,8.00067227 23.6036975,8.27142857 23.697479,8.31579832 C23.7252101,8.32890756 23.7569748,8.33092437 23.7857143,8.32235294 C23.9052101,8.28655462 24.307563,8.1302521 24.4008403,8.08537815 C24.4552941,8.05966387 24.4830252,7.99815126 24.4663866,7.94067227 C24.2193277,7.08151261 23.9536134,6.30554622 23.6727731,5.48369748 L23.5502521,5.12571429 C23.4584874,4.85394958 23.3541176,4.54588235 23.2744538,4.35176471 C23.2623529,4.32151261 23.2381513,4.29731092 23.2084034,4.28470588 C23.1781513,4.27210084 23.1438655,4.27210084 23.1141176,4.28470588 C23.0742857,4.30134454 23.0258824,4.31596639 22.977479,4.33058824 C22.8927731,4.35680672 22.8131092,4.38151261 22.7536134,4.41680672 C22.7042017,4.44655462 22.6820168,4.50605042 22.6996639,4.5605042 C22.7848739,4.82117647 22.9235294,5.21193277 23.042521,5.54672269 C23.1332773,5.80285714 23.2129412,6.02621849 23.2477311,6.13411765 C23.3364706,6.39529412 23.567395,7.12285714 23.6818487,7.51512605 C23.52,7.41630252 23.2921008,7.26504202 23.0223529,7.07546218 C22.5408403,6.73714286 22.0467227,6.40537815 21.5682353,6.08470588 L20.9884034,5.69495798 L20.3455462,5.29109244 C20.334958,5.28403361 20.3233613,5.2789916 20.3112605,5.27596639 C20.1731092,5.23764706 19.5680672,5.55327731 19.5630252,5.55680672 C19.5161345,5.58605042 19.4944538,5.64252101 19.510084,5.69596639 C19.7339496,6.45983193 20.5290756,8.89865546 20.7045378,9.21831933 C20.7267227,9.25865546 20.7685714,9.28235294 20.812437,9.28235294" id="Fill-5" fill="#FFFFFF"></path>
                        <path d="M40.2685714,6.63327731 C40.3023529,6.37411765 40.127395,6.01008403 40.0431933,5.83512605 L40.0220168,5.7912605 C39.6191597,4.94420168 38.94,4.58067227 37.7515966,4.57663866 C37.7460504,4.57714286 37.7465546,4.57714286 37.7440336,4.57714286 C36.9277311,4.62504202 36.4734454,4.99411765 36.2747899,5.21042017 C36.0504202,5.45647059 35.8931092,5.74537815 35.7796639,6.1210084 C35.5114286,7.02352941 36.0776471,8.00117647 36.5889076,8.35966387 C37.0341176,8.67226891 37.6371429,8.92436975 38.2517647,8.92436975 C38.5739496,8.92436975 38.8996639,8.85529412 39.2072269,8.68941176 C39.4547899,8.55529412 39.6216807,8.39344538 39.7018487,8.20739496 C39.727563,8.14840336 39.6932773,8.07428571 39.6363025,8.04453782 C39.527395,7.98756303 39.4205042,7.93159664 39.2884034,7.86605042 C39.2410084,7.84235294 39.1835294,7.85193277 39.1462185,7.8897479 C39.114958,7.92151261 39.0862185,7.95579832 39.0564706,7.99109244 C38.9586555,8.10756303 38.8668908,8.21697479 38.5986555,8.30369748 C38.2583193,8.41210084 37.6678992,8.3707563 37.1979832,8.08033613 C36.4406723,7.61495798 36.2147899,6.94840336 36.5268908,6.09831933 C36.6968067,5.63798319 37.1047059,5.29109244 37.6179832,5.17109244 C38.1715966,5.04201681 38.7468908,5.19630252 39.1563025,5.58453782 C39.3201681,5.74033613 39.4583193,5.98235294 39.545042,6.26521008 C39.5636975,6.32722689 39.5752941,6.38521008 39.5868908,6.44168067 C39.5984874,6.49915966 39.610084,6.55563025 39.6272269,6.61411765 C39.6398319,6.65697479 39.6746218,6.6897479 39.7179832,6.69983193 C39.8394958,6.72756303 40.1389916,6.74016807 40.1420168,6.74016807 C40.2040336,6.74319328 40.2605042,6.69630252 40.2685714,6.63327731" id="Fill-6" fill="#FFFFFF"></path>
                        <path d="M15.2092437,8.57546218 C15.4310924,8.17512605 15.7709244,7.86857143 16.1687395,7.7112605 C16.3618487,7.63109244 16.5458824,7.59176471 16.7238655,7.59176471 C16.8171429,7.59176471 16.9084034,7.60235294 16.9991597,7.62403361 C16.9991597,7.62403361 16.9991597,7.62403361 16.9996639,7.62403361 C17.7020168,7.78840336 17.9294118,8.07680672 18.2026891,8.70302521 C18.4114286,9.18302521 18.3282353,9.71546218 17.9737815,10.1636975 C17.5865546,10.6537815 16.9608403,10.917479 16.4183193,10.8201681 C16.1042017,10.7626891 15.8551261,10.6578151 15.6973109,10.5171429 C15.2611765,10.1319328 14.8215126,9.27478992 15.2092437,8.57546218 Z M16.1596639,11.4 C16.2589916,11.4201681 16.3588235,11.4292437 16.4576471,11.4292437 C16.8942857,11.4292437 17.3102521,11.2583193 17.5436975,11.1418487 C18.227395,10.8015126 18.6463866,10.3779832 18.8621849,9.80823529 C19.2332773,8.82655462 18.6005042,7.61647059 17.8078992,7.2302521 C17.5280672,7.09310924 16.9457143,6.80823529 16.0810084,7.18235294 C15.7729412,7.31596639 15.2057143,7.60588235 14.8658824,8.04705882 C14.7917647,8.14436975 14.6097479,8.3989916 14.5169748,8.6697479 C14.3228571,9.23445378 14.3757983,9.82487395 14.6667227,10.3315966 C14.9788235,10.8756303 15.5369748,11.274958 16.1596639,11.4 Z" id="Fill-7" fill="#FFFFFF"></path>
                        <path d="M42.2727731,9.19966387 C42.6872269,8.92033613 43.4455462,8.41815126 43.734958,8.22705882 C43.6744538,8.61277311 43.5635294,9.28134454 43.4884034,9.73663866 C43.4707563,9.84302521 43.4551261,9.93831933 43.4420168,10.014958 C43.1163025,9.79361345 42.534958,9.38621849 42.2727731,9.19966387 Z M43.2115966,11.8492437 C43.2121008,11.887563 43.2297479,11.9233613 43.26,11.9465546 C43.3447059,12.0110924 43.4384874,12.0660504 43.5378151,12.1240336 L43.6396639,12.1840336 C43.6593277,12.1961345 43.6810084,12.2016807 43.7026891,12.2016807 C43.7430252,12.2016807 43.7818487,12.1820168 43.8055462,12.1462185 C43.8247059,12.117479 43.8247059,12.117479 44.2542857,8.98184874 C44.3268908,8.44941176 44.3808403,8.05613445 44.3853782,8.02638655 C44.4055462,7.84991597 43.7808403,7.53630252 43.7742857,7.53327731 C43.7379832,7.51613445 43.6956303,7.51764706 43.6608403,7.53680672 C42.827395,8.00369748 40.3830252,9.60907563 40.2186555,9.74420168 C40.1914286,9.76638655 40.1752941,9.79915966 40.1737815,9.83394958 C40.1722689,9.8687395 40.1858824,9.90252101 40.2105882,9.92722689 C40.2136134,9.9297479 40.5055462,10.1858824 40.6457143,10.1732773 C40.6784874,10.1702521 40.7147899,10.1667227 41.7156303,9.5707563 L43.3321008,10.6593277 C43.3008403,10.8927731 43.2105882,11.5885714 43.2115966,11.8492437 Z" id="Fill-8" fill="#FFFFFF"></path>
                        <path d="M45.5717647,13.0104202 C46.0578151,12.5334454 47.1393277,11.4852101 47.6031933,11.0384874 C47.7231933,11.1408403 47.9586555,11.3510924 48.0791597,11.4695798 L48.1472269,11.5361345 C48.3993277,11.7816807 48.66,12.0352941 48.7936134,12.372605 C49.0366387,12.9791597 48.78,13.6436975 48.4144538,13.9603361 C47.4347899,14.8119328 46.4712605,13.9905882 46.1031933,13.5988235 L46.0628571,13.5559664 C45.9534454,13.4394958 45.6942857,13.1626891 45.5717647,13.0104202 Z M46.0845378,14.3778151 C46.4485714,14.7136134 46.9840336,14.9934454 47.5794958,14.9934454 C47.8447059,14.9934454 48.1220168,14.9379832 48.4013445,14.8068908 C48.7023529,14.6657143 49.2363025,14.3334454 49.429916,13.6946218 C49.6840336,12.8561345 49.5090756,12.107395 48.9115966,11.4695798 C48.9005042,11.457479 47.7801681,10.2756303 47.5477311,10.207563 C47.507395,10.1954622 47.4635294,10.205042 47.4317647,10.2327731 C47.1821849,10.4521008 44.817479,12.7588235 44.7428571,12.889916 C44.7171429,12.9347899 44.7221849,12.9902521 44.7554622,13.0295798 C44.9480672,13.2610084 45.8667227,14.1786555 46.0845378,14.3778151 Z" id="Fill-9" fill="#FFFFFF"></path>
                        <path d="M10.6996639,12.5163025 C10.7979832,12.4008403 10.9931092,12.187563 11.1247059,12.0534454 C11.1655462,12.0121008 11.2129412,11.9601681 11.2658824,11.9021849 C11.4605042,11.6894118 11.7272269,11.397479 11.9909244,11.2613445 C12.2263866,11.1393277 12.5087395,11.2482353 12.6660504,11.4186555 C12.7477311,11.5068908 12.9166387,11.7463866 12.7205042,12.06 C12.5596639,12.3166387 12.5021849,12.3741176 12.2278992,12.6484034 C11.8290756,13.0472269 11.6193277,13.2443697 11.5094118,13.3401681 C11.3863866,13.2211765 11.1201681,12.949916 10.7142857,12.5314286 L10.6996639,12.5163025 Z M12.5435294,15.3564706 C12.5647059,15.3710924 12.5889076,15.3781513 12.6131092,15.3781513 C12.6378151,15.3781513 12.662521,15.3705882 12.6836975,15.3559664 C12.7547899,15.3055462 12.8284034,15.2304202 12.8994958,15.1573109 C12.9408403,15.1144538 12.9801681,15.0736134 13.0139496,15.0448739 C13.0391597,15.0226891 13.0547899,14.9914286 13.0563025,14.9581513 C13.0583193,14.9248739 13.0462185,14.8921008 13.0235294,14.867395 C12.967563,14.807395 12.7588235,14.5941176 12.5284034,14.3581513 C12.3231933,14.1484034 12.1008403,13.9215126 11.9536134,13.7687395 C12.0685714,13.6431933 12.2001681,13.5045378 12.2853782,13.4238655 C12.4532773,13.2640336 12.6443697,13.0497479 12.7976471,12.8778151 C12.8914286,12.772437 12.9680672,12.6862185 13.0109244,12.6453782 L13.0472269,12.6095798 C13.1616807,12.4961345 13.2781513,12.3786555 13.4747899,12.4119328 C13.6527731,12.4426891 13.8418487,12.6166387 14.0238655,12.7845378 C14.2487395,12.9917647 14.4847059,13.2060504 14.7383193,13.1808403 C14.8810084,13.1672269 15.0121008,13.08 15.127563,12.9221849 C15.1426891,12.9010084 15.1512605,12.8757983 15.1512605,12.8495798 C15.1512605,12.7764706 15.1018487,12.7492437 15.049916,12.7205042 C14.9783193,12.6806723 14.8104202,12.5878992 14.7252101,12.5203361 C14.6369748,12.4507563 14.5527731,12.3610084 14.4640336,12.2662185 C14.2633613,12.0514286 14.0364706,11.8089076 13.6905882,11.7458824 C13.5751261,11.7262185 13.4606723,11.7564706 13.3643697,11.7978151 C13.392605,11.6742857 13.4157983,11.5321008 13.3961345,11.4166387 C13.3295798,11.0127731 13.0931092,10.7223529 12.7129412,10.5776471 C12.5798319,10.5262185 12.1769748,10.4808403 11.8436975,10.6784874 C11.8426891,10.6789916 11.8416807,10.68 11.8406723,10.6805042 C11.3087395,11.0168067 10.0472269,12.3509244 9.91462185,12.5410084 C9.88235294,12.587395 9.88537815,12.649916 9.92268908,12.6922689 C10.4067227,13.2453782 12.2838655,15.1779832 12.5435294,15.3564706 Z" id="Fill-10" fill="#FFFFFF"></path>
                        <path d="M48.0196639,16.5998319 C48.1028571,16.7531092 49.4793277,18.9 49.6205042,19.0784874 C49.6442017,19.1092437 49.6805042,19.1253782 49.7168067,19.1253782 C49.74,19.1253782 49.7626891,19.1188235 49.7833613,19.1057143 L49.8539496,19.0583193 C49.9038655,19.0245378 49.9648739,18.9831933 49.9936134,18.9660504 C50.0521008,18.9317647 50.0717647,18.8566387 50.037479,18.7981513 C49.985042,18.7078992 49.7631933,18.36 49.5065546,17.9566387 C49.2332773,17.527563 48.9035294,17.0097479 48.7684034,16.7868908 C49.009916,16.617479 49.6058824,16.2292437 49.8277311,16.1001681 C49.990084,16.3139496 50.4121008,16.9678992 50.6783193,17.3793277 C50.9016807,17.7252101 51.0297479,17.9233613 51.0705882,17.9752941 C51.107395,18.0231933 51.1739496,18.0368067 51.2268908,18.0080672 C51.2969748,17.9692437 51.3352941,17.9445378 51.3736134,17.9198319 L51.4265546,17.8865546 C51.4820168,17.8527731 51.5016807,17.7821849 51.4719328,17.7252101 C51.4119328,17.6087395 51.0357983,16.9870588 50.7040336,16.4389916 C50.5426891,16.1722689 50.3878992,15.9166387 50.3067227,15.7805042 C50.3626891,15.7436975 50.4347899,15.6957983 50.514958,15.6428571 C50.7161345,15.5092437 51.0579832,15.2828571 51.2102521,15.1870588 C51.3932773,15.4094118 51.9368067,16.2242017 52.2121008,16.6371429 C52.372437,16.8771429 52.4969748,17.0642017 52.5378151,17.1191597 C52.5751261,17.1695798 52.6452101,17.1836975 52.6991597,17.1514286 C52.8085714,17.0863866 52.8504202,17.0541176 52.9114286,17.0062185 C52.9542857,16.972437 52.969916,16.914958 52.9502521,16.8645378 C52.8584874,16.6265546 51.5289076,14.6188235 51.3529412,14.4509244 C51.3297479,14.4292437 51.2994958,14.4171429 51.2677311,14.4171429 C51.1684034,14.4171429 48.0892437,16.4188235 48.0594958,16.4389916 C48.0070588,16.4747899 47.989916,16.5438655 48.0196639,16.5998319" id="Fill-11" fill="#FFFFFF"></path>
                        <path d="M10.5776471,16.4228571 C10.7722689,16.5857143 10.8151261,16.8690756 10.6921008,17.1811765 C10.6921008,17.1816807 10.6921008,17.1816807 10.6921008,17.1816807 C10.6371429,17.3218487 9.96907563,18.3423529 9.7194958,18.709916 C9.49512605,18.5586555 8.97327731,18.2047059 8.71260504,18.0191597 C8.79529412,17.9001681 8.88857143,17.757479 8.97176471,17.6289076 C9.02621849,17.5462185 9.07613445,17.4695798 9.11647059,17.4095798 C9.17142857,17.3278992 9.22588235,17.2401681 9.28134454,17.1504202 C9.46184874,16.8584874 9.64840336,16.5569748 9.90554622,16.3986555 C10.1263866,16.2615126 10.3966387,16.2715966 10.5776471,16.4228571 Z M7.32957983,17.0773109 C7.40117647,16.9467227 7.5302521,16.7263866 7.57058824,16.6613445 L7.66840336,16.5010084 C7.87008403,16.1677311 8.14588235,15.7114286 8.3994958,15.552605 C8.67630252,15.3806723 8.99344538,15.5833613 9.09529412,15.7023529 C9.25462185,15.8878992 9.20369748,16.2221849 8.95563025,16.6210084 C8.84621849,16.7984874 8.42268908,17.4398319 8.23714286,17.7095798 C8.04352941,17.5784874 7.7112605,17.3490756 7.51411765,17.2119328 C7.42588235,17.1504202 7.36689076,17.1065546 7.32957983,17.0773109 Z M9.69579832,19.5297479 C9.71546218,19.5413445 9.73714286,19.547395 9.75831933,19.547395 C9.79613445,19.547395 9.83344538,19.5297479 9.85714286,19.497479 C10.2206723,19.0078992 10.4919328,18.6226891 10.7102521,18.2858824 L10.8090756,18.1366387 C11.0016807,17.8467227 11.2003361,17.5472269 11.3238655,17.1978151 C11.4489076,16.8463866 11.4322689,16.4894118 11.2769748,16.1934454 C11.1373109,15.9272269 10.9023529,15.7381513 10.6159664,15.6610084 C10.3573109,15.5909244 10.0689076,15.649916 9.74672269,15.8455462 C9.7512605,15.6771429 9.73714286,15.482521 9.67109244,15.3277311 C9.57529412,15.1018487 9.33882353,14.9157983 9.05495798,14.8421849 C8.75747899,14.765042 8.45394958,14.8235294 8.22302521,15.002521 C7.88268908,15.2662185 7.76621849,15.3811765 7.40268908,15.905042 C7.28521008,16.0754622 6.65747899,17.0455462 6.56016807,17.2729412 C6.53848739,17.3238655 6.55310924,17.3828571 6.59647059,17.4171429 C6.78252101,17.5653782 9.44722689,19.3820168 9.69579832,19.5297479 Z" id="Fill-12" fill="#FFFFFF"></path>
                        <path d="M50.2880672,20.6460504 L50.3178151,20.7423529 C50.3455462,20.8336134 50.3788235,20.942521 50.4,20.9979832 C50.4226891,21.057479 50.4867227,21.0902521 50.5482353,21.072605 C50.6334454,21.0489076 51.0872269,20.8905882 51.8203361,20.6344538 C52.3003361,20.4670588 52.8892437,20.2613445 53.2951261,20.1226891 C53.0662185,20.3455462 52.7591597,20.642521 52.4722689,20.9198319 C51.7936134,21.5763025 51.0917647,22.254958 50.9490756,22.4077311 C50.9198319,22.4389916 50.9092437,22.4828571 50.9203361,22.5242017 C50.952605,22.6401681 51.049916,22.930084 51.1139496,23.0460504 C51.1310924,23.0763025 51.1603361,23.0984874 51.1941176,23.1060504 C51.2586555,23.1206723 51.8546218,23.1937815 52.8226891,23.3112605 C53.3707563,23.3778151 54.0020168,23.4544538 54.4255462,23.5084034 C54.1885714,23.5931092 53.8890756,23.7 53.5941176,23.8048739 C52.7278992,24.1134454 51.832437,24.432605 51.6973109,24.4895798 C51.6388235,24.5147899 51.6090756,24.5803361 51.6287395,24.6408403 C51.6620168,24.7442017 51.7164706,24.8763025 51.7542857,24.9695798 L51.769916,25.007395 C51.7890756,25.0547899 51.834958,25.0840336 51.8838655,25.0840336 C51.8954622,25.0840336 51.907563,25.082521 51.9191597,25.0789916 C52.0568067,25.0371429 52.7964706,24.7931092 53.58,24.5344538 C54.4215126,24.2566387 55.3754622,23.9415126 55.4364706,23.9258824 C55.4722689,23.9203361 55.5035294,23.8996639 55.5226891,23.8689076 C55.5413445,23.8381513 55.5458824,23.8008403 55.5347899,23.7665546 C55.5231933,23.7302521 55.4944538,23.6369748 55.4611765,23.5290756 C55.4021849,23.3379832 55.3290756,23.1020168 55.309916,23.050084 C55.2715966,22.9487395 55.2715966,22.9487395 52.7919328,22.632605 C52.4132773,22.5842017 52.0482353,22.5378151 51.8183193,22.5065546 C52.1067227,22.2312605 52.7067227,21.6640336 53.2522689,21.1487395 L54.2914286,20.1655462 C54.3247059,20.1342857 54.3378151,20.0868908 54.3252101,20.042521 C54.2556303,19.8005042 54.1840336,19.5504202 54.0902521,19.330084 C54.0736134,19.2917647 54.0398319,19.2645378 53.9989916,19.257479 C53.9087395,19.2342857 50.3858824,20.4826891 50.3551261,20.4963025 C50.2981513,20.5215126 50.2689076,20.5860504 50.2880672,20.6460504" id="Fill-13" fill="#FFFFFF"></path>
                        <path d="M8.23058824,23.5280672 C8.24117647,23.5310924 8.25176471,23.5321008 8.26235294,23.5321008 C8.31428571,23.5321008 8.36218487,23.4988235 8.37932773,23.4468908 C8.4897479,23.1040336 8.71714286,22.4147899 8.91781513,21.8062185 C9.11848739,21.1986555 9.27680672,20.7186555 9.29596639,20.6536134 C9.31462185,20.5895798 9.27882353,20.522521 9.21529412,20.5018487 C9.19310924,20.4947899 9.12857143,20.4756303 9.06857143,20.4579832 L8.95915966,20.4252101 C8.89865546,20.4065546 8.83462185,20.4357983 8.80941176,20.4937815 C8.77462185,20.5754622 8.63394958,20.9889076 8.47109244,21.467395 C8.31529412,21.9257143 8.11109244,22.5252101 8.02386555,22.7576471 C7.74151261,22.6759664 7.10672269,22.4737815 6.83445378,22.3734454 C6.99327731,21.9040336 7.53176471,20.2976471 7.55546218,20.2134454 C7.57310924,20.1494118 7.53731092,20.0828571 7.47378151,20.0626891 C7.44957983,20.0551261 7.39411765,20.0364706 7.33966387,20.0173109 C7.28521008,19.9986555 7.2307563,19.98 7.20655462,19.972437 C7.14504202,19.9527731 7.07747899,19.9855462 7.05428571,20.0465546 C7.04117647,20.0818487 6.98521008,20.2447059 6.90857143,20.4680672 C6.75781513,20.9087395 6.43008403,21.8662185 6.31159664,22.1677311 C6.12,22.1082353 5.77764706,21.9942857 5.51445378,21.9065546 C5.4287395,21.8778151 5.35109244,21.8521008 5.29008403,21.8319328 C5.35310924,21.6131092 5.49831933,21.1391597 5.62941176,20.7110924 C5.79327731,20.1756303 5.93445378,19.7137815 5.95663866,19.622521 C5.9697479,19.5685714 5.94504202,19.5131092 5.89714286,19.4858824 C5.83663866,19.4521008 5.77714286,19.4314286 5.71411765,19.4097479 L5.63798319,19.3820168 C5.6102521,19.3719328 5.5805042,19.3719328 5.55327731,19.3815126 C5.42016807,19.4294118 4.61243697,22.1884034 4.60638655,22.2156303 C4.59428571,22.2680672 4.61798319,22.3220168 4.66436975,22.3492437 C4.86705882,22.4672269 8.20184874,23.5205042 8.23058824,23.5280672" id="Fill-14" fill="#FFFFFF"></path>
                        <path d="M6.40487395,28.9855462 C6.87529412,29.0304202 7.32,29.0727731 7.41983193,29.0773109 C7.42134454,29.0773109 7.42336134,29.0773109 7.42537815,29.0773109 C7.48588235,29.0773109 7.53781513,29.0329412 7.54689076,28.972437 L7.55294118,28.9310924 C7.56806723,28.8317647 7.59378151,28.6633613 7.60336134,28.5620168 C7.60689076,28.5292437 7.59630252,28.4964706 7.57512605,28.4712605 C7.55394958,28.4460504 7.52319328,28.429916 7.49042017,28.427395 L7.32554622,28.4152941 C6.99327731,28.3905882 6.19613445,28.3310924 5.88756303,28.3033613 C5.91176471,28.0094118 5.96773109,27.2853782 6.01764706,26.6334454 C6.04689076,26.2588235 6.07260504,25.9230252 6.08722689,25.7415126 C6.20621849,25.752605 6.38773109,25.7697479 6.58739496,25.7878992 C7.03008403,25.8292437 7.63613445,25.8852101 7.70672269,25.8957983 C7.77277311,25.9048739 7.83428571,25.8615126 7.84588235,25.7959664 C7.86453782,25.6936134 7.88016807,25.5242017 7.88823529,25.4107563 C7.8897479,25.3870588 7.88470588,25.3638655 7.87361345,25.3431933 C7.83478992,25.2715966 7.83478992,25.2715966 4.21411765,24.9191597 L4.08252101,24.9060504 C4.05226891,24.9035294 4.02252101,24.9115966 3.99831933,24.9292437 C3.94033613,24.9715966 3.93680672,25.0270588 3.92470588,25.2105882 C3.92016807,25.2766387 3.91714286,25.3431933 3.90957983,25.3719328 C3.90151261,25.4057143 3.90756303,25.4410084 3.92672269,25.4702521 C3.94588235,25.4989916 3.97613445,25.5181513 4.01042017,25.5236975 C4.16268908,25.5468908 5.13378151,25.6542857 5.47815126,25.692605 C5.43983193,26.1448739 5.30420168,27.7497479 5.25983193,28.2342857 C5.00319328,28.2141176 4.60789916,28.1818487 4.28571429,28.1551261 L3.80168067,28.1152941 C3.73361345,28.1107563 3.67462185,28.1606723 3.66957983,28.2282353 L3.66352941,28.2978151 C3.65596639,28.3890756 3.64638655,28.4979832 3.63983193,28.6366387 C3.63680672,28.7021849 3.68621849,28.7586555 3.7512605,28.7647059 C4.19747899,28.8060504 4.61848739,28.8373109 5.05109244,28.8695798 L5.51193277,28.9043697 C5.60369748,28.9094118 6.01109244,28.9482353 6.40487395,28.9855462" id="Fill-15" fill="#FFFFFF"></path>
                        <path d="M55.9744538,29.0389916 C55.7445378,28.8605042 55.4077311,28.5932773 55.077479,28.3321008 C54.834958,28.14 54.5959664,27.9504202 54.4058824,27.8011765 C54.5248739,27.6791597 54.7507563,27.4563025 54.9564706,27.2536134 C55.907395,26.3163025 55.907395,26.3163025 55.8710924,26.2331092 C55.8564706,26.1746218 55.8428571,26.0843697 55.8312605,26.0107563 C55.807563,25.8584874 55.7944538,25.7742857 55.6845378,25.7742857 C55.6537815,25.7742857 55.6245378,25.7858824 55.6018487,25.8060504 C55.4485714,25.9457143 55.2115966,26.1766387 54.9610084,26.4216807 C54.5647059,26.8094118 53.9692437,27.3917647 53.8351261,27.4618487 C53.3369748,27.5183193 52.1198319,27.6443697 52.0532773,27.647395 C52.02,27.6489076 51.9887395,27.6635294 51.9665546,27.6887395 C51.9443697,27.7134454 51.9332773,27.7462185 51.9357983,27.7794958 C51.9403361,27.8445378 51.9489076,27.9151261 51.9569748,27.9862185 C51.9635294,28.0406723 51.970084,28.0951261 51.9746218,28.1480672 C51.9806723,28.2105882 52.0321008,28.2584874 52.0951261,28.26 C52.2620168,28.2615126 53.0742857,28.2337815 53.5593277,28.2166387 C53.6994958,28.2115966 53.8094118,28.2080672 53.8623529,28.2065546 C53.997479,28.2756303 54.5944538,28.7208403 54.9952941,29.0198319 C55.7072269,29.5502521 55.8332773,29.6389916 55.8957983,29.6536134 C55.9048739,29.6556303 55.9139496,29.6561345 55.9230252,29.6561345 C55.9492437,29.6561345 55.974958,29.6480672 55.9961345,29.6319328 C56.0253782,29.6102521 56.0430252,29.577479 56.0455462,29.5411765 C56.0742857,29.1045378 56.0021849,29.0566387 55.9744538,29.0389916" id="Fill-16" fill="#FFFFFF"></path>
                        <path d="M8.17714286,41.2164706 C8.22756303,41.1968067 8.28605042,41.1695798 8.3405042,41.1443697 L8.41865546,41.1085714 C8.47865546,41.0823529 8.50739496,41.0137815 8.48420168,40.9522689 C8.44941176,40.8594958 8.18470588,40.2201681 7.9512605,39.6559664 C7.82168067,39.3433613 7.69764706,39.0443697 7.63411765,38.8890756 C7.83478992,38.7993277 8.26336134,38.6107563 8.56235294,38.4796639 C8.76705882,38.9193277 9.50773109,40.510084 9.55563025,40.6063866 C9.58537815,40.6658824 9.65747899,40.6910924 9.71798319,40.6623529 L9.80016807,40.6230252 C9.85210084,40.5978151 9.90504202,40.5721008 9.94436975,40.5554622 C9.97411765,40.5423529 9.99781513,40.5181513 10.009916,40.4878992 C10.0215126,40.4571429 10.0210084,40.4233613 10.0078992,40.3936134 C9.96756303,40.2998319 9.80470588,39.9191597 9.61159664,39.4663866 C9.34689076,38.8472269 9.02521008,38.0944538 8.8794958,37.7571429 C8.86285714,37.7178151 8.82705882,37.6905882 8.78521008,37.6840336 C8.78470588,37.6840336 8.78420168,37.6840336 8.78369748,37.6840336 C8.66823529,37.6840336 5.32336134,39.2238655 5.29310924,39.24 C5.23915966,39.2687395 5.21445378,39.3322689 5.23462185,39.3897479 C5.2512605,39.4361345 5.28655462,39.5102521 5.31882353,39.5788235 C5.34352941,39.6302521 5.36672269,39.6776471 5.37529412,39.7018487 C5.39647059,39.7653782 5.46453782,39.7996639 5.52907563,39.7794958 C5.60369748,39.7552941 6.01512605,39.5803361 6.58840336,39.3368067 C6.77747899,39.2561345 6.94941176,39.1830252 7.06134454,39.1361345 C7.10218487,39.2233613 7.16369748,39.3554622 7.23579832,39.5107563 C7.61546218,40.3280672 7.96184874,41.0697479 8.03042017,41.1710924 C8.05411765,41.2053782 8.09243697,41.2245378 8.13226891,41.2245378 C8.14739496,41.2245378 8.16252101,41.2220168 8.17714286,41.2164706" id="Fill-17" fill="#FFFFFF"></path>
                        <path d="M52.7132773,39.409916 C52.6038655,39.6559664 52.3694118,40.1909244 52.2307563,40.507563 C52.0008403,40.1248739 51.4966387,39.2652101 51.2263866,38.7947899 C51.6635294,38.9737815 52.4178151,39.2858824 52.7132773,39.409916 Z M54.3337815,39.3539496 C54.1951261,39.2994958 53.754958,39.0978151 53.5487395,39.002521 C53.6238655,38.8270588 53.7680672,38.4902521 53.822521,38.3606723 C53.8356303,38.329916 53.8356303,38.2951261 53.822521,38.2648739 C53.8094118,38.2341176 53.7842017,38.209916 53.7529412,38.1978151 C53.7110924,38.1821849 53.5880672,38.1186555 53.527563,38.0878992 C53.4957983,38.0712605 53.4746218,38.0621849 53.472605,38.0616807 C53.4110924,38.0430252 53.345042,38.0742857 53.3213445,38.1342857 C53.3001681,38.1882353 53.1282353,38.5421849 53.0072269,38.7776471 C52.8816807,38.7247059 52.6744538,38.637479 52.4369748,38.5371429 C51.8223529,38.2779832 51.0579832,37.9547899 50.8996639,37.8932773 C50.8406723,37.8705882 50.772605,37.8963025 50.7443697,37.9537815 L50.6954622,38.0536134 C50.6223529,38.2023529 50.5068908,38.4393277 50.4418487,38.5784874 C50.4005042,38.6642017 50.4005042,38.6642017 51.4618487,40.4989916 C51.6862185,40.8872269 51.8833613,41.2285714 51.9710924,41.3858824 C51.9877311,41.4156303 52.0159664,41.4373109 52.0487395,41.4453782 L52.3310924,41.5164706 C52.3406723,41.5189916 52.3507563,41.52 52.3603361,41.52 C52.4082353,41.52 52.4531092,41.4917647 52.4727731,41.4463866 C52.6431933,41.0561345 53.1191597,39.9847059 53.2880672,39.6171429 C53.5406723,39.7144538 53.9394958,39.8677311 54.1129412,39.9236975 C54.172437,39.9438655 54.2455462,39.8954622 54.2717647,39.8389916 C54.3110924,39.7547899 54.3766387,39.6136134 54.407395,39.5011765 C54.4240336,39.4401681 54.3922689,39.3766387 54.3337815,39.3539496 Z" id="Fill-18" fill="#FFFFFF"></path>
                        <path d="M51.1442017,44.4468908 C51.0443697,44.7080672 50.8557983,44.9097479 50.6268908,44.9994958 C49.7515966,45.3438655 48.6443697,44.4559664 48.3781513,43.8443697 C48.2783193,43.6134454 48.2863866,43.2423529 48.3968067,42.9983193 C48.5319328,42.6968067 48.7744538,42.4961345 49.0784874,42.4346218 C49.1611765,42.4184874 49.2594958,42.4023529 49.3608403,42.4008403 C49.3653782,42.3988235 49.3704202,42.4008403 49.3759664,42.4008403 C49.9820168,42.4008403 50.7973109,42.9292437 51.0942857,43.5176471 C51.2410084,43.807563 51.2586555,44.1458824 51.1442017,44.4468908 Z M49.3552941,41.7695798 C49.1057143,41.7947899 48.9151261,41.8285714 48.7341176,41.9198319 C48.3191597,42.1270588 47.9763025,42.54 47.7922689,43.0532773 C47.6616807,43.4178151 47.7151261,43.9321008 47.8416807,44.2179832 C48.1487395,44.9223529 49.030084,45.7265546 50.0072269,45.7265546 C50.1998319,45.7265546 50.3969748,45.6947899 50.5931092,45.6257143 C51.0811765,45.4517647 51.5082353,45.0342857 51.7078992,44.5361345 C51.837479,44.2129412 51.9312605,43.7087395 51.6443697,43.1394958 C51.2742857,42.4058824 50.2951261,41.6747899 49.3552941,41.7695798 Z" id="Fill-19" fill="#FFFFFF"></path>
                        <path d="M11.7554622,44.6289076 C11.5230252,45.2072269 10.9542857,45.6231933 10.3058824,45.6892437 C9.85865546,45.7366387 9.34588235,45.4658824 8.99747899,45.0030252 C8.64605042,44.5361345 8.54369748,43.9905882 8.72369748,43.5443697 C8.91176471,43.0810084 9.2692437,42.732605 9.74420168,42.542521 C9.93277311,42.4910924 10.1107563,42.472437 10.2655462,42.472437 C10.4763025,42.472437 10.6436975,42.5072269 10.734958,42.5394958 C11.0576471,42.6564706 11.4852101,43.0018487 11.7131092,43.510084 C11.8310924,43.7742857 11.9344538,44.1831933 11.7554622,44.6289076 Z M12.297479,45.0554622 C12.5652101,44.4368067 12.5127731,43.7571429 12.1497479,43.1415126 C11.7423529,42.4532773 11.2235294,42.0267227 10.562521,41.8371429 C10.1047059,41.7070588 9.44369748,41.8542857 9.23243697,41.9667227 C8.67932773,42.2591597 8.30369748,42.6998319 8.11613445,43.2761345 C7.71478992,44.512437 8.77109244,45.8505882 9.67411765,46.2287395 C9.84605042,46.3008403 10.1107563,46.3653782 10.3951261,46.3653782 C10.5141176,46.3653782 10.6366387,46.3542857 10.7576471,46.327563 C11.4327731,46.1763025 12.0226891,45.6892437 12.297479,45.0554622 Z" id="Fill-20" fill="#FFFFFF"></path>
                        <path d="M16.6159664,47.9364706 C16.6371429,47.9102521 16.6472269,47.8764706 16.6426891,47.8426891 C16.6386555,47.8089076 16.6205042,47.7786555 16.5932773,47.7584874 C16.565042,47.7383193 16.4228571,47.6132773 16.3310924,47.5310924 C16.3068908,47.5094118 16.2741176,47.4978151 16.2418487,47.4998319 C16.2090756,47.5018487 16.1783193,47.5169748 16.1566387,47.5416807 C16.1566387,47.5416807 15.067563,48.7830252 14.8492437,49.027563 L14.812437,49.0694118 C14.4882353,49.4440336 14.1206723,49.8680672 13.4470588,49.6709244 C13.3184874,49.6321008 13.1969748,49.5584874 13.0991597,49.4994958 C12.9544538,49.4117647 12.8062185,49.2947899 12.6922689,49.1783193 C12.5405042,49.0240336 12.4205042,48.8233613 12.3544538,48.6136134 C12.2994958,48.4361345 12.3363025,48.1497479 12.4043697,48.0030252 C12.5183193,47.754958 12.6973109,47.5305882 12.829916,47.3828571 C12.9776471,47.207395 13.4263866,46.7047059 13.7541176,46.3371429 C13.9608403,46.1057143 14.1247059,45.9216807 14.1504202,45.8909244 C14.1917647,45.8410084 14.1847059,45.7648739 14.1373109,45.7205042 C14.0682353,45.6554622 13.932605,45.5289076 13.8564706,45.4678992 C13.8085714,45.430084 13.7394958,45.432605 13.6951261,45.474958 C13.492437,45.6665546 13.3023529,45.8884034 13.1183193,46.1031933 C12.9942857,46.2478992 12.8707563,46.3921008 12.7431933,46.5267227 C12.6847059,46.5897479 12.6221849,46.6532773 12.5591597,46.7178151 C12.2515966,47.0319328 11.9031933,47.3878992 11.7610084,47.8618487 C11.4983193,48.7366387 12.2652101,49.5640336 12.7215126,49.8882353 C12.8878992,50.0011765 13.0194958,50.0904202 13.2297479,50.1872269 C13.4430252,50.2719328 13.6406723,50.3082353 13.8236975,50.3082353 C14.5492437,50.3082353 15.054958,49.7359664 15.4452101,49.2942857 L15.490084,49.2433613 C15.5329412,49.1909244 15.8228571,48.8556303 16.0976471,48.537479 C16.3462185,48.2505882 16.5821849,47.9773109 16.6159664,47.9364706" id="Fill-21" fill="#FFFFFF"></path>
                        <path d="M45.842521,46.2660504 C45.9216807,46.2342857 46.0094118,46.2121008 46.1036975,46.2 C46.3154622,46.1768067 46.5045378,46.2408403 46.6119328,46.3744538 C46.7163025,46.5040336 46.7334454,46.6835294 46.6613445,46.8927731 C46.5665546,47.1721008 46.3240336,47.4095798 45.9963025,47.5447059 C45.8878992,47.5890756 45.6171429,47.6838655 45.4497479,47.5956303 C45.3438655,47.5396639 45.2561345,47.4231933 45.2137815,47.2835294 C45.1648739,47.1206723 45.1815126,46.9517647 45.2601681,46.8080672 C45.3978151,46.5589916 45.6105882,46.3613445 45.842521,46.2660504 Z M46.4011765,48.172437 C46.5690756,47.8391597 46.8317647,47.5835294 47.1030252,47.4892437 C47.2094118,47.4529412 47.3223529,47.4171429 47.4337815,47.4136134 C47.4342857,47.4136134 47.4342857,47.4136134 47.4342857,47.4136134 C47.449916,47.4131092 47.4655462,47.412605 47.4806723,47.412605 C47.710084,47.412605 47.8684034,47.4776471 47.9642017,47.6107563 C48.2001681,47.9379832 48.065042,48.3428571 47.8603361,48.6131092 C47.6107563,48.9418487 47.1383193,49.2216807 46.6921008,49.0578151 C46.5529412,49.0063866 46.4369748,48.8853782 46.3744538,48.7260504 C46.3038655,48.5470588 46.3139496,48.3453782 46.4011765,48.172437 Z M48.3141176,47.0031933 C48.1094118,46.8715966 47.7468908,46.7793277 47.4,46.8690756 L47.3072269,46.8927731 C47.2729412,46.9018487 47.2386555,46.9104202 47.2033613,46.9194958 C47.2295798,46.8206723 47.2593277,46.7057143 47.2754622,46.6270588 C47.3334454,46.3497479 47.2613445,46.0890756 47.0722689,45.892437 C46.8615126,45.6736134 46.5257143,45.5596639 46.2347899,45.6085714 C46.0038655,45.6468908 45.8284034,45.7003361 45.6831933,45.7769748 C45.3322689,45.9630252 44.7292437,46.4833613 44.6047059,47.0868908 C44.5426891,47.387395 44.6082353,47.6611765 44.8003361,47.9001681 C44.9394958,48.072605 45.2253782,48.2213445 45.5490756,48.1643697 C45.6181513,48.1527731 45.7447059,48.1356303 45.8642017,48.1215126 C45.7643697,48.4184874 45.6786555,48.7366387 45.7421849,48.9589916 C45.834958,49.2842017 46.0396639,49.5110924 46.3346218,49.6154622 C46.4626891,49.6608403 46.5998319,49.6805042 46.7394958,49.6805042 C47.1398319,49.6805042 47.5603361,49.5166387 47.8406723,49.32 C48.3060504,48.9942857 48.907563,48.237479 48.657479,47.4902521 C48.5828571,47.2643697 48.4709244,47.1055462 48.3141176,47.0031933 Z" id="Fill-22" fill="#FFFFFF"></path>
                        <path d="M42.6978151,48.4734454 C42.657479,48.4205042 42.5828571,48.409916 42.5284034,48.4487395 L42.4351261,48.5157983 C42.3932773,48.5455462 42.3564706,48.5717647 42.297479,48.6151261 C42.2642017,48.6398319 42.2455462,48.6796639 42.2480672,48.7210084 C42.2505882,48.774958 42.2596639,48.8284034 42.2687395,48.8813445 C42.2853782,48.9791597 42.2994958,49.0633613 42.2667227,49.1445378 C42.2460504,49.1939496 42.1910924,49.2448739 42.1376471,49.2937815 C42.0297479,49.392605 41.8497479,49.5579832 42.0005042,49.7984874 C42.0186555,49.8272269 42.0478992,49.8478992 42.0816807,49.8539496 C42.0963025,49.8564706 42.112437,49.8584874 42.1285714,49.8605042 L42.1583193,49.8640336 C42.187563,49.8685714 42.2183193,49.8630252 42.2440336,49.8468908 C42.362521,49.7722689 42.4754622,49.6986555 42.6035294,49.614958 L42.6816807,49.5640336 C43.0356303,50.0334454 44.4161345,51.8531092 44.4161345,51.8531092 C44.4363025,51.8793277 44.4655462,51.8964706 44.4983193,51.9010084 C44.5038655,51.9015126 44.5089076,51.9020168 44.5139496,51.9020168 C44.5416807,51.9020168 44.5684034,51.8929412 44.590084,51.8752941 L44.890084,51.6403361 C44.9420168,51.5989916 44.9521008,51.5238655 44.9127731,51.4704202 C44.8265546,51.3529412 42.792605,48.5954622 42.6978151,48.4734454" id="Fill-23" fill="#FFFFFF"></path>
                        <path d="M21.2238655,50.6092437 C21.1643697,50.5744538 21.012605,50.4922689 20.9581513,50.4665546 C20.8996639,50.4388235 20.8315966,50.46 20.7993277,50.514958 C20.7378151,50.6198319 20.1942857,51.6020168 19.7147899,52.4687395 L19.2857143,53.2447059 C19.2589916,53.0853782 19.2166387,52.8332773 19.1662185,52.5307563 C18.6005042,49.1334454 18.6005042,49.1334454 18.5319328,49.0931092 C18.4215126,49.0315966 18.057479,48.8485714 17.9329412,48.7936134 C17.8769748,48.7694118 17.8119328,48.7895798 17.7796639,48.8415126 C17.6344538,49.0739496 16.1339496,51.8783193 16.0033613,52.127395 C15.972605,52.1858824 15.9937815,52.2584874 16.0517647,52.2912605 C16.0860504,52.3109244 16.1183193,52.3305882 16.1495798,52.3492437 C16.2121008,52.3870588 16.2710924,52.4228571 16.3366387,52.4541176 C16.3956303,52.4823529 16.4662185,52.4596639 16.497479,52.4026891 L16.9820168,51.527395 C17.3258824,50.9057143 17.7645378,50.1136134 18.0242017,49.6426891 C18.1694118,50.4942857 18.6932773,53.569916 18.7169748,53.710084 C18.7235294,53.7468908 18.7457143,53.7786555 18.7784874,53.7968067 C18.8919328,53.8603361 19.2937815,54.0347899 19.3794958,54.0705882 C19.3946218,54.0771429 19.4107563,54.0801681 19.4263866,54.0801681 C19.4712605,54.0801681 19.5136134,54.0554622 19.5352941,54.0141176 C19.9240336,53.2714286 21.1618487,50.9692437 21.2692437,50.7746218 C21.3015126,50.7166387 21.2813445,50.6430252 21.2238655,50.6092437" id="Fill-24" fill="#FFFFFF"></path>
                        <path d="M25.8756303,53.8164706 C25.8297479,54.1704202 25.6734454,54.4477311 25.4112605,54.6403361 C24.9952941,54.9453782 24.3942857,54.9731092 24.005042,54.9040336 C23.7756303,54.8636975 23.2805042,54.7290756 22.9885714,54.6494118 C23.1085714,54.1215126 23.5114286,52.3598319 23.6289076,51.8863866 C23.9732773,51.9544538 24.2359664,52.0104202 24.4295798,52.0568067 C25.2736134,52.2554622 26.0334454,52.6063866 25.8756303,53.8164706 Z M24.1840336,51.4295798 C24.0166387,51.4013445 23.7347899,51.3423529 23.5109244,51.2959664 C23.1428571,51.2188235 23.1423529,51.2188235 23.102521,51.2334454 C23.0657143,51.2465546 23.0379832,51.2768067 23.0268908,51.3141176 C22.9315966,51.6373109 22.5867227,53.1655462 22.3583193,54.1764706 C22.2736134,54.5505882 22.2095798,54.8344538 22.1889076,54.9196639 C22.1737815,54.9842017 22.2115966,55.0492437 22.2751261,55.0668908 C22.4541176,55.1173109 22.6865546,55.1757983 22.9164706,55.2332773 C23.0934454,55.2781513 23.2684034,55.3220168 23.4161345,55.3613445 C23.702521,55.4369748 24.054958,55.4889076 24.4194958,55.4889076 C24.9035294,55.4889076 25.4092437,55.3971429 25.807563,55.1460504 C26.1867227,54.9070588 26.4221849,54.5571429 26.5089076,54.1048739 C26.6354622,53.4398319 26.5527731,52.9089076 26.2552941,52.4813445 C25.8887395,51.9539496 25.1919328,51.6 24.1840336,51.4295798 Z" id="Fill-25" fill="#FFFFFF"></path>
                        <path d="M35.5568067,54.9544538 C35.2870588,55.0568067 34.4556303,55.1818487 34.1490756,55.2257143 C34.0568067,54.7487395 33.7038655,52.9265546 33.6085714,52.4198319 L33.7068908,52.4011765 C34.0608403,52.3315966 34.6537815,52.2161345 34.9114286,52.1752941 C35.7186555,52.0482353 36.2894118,52.6507563 36.4366387,53.3107563 C36.6857143,54.4310924 35.8260504,54.8521008 35.5568067,54.9544538 Z M35.1761345,51.5677311 C34.8070588,51.6171429 33.4245378,51.8788235 32.9631933,51.9721008 C32.8986555,51.9852101 32.8557983,52.0467227 32.8658824,52.1117647 C32.9021849,52.3376471 33.4568067,55.3618487 33.5369748,55.7798319 C33.5480672,55.8378151 33.5994958,55.8796639 33.657479,55.8796639 C33.6610084,55.8796639 33.6645378,55.8791597 33.667563,55.8791597 C33.9655462,55.854958 34.8514286,55.6870588 35.5492437,55.5408403 C36.7406723,55.2912605 37.3321008,54.0776471 37.1369748,53.1010084 C36.9236975,52.0356303 35.8310924,51.4805042 35.1761345,51.5677311 Z" id="Fill-26" fill="#FFFFFF"></path>
                        <path d="M31.4132773,55.7389916 C31.4132773,55.6729412 31.3608403,55.6184874 31.2947899,55.6164706 C31.022521,55.6068908 30.3988235,55.5917647 29.8411765,55.5781513 C29.4554622,55.5690756 29.1015126,55.5605042 28.9184874,55.554958 C28.930084,55.2020168 28.9477311,54.6468908 28.9568067,54.3347899 C29.2129412,54.3327731 29.7242017,54.3302521 30.1885714,54.3277311 C30.6363025,54.3252101 31.0411765,54.3231933 31.1359664,54.3221849 C31.2030252,54.3211765 31.2569748,54.2667227 31.2569748,54.1991597 C31.2569748,54.1119328 31.2569748,54.0388235 31.2559664,53.9626891 C31.2544538,53.8981513 31.2035294,53.8452101 31.1389916,53.8421849 C31.0063866,53.8356303 29.4307563,53.7665546 28.9573109,53.7468908 C28.9608403,53.6591597 28.9653782,53.5361345 28.9704202,53.4005042 C28.9805042,53.1398319 28.9915966,52.8327731 29.0001681,52.6447059 C29.3203361,52.6401681 29.9183193,52.6391597 30.4104202,52.6381513 C30.8168067,52.6376471 31.1662185,52.6366387 31.2690756,52.6346218 C31.3290756,52.6331092 31.3789916,52.5892437 31.3880672,52.5302521 C31.3966387,52.4737815 31.3936134,52.3946218 31.3910924,52.3315966 L31.3895798,52.2816807 C31.3895798,52.2156303 31.3371429,52.1611765 31.2710924,52.1586555 C31.0956303,52.152605 30.2808403,52.132437 29.5578151,52.1147899 L28.5287395,52.0890756 C28.4601681,52.0905882 28.4062185,52.1384874 28.4026891,52.205042 C28.3961345,52.32 28.2605042,55.7465546 28.2559664,55.9734454 C28.2544538,56.0389916 28.3048739,56.0939496 28.369916,56.0989916 C28.6184874,56.1166387 30.8102521,56.1297479 31.2287395,56.1297479 C31.2610084,56.1297479 31.2826891,56.1297479 31.2922689,56.1297479 C31.3573109,56.1287395 31.4102521,56.0768067 31.4132773,56.0122689 C31.4147899,55.9694118 31.4147899,55.9159664 31.4142857,55.852437 L31.4132773,55.7389916" id="Fill-27" fill="#FFFFFF"></path>
                        <path d="M5.56084034,33.9267227 C5.56084034,34.134958 5.7307563,34.3043697 5.9389916,34.3043697 C6.14773109,34.3043697 6.31714286,34.134958 6.31714286,33.9267227 C6.31714286,33.7179832 6.14773109,33.5485714 5.9389916,33.5485714 C5.7307563,33.5485714 5.56084034,33.7179832 5.56084034,33.9267227" id="Fill-28" fill="#FFFFFF"></path>
                        <path d="M54.3418487,33.2631933 C54.3418487,33.054958 54.172437,32.885042 53.9642017,32.885042 C53.7554622,32.885042 53.5860504,33.054958 53.5860504,33.2631933 C53.5860504,33.4714286 53.7554622,33.6413445 53.9642017,33.6413445 C54.172437,33.6413445 54.3418487,33.4714286 54.3418487,33.2631933" id="Fill-29" fill="#FFFFFF"></path>
                        <path d="M29.7922689,10.0568067 C30.8107563,10.0512605 30.9836975,10.092605 32.0359664,10.1833613 C32.2517647,10.2015126 33.1436975,10.3396639 33.785042,10.4596639 C33.7764706,10.5221849 33.6398319,11.3137815 33.6272269,11.3808403 C33.3791597,11.3334454 33.4391597,11.3208403 33.2218487,11.2941176 C33.0504202,11.2734454 32.6213445,11.2078992 32.4095798,11.2563025 C31.9507563,11.3611765 31.8922689,11.4085714 31.6537815,11.6858824 C31.369916,12.0161345 31.4238655,12.5082353 31.4238655,13.1238655 L31.4238655,21.9040336 C31.4238655,22.1586555 31.4238655,22.510084 31.4238655,22.7304202 C31.4238655,23.0984874 31.4238655,23.4605042 31.4238655,23.8482353 L31.4238655,27.297479 C31.4238655,27.5813445 31.4238655,27.9383193 31.4238655,28.2478992 L31.4238655,32.5260504 C31.4238655,32.7756303 31.4213445,33.0181513 31.4238655,33.2687395 C31.4213445,33.6368067 31.4238655,33.9963025 31.4238655,34.3810084 C31.4238655,34.7168067 31.4238655,35.1504202 31.4238655,35.4458824 C31.4238655,35.7146218 31.4238655,35.9657143 31.4238655,36.2596639 C31.4238655,36.5203361 31.4238655,36.7502521 31.4238655,37.0164706 C31.4238655,37.2952941 31.4238655,37.5196639 31.4238655,37.8332773 C31.4238655,37.8761345 31.4183193,38.0768067 31.4238655,38.1468908 C31.4268908,38.2820168 31.4213445,38.4337815 31.4238655,38.567395 L31.4238655,39.0579832 C31.4213445,39.7159664 31.4238655,40.3527731 31.4238655,41.0258824 L31.4238655,42.8531092 C31.4238655,43.3366387 31.4213445,43.5973109 31.4238655,44.0934454 L31.4238655,46.8917647 C31.4238655,47.0823529 31.4112605,47.5578151 31.5005042,47.8003361 C31.7304202,48.5152941 32.6934454,48.490084 32.7660504,48.4734454 C32.9415126,48.4638655 33.2636975,48.3942857 33.4255462,48.3912605 C33.4613445,48.6141176 33.5188235,49.0351261 33.545042,49.2917647 C33.2359664,49.3487395 31.4238655,49.6623529 29.7922689,49.6467227 C28.4405042,49.6623529 26.4766387,49.4268908 26.1605042,49.3094118 C26.1897479,49.1621849 26.3304202,48.4512605 26.3556303,48.3287395 C26.5563025,48.3690756 26.7231933,48.4220168 26.9057143,48.4386555 C27.4593277,48.487563 28.0194958,48.2183193 28.2564706,47.832605 C28.4415126,47.5285714 28.4405042,47.3405042 28.4405042,46.9305882 L28.4405042,44.3258824 C28.4430252,43.6638655 28.4359664,43.0119328 28.4405042,42.3514286 C28.4430252,41.1751261 28.4460504,40.0003361 28.4485714,38.8255462 C28.4586555,38.6107563 28.4304202,38.3863866 28.4405042,38.1731092 L28.4405042,34.8660504 C28.437479,33.7220168 28.4405042,31.8640336 28.4405042,30.7406723 C28.4405042,30.3731092 28.4405042,30.3685714 28.1364706,30.3685714 L19.4848739,30.3685714 C19.1571429,30.3685714 19.1571429,30.3685714 19.1571429,30.7033613 L19.1571429,42.0292437 C19.1571429,42.302521 19.1571429,42.4684034 19.4515966,42.5994958 C19.7228571,42.6842017 19.9769748,42.5309244 20.0939496,42.4517647 C20.3460504,42.2788235 20.5230252,41.9858824 20.7085714,41.7448739 C21.0277311,41.329916 27.7321008,32.6863866 27.7391597,32.6919328 L27.7391597,34.3240336 C27.5984874,34.5262185 25.3452101,37.4208403 25.1248739,37.7092437 C25.0845378,37.7606723 25.0981513,37.8332773 25.2932773,37.8332773 C25.452605,37.8332773 25.5539496,37.8277311 25.6946218,37.8332773 C26.1448739,37.8398319 26.6036975,37.8277311 27.0534454,37.8332773 C27.2485714,37.8357983 27.5430252,37.8302521 27.7391597,37.8332773 L27.7391597,38.809916 L24.2707563,38.809916 C24.1381513,38.9813445 23.4973109,39.8092437 23.2966387,40.0684034 C22.4213445,41.1917647 21.5460504,42.3247059 20.6763025,43.4480672 C20.4226891,43.7742857 19.8902521,44.5492437 19.9280672,45.0842017 C19.9754622,45.7462185 20.3198319,45.9690756 20.7907563,46.2620168 C20.9510924,46.3482353 21.109916,46.4334454 21.2687395,46.5196639 C21.3831933,46.572605 21.4305882,46.5963025 21.5445378,46.6477311 C21.414958,46.8443697 21.0973109,47.397479 20.9788235,47.5815126 C19.2842017,46.8247059 16.9457143,45.0005042 15.9897479,44.0415126 C13.8963025,41.9415126 13.2398319,40.7122689 13.0991597,40.4964706 C13.142521,40.4601681 13.9603361,39.8717647 14.052605,39.8077311 C14.222521,40.0295798 14.3616807,40.3205042 14.585042,40.5045378 C15.0322689,40.8766387 15.790084,40.614958 16.0260504,40.1843697 C16.1596639,39.9388235 16.1218487,39.7477311 16.1218487,39.5042017 C16.1218487,38.6052101 16.1147899,36.9816807 16.1218487,36.0756303 L16.1218487,27.0368067 C16.1218487,26.9848739 16.127395,26.4095798 16.1218487,26.3344538 C16.1248739,25.8993277 16.1193277,25.5539496 16.1218487,25.1188235 C16.1248739,24.1310924 16.1193277,23.4968067 16.1218487,22.5085714 C16.1193277,21.7981513 16.1248739,21.1094118 16.1218487,20.3989916 L16.1218487,19.2710924 C16.1218487,18.845042 15.3231933,18.5268908 14.8230252,18.8364706 C14.6808403,18.9242017 14.5527731,19.1697479 14.4746218,19.3230252 L14.4373109,19.3230252 C14.2003361,19.1178151 13.7052101,18.8284034 13.4808403,18.6332773 C13.4838655,18.6247059 13.5534454,18.532437 13.5564706,18.5243697 C13.6608403,18.3766387 13.8489076,18.1245378 13.9366387,17.9989916 C14.2976471,17.5472269 14.7378151,17.04 15.0988235,16.5872269 C16.2378151,15.3020168 17.5895798,14.1484034 19.0694118,13.2090756 C19.4042017,12.9988235 19.7647059,12.7855462 20.1146218,12.5793277 C20.2416807,12.5052101 20.4146218,12.4159664 20.5482353,12.3433613 C20.6067227,12.4563025 21.0191597,13.1823529 21.0484034,13.2912605 C20.989916,13.3220168 20.8588235,13.3764706 20.4297479,13.632605 C20.3727731,13.6759664 20.1146218,13.8095798 19.9084034,13.967395 C19.7606723,14.0813445 19.2519328,14.4161345 19.1571429,14.7882353 C19.1531092,14.9510924 19.1571429,15.4542857 19.1571429,15.7078992 C19.1505882,16.3542857 19.1626891,16.5020168 19.1571429,17.147395 C19.1626891,17.3062185 19.1505882,17.9682353 19.1571429,18.1285714 L19.1571429,25.5705882 C19.1531092,26.5462185 19.1601681,27.5147899 19.1571429,28.489916 L19.1571429,29.032437 C19.1571429,29.3989916 19.1571429,29.3989916 19.5741176,29.3989916 L21.3771429,29.3989916 C23.6768067,29.3989916 25.8383193,29.3989916 28.1435294,29.3989916 C28.4405042,29.3989916 28.4405042,29.3989916 28.4405042,29.0072269 L28.4405042,24.5979832 C28.437479,21.5808403 28.4611765,18.5677311 28.4586555,15.550084 C28.4611765,14.7418487 28.4642017,13.9336134 28.4667227,13.1253782 C28.4515966,12.5889076 28.5115966,12.1245378 28.2186555,11.7121008 C28.085042,11.522521 27.7895798,11.2563025 27.5510924,11.2230252 C27.3337815,11.1922689 27.1860504,11.232605 26.9435294,11.2563025 C26.8336134,11.2608403 26.3652101,11.3470588 26.3495798,11.3389916 C26.3263866,11.1867227 26.2396639,10.4344538 26.2356303,10.3759664 C26.3959664,10.3255462 27.5818487,10.1818487 27.7391597,10.1626891 C28.3315966,10.0885714 29.2053782,10.0608403 29.7922689,10.0568067" id="Fill-30" fill="#046A38"></path>
                        <path d="M38.9984874,12.3267227 C39.1154622,12.3852101 39.3302521,12.5011765 39.4613445,12.5747899 C39.8778151,12.8132773 40.2695798,13.0472269 40.6598319,13.3053782 C42.2440336,14.3490756 43.5529412,15.5712605 44.8447059,16.9971429 C45.2152941,17.4065546 45.5052101,17.8235294 45.842521,18.2636975 C45.9443697,18.3973109 46.0921008,18.6176471 46.252437,18.8460504 C46.0194958,19.0119328 45.7966387,19.1848739 45.5722689,19.332605 C45.432605,19.1848739 45.3630252,19.1026891 45.2964706,19.0109244 C45.0494118,18.6680672 44.8976471,18.2984874 44.2593277,18.36 C43.8191597,18.4391597 43.7087395,18.5757983 43.6447059,18.6801681 C43.4944538,18.9216807 43.5136134,19.4914286 43.5136134,19.9401681 C43.5136134,21.1260504 43.5191597,22.3346218 43.5136134,23.5290756 C43.5070588,25.0618487 43.5191597,26.585042 43.5136134,28.1183193 L43.5136134,36.4336134 C43.5136134,37.2085714 43.5191597,38.5895798 43.5151261,39.66 C43.5136134,40.0921008 43.4843697,40.9295798 43.5610084,41.1665546 C43.5988235,41.282521 43.669916,41.3702521 43.7672269,41.4413445 C44.3042017,41.8315966 45.0398319,41.052605 45.1013445,40.9880672 C45.1512605,40.9351261 45.3045378,40.787395 45.3615126,40.7344538 C45.4078992,40.7737815 45.9302521,41.1569748 46.0043697,41.2139496 C45.8677311,41.405042 45.7184874,41.5961345 45.6307563,41.7267227 C45.2016807,42.3680672 43.7672269,43.867563 43.1611765,44.4514286 C42.4381513,45.1467227 40.797479,46.3860504 39.6937815,46.9961345 C39.5586555,47.0712605 38.9314286,47.4156303 38.7615126,47.5033613 C38.7171429,47.4282353 38.3642017,46.7858824 38.3642017,46.7858824 C38.3642017,46.7858824 38.7408403,46.5670588 39.1043697,46.332605 C39.1835294,46.2897479 39.5878992,46.0164706 39.7063866,45.9216807 C40.032605,45.6821849 40.4072269,45.1870588 40.4672269,44.7594958 C40.4909244,44.5865546 40.5302521,44.277479 40.5302521,43.9648739 C40.5302521,43.5690756 40.5287395,43.1667227 40.5302521,42.712437 C40.5357983,42.5601681 40.5302521,41.7519328 40.5302521,41.5260504 C40.5357983,40.9270588 40.5231933,40.3376471 40.5302521,39.7381513 C40.5302521,39.5319328 40.5383193,39.1794958 40.5302521,38.9440336 C40.5247059,38.809916 40.5302521,38.809916 40.3946218,38.809916 C40.142521,38.809916 38.8547899,38.8144538 38.3435294,38.809916 L32.0359664,38.809916 L32.0359664,37.8332773 L40.3794958,37.8332773 C40.5302521,37.8332773 40.5302521,37.8332773 40.5302521,37.6658824 L40.5302521,19.2655462 C40.5302521,18.9952941 40.5413445,17.8401681 40.5302521,17.8401681 C40.2594958,18.1870588 39.1976471,19.5569748 38.5442017,20.4 C37.5352941,21.7018487 34.44,25.6946218 34.2781513,25.9023529 C34.1445378,26.0763025 32.7660504,27.8465546 32.0359664,28.7939496 C32.0359664,28.6154622 32.0329412,27.2289076 32.0359664,27.1497479 C32.22,26.9248739 35.4988235,22.690084 35.8406723,22.2423529 C36.6267227,21.2112605 37.7566387,19.7717647 38.4171429,18.9171429 C38.8436975,18.3695798 39.3847059,17.6712605 39.8304202,17.0959664 C40.0951261,16.7531092 40.2403361,16.6598319 40.4213445,16.247395 C40.5453782,15.9685714 40.5605042,15.3872269 40.4672269,15.0721008 C40.2877311,14.4660504 40.1984874,14.2946218 39.7260504,13.8862185 C39.6494118,13.812605 39.4457143,13.6689076 39.3302521,13.5993277 C39.1462185,13.497479 38.7448739,13.2408403 38.5915966,13.1213445 C38.6556303,13.0194958 38.9480672,12.42 38.9984874,12.3267227" id="Fill-31" fill="#046A38"></path>
                        <path d="M80.3692437,29.7947899 L80.3692437,42.592437 C80.3354622,43.9532773 80.5472269,44.809916 81.0040336,45.1628571 C81.5087395,45.5319328 82.7944538,45.7754622 84.8616807,45.8929412 L84.8616807,47.3490756 L70.9633613,47.3490756 L70.9633613,45.8929412 C73.0905882,45.7754622 74.3979832,45.5319328 74.885042,45.1628571 C75.2919328,44.8104202 75.4784874,43.9537815 75.4452101,42.5934454 L75.4452101,16.4727731 C75.4784874,15.0620168 75.2919328,14.1892437 74.885042,13.8529412 C74.3979832,13.5005042 73.0905882,13.2741176 70.9633613,13.1727731 L70.9633613,11.7166387 L84.8616807,11.7166387 L84.8616807,13.1727731 C82.7944538,13.2741176 81.5087395,13.5005042 81.0040336,13.8534454 C80.5472269,14.1892437 80.3354622,15.0630252 80.3692437,16.4737815 L80.3692437,27.8379832 L97.8509244,27.8379832 L97.8509244,16.4737815 C97.9008403,15.0630252 97.7218487,14.1892437 97.3134454,13.8534454 C96.8092437,13.5005042 95.4902521,13.2741176 93.3579832,13.1727731 L93.3579832,11.7166387 L107.28958,11.7166387 L107.28958,13.1727731 C105.223361,13.2741176 103.938151,13.5005042 103.433445,13.8529412 C102.960504,14.1892437 102.740672,15.0620168 102.774454,16.4727731 L102.774454,42.5934454 C102.740672,43.9537815 102.960504,44.8104202 103.433445,45.1628571 C103.938151,45.5319328 105.223361,45.7754622 107.28958,45.8929412 L107.28958,47.3490756 L93.3579832,47.3490756 L93.3579832,45.8929412 C95.4902521,45.7754622 96.8092437,45.5319328 97.3134454,45.1628571 C97.7218487,44.809916 97.9008403,43.9532773 97.8509244,42.592437 L97.8509244,29.7947899 L80.3692437,29.7947899" id="Fill-32" fill="#FFFFFF"></path>
                        <path d="M125.031429,31.8615126 C125.730252,31.8615126 126.201681,31.6855462 126.445714,31.3331092 C126.64084,31.0648739 126.738655,30.6872269 126.738655,30.2011765 C126.738655,29.647563 126.705882,28.9764706 126.641345,28.1878992 C126.510756,27.4331092 126.27479,26.6783193 125.93395,25.9235294 C125.608739,25.1687395 125.096471,24.5314286 124.397143,24.0115966 C123.665042,23.5416807 122.714118,23.3067227 121.543361,23.3067227 C120.242521,23.3067227 119.226555,23.6344538 118.494958,24.2878992 C117.698319,24.9761345 117.080168,25.7979832 116.641008,26.7539496 C115.908403,28.8504202 115.558487,30.5531092 115.592269,31.8615126 L125.031429,31.8615126 Z M115.543866,33.8183193 C115.409244,36.6357983 115.864538,39.234958 116.907731,41.6168067 C117.427563,42.7068908 118.190924,43.5957983 119.197815,44.2830252 C120.123529,45.0045378 121.349748,45.365042 122.876471,45.365042 C124.841849,45.365042 126.376134,44.82 127.48084,43.7294118 C128.569412,42.6902521 129.446218,41.4156303 130.112269,39.9060504 L131.622353,40.7329412 C130.989076,42.7885714 129.90958,44.4852101 128.38437,45.8218487 C126.809748,47.1423529 124.643193,47.8608403 121.884202,47.9778151 C114.072605,47.7262185 110.234118,43.3759664 110.368235,34.9270588 C110.368235,30.9877311 111.317647,27.7603361 113.216975,25.2453782 C115.115294,22.7813445 117.988235,21.532437 121.835294,21.4986555 C124.139496,21.4986555 125.973782,21.8763025 127.337143,22.6305882 C128.700504,23.3848739 129.714454,24.3494118 130.38,25.5226891 C131.077815,26.6127731 131.507899,27.7447059 131.670252,28.9184874 C131.832605,30.0756303 131.913782,31.0568067 131.913782,31.8615126 C131.913782,32.6576471 131.727731,33.1744538 131.355126,33.4114286 C130.966387,33.6826891 130.487899,33.8183193 129.921681,33.8183193 L115.543866,33.8183193 Z" id="Fill-33" fill="#FFFFFF"></path>
                        <path d="M142.382017,38.9430252 C142.348235,40.1853782 142.462185,41.2678992 142.723361,42.1910924 C143.699496,44.8436975 145.529748,46.1697479 148.214118,46.1697479 C153.046387,46.1364706 155.445882,42.2329412 155.412605,34.4606723 C155.412605,32.2280672 155.184706,30.4235294 154.729412,29.0470588 C154.257479,27.670084 153.672101,26.6379832 152.972269,25.9497479 C152.30521,25.2610084 151.605378,24.7996639 150.873782,24.5647059 C150.17395,24.3635294 149.539664,24.2626891 148.97042,24.2626891 C146.139832,24.2626891 144.105882,25.4642017 142.870084,27.8672269 C142.511092,28.622521 142.348235,29.6047059 142.382017,30.8122689 L142.382017,38.9430252 Z M137.70958,47.5502521 L137.70958,14.2815126 C137.70958,13.3260504 137.611261,12.6973109 137.41563,12.3957983 C137.186723,12.1109244 136.754118,11.9515966 136.117815,11.9178151 L134.207395,11.7166387 L134.207395,10.4344538 L142.018992,9.12655462 L142.382017,9.45327731 L142.382017,25.1188235 C142.885714,24.8193277 143.429748,24.4613445 144.015126,24.0453782 C144.616134,23.6460504 145.26605,23.2547899 145.96437,22.8721008 C147.394286,21.9897479 149.059664,21.5319328 150.961008,21.4986555 C153.186555,21.532437 154.965882,22.0270588 156.298487,22.982521 C157.630588,23.9546218 158.597647,25.1616807 159.198655,26.6036975 C159.831933,28.0452101 160.230252,29.4534454 160.393109,30.8278992 C160.522689,32.2028571 160.587731,33.3176471 160.587731,34.1722689 C160.587731,36.7714286 160.271092,38.950084 159.637815,40.7107563 C158.972269,42.487563 158.062689,43.9129412 156.910084,44.9853782 C154.506555,47.0142857 151.591765,48.0110924 148.165714,47.9778151 C146.347059,47.9440336 144.853109,47.7181513 143.683866,47.2996639 C142.482353,46.9144538 141.450756,46.4707563 140.590084,45.9680672 L138.605546,47.9778151 L137.70958,47.5502521 Z" id="Fill-34" fill="#FFFFFF"></path>
                        <path d="M172.306387,25.6018487 C175.264538,22.7994958 177.458824,21.4321008 178.889748,21.4986555 C179.848235,21.5319328 180.547059,21.7905882 180.986218,22.2741176 C181.344202,22.8080672 181.522689,23.3833613 181.522689,24.0005042 C181.522689,24.7845378 181.311429,25.4515966 180.888908,26.0016807 C180.417479,26.5855462 179.864874,26.877479 179.231092,26.877479 C178.970924,26.877479 178.637647,26.7957983 178.231261,26.6309244 C176.865378,25.8902521 175.833277,25.5196639 175.134454,25.5196639 C174.532941,25.5196639 173.939496,25.8978151 173.354622,26.6531092 C173.045546,27.0559664 172.810084,27.5848739 172.647731,28.2393277 C172.419832,28.9280672 172.306387,29.7927731 172.306387,30.8334454 L172.306387,42.8964706 C172.272605,44.1388235 172.516639,44.9112605 173.038487,45.2127731 C173.574958,45.5490756 174.908571,45.7754622 177.039328,45.8929412 L177.039328,47.3490756 L163.910924,47.3490756 L163.910924,45.8929412 C165.597983,45.7754622 166.660336,45.5490756 167.098487,45.2127731 C167.488739,44.9112605 167.667227,44.1388235 167.63395,42.8964706 L167.63395,26.6531092 C167.63395,25.7127731 167.536134,25.1082353 167.342017,24.8394958 C167.097983,24.5707563 166.668403,24.4033613 166.052269,24.3357983 L164.154454,24.0589916 L164.154454,22.7742857 L171.701345,21.4986555 L172.306387,25.6018487" id="Fill-35" fill="#FFFFFF"></path>
                        <path d="M189.305042,34.7258824 C189.305042,38.2971429 189.873782,41.0808403 191.011765,43.0759664 C192.116975,45.1386555 193.799496,46.1697479 196.059328,46.1697479 C198.383697,46.1697479 200.11563,45.1386555 201.253109,43.0759664 C202.309916,41.0808403 202.838319,38.2971429 202.838319,34.7258824 C202.871597,27.247563 200.612269,23.4413445 196.059328,23.3067227 C193.799496,23.3405042 192.116975,24.3463866 191.011765,26.3253782 C189.873782,28.3205042 189.305042,31.1208403 189.305042,34.7258824 Z M196.059328,21.4986555 C204.062521,21.6332773 208.047227,26.0420168 208.01395,34.7258824 C208.047227,43.4097479 204.062521,47.8270588 196.059328,47.9778151 C188.10605,47.8270588 184.129412,43.4097479 184.129412,34.7258824 C184.129412,26.0420168 188.10605,21.6332773 196.059328,21.4986555 Z" id="Fill-36" fill="#FFFFFF"></path>
                        <path d="M236.108067,42.8929412 C236.074286,44.1373109 236.260336,44.9097479 236.666723,45.2127731 C237.086723,45.5490756 238.147059,45.7754622 239.846218,45.8929412 L239.846218,47.3490756 L227.67479,47.3490756 L227.67479,45.8929412 C229.416807,45.7754622 230.499328,45.5490756 230.922857,45.2127731 C231.297983,44.9097479 231.468908,44.1373109 231.43563,42.8929412 L231.43563,30.7164706 C231.402857,26.3803361 229.653277,24.2289076 226.185378,24.2626891 C224.882521,24.2964706 223.710252,24.657479 222.668571,25.3467227 C221.610252,26.0354622 220.795966,26.9097479 220.226218,27.9685714 C219.867227,28.6915966 219.703866,29.6405042 219.738151,30.8168067 L219.738151,42.8929412 C219.703866,44.1373109 219.883361,44.9097479 220.275126,45.2127731 C220.71479,45.5490756 221.781176,45.7754622 223.474286,45.8929412 L223.474286,47.3490756 L211.342689,47.3490756 L211.342689,45.8929412 C213.062017,45.7754622 214.140504,45.5490756 214.578655,45.2127731 C214.936639,44.9097479 215.098992,44.1373109 215.06521,42.8929412 L215.06521,26.6319328 C215.06521,25.6910924 214.967899,25.0860504 214.773277,24.8168067 C214.529748,24.5480672 214.100168,24.3801681 213.484034,24.312605 L211.586218,24.0388235 L211.586218,22.7687395 L218.985882,21.4986555 L219.689748,25.3966387 C221.185714,24.3307563 222.633277,23.4226891 224.031933,22.6729412 C225.398319,21.9236975 226.975462,21.5319328 228.764874,21.4986555 C233.59563,21.5657143 236.043025,24.2939496 236.108067,29.6828571 L236.108067,42.8929412" id="Fill-37" fill="#FFFFFF"></path>
                        <path d="M267.996807,16.8947899 L267.850588,16.8947899 C266.274454,21.4976471 264.657983,26.4110924 263.000672,31.6351261 L272.944034,31.6351261 L267.996807,16.8947899 Z M273.171933,47.3490756 L273.171933,45.8929412 L275.48521,45.6665546 C276.306555,45.5657143 276.815798,45.347395 277.01395,45.0110924 C277.192437,44.6919328 277.143529,44.1710924 276.868235,43.4480672 L273.529412,33.5939496 L262.342689,33.5939496 C261.189076,37.2065546 260.173613,40.5252101 259.296303,43.5494118 C259.100672,44.2048739 259.084538,44.6919328 259.247899,45.0110924 C259.397647,45.347395 259.849412,45.5490756 260.604202,45.6156303 L263.269412,45.8929412 L263.269412,47.3490756 L252.165882,47.3490756 L252.165882,45.8929412 C253.693109,45.8263866 254.74084,45.5490756 255.310084,45.062521 C255.862185,44.5759664 256.357815,43.6618487 256.796471,42.3196639 C258.697815,37.1016807 260.493277,31.9845378 262.183361,26.9677311 L267.423529,11.7166387 L271.128403,11.7166387 L281.70605,42.7976471 C282.111429,44.0732773 282.589412,44.8779832 283.140504,45.2137815 C283.674958,45.5490756 284.638992,45.7759664 286.033109,45.8929412 L286.033109,47.3490756 L273.171933,47.3490756 Z" id="Fill-38" fill="#FFFFFF"></path>
                        <path d="M300.221345,45.3146218 C302.056639,45.3146218 303.526891,44.8527731 304.631597,43.9295798 C305.751933,43.0063866 306.678151,41.6470588 307.409244,39.8505882 L308.871429,40.5776471 C308.107563,43.2705882 306.775462,45.1684034 304.875126,46.2721008 C302.974286,47.4090756 301.106218,47.9778151 299.270924,47.9778151 C291.64084,47.9440336 287.793277,43.6189916 287.728739,35.0021849 C287.694958,31.3815126 288.595462,28.254958 290.429244,25.622521 C292.262017,22.9406723 295.400672,21.5657143 299.844706,21.4986555 C302.569412,21.532437 304.694118,22.0442017 306.218824,23.0339496 C307.743529,24.0741176 308.505882,25.2317647 308.505882,26.5063866 C308.473109,27.4628571 308.124202,28.1253782 307.45916,28.4944538 C306.761345,28.9139496 306.128571,29.1236975 305.56084,29.1236975 C305.138824,29.1236975 304.814118,28.9895798 304.587227,28.7208403 C304.343697,28.502521 304.157143,28.1919328 304.027059,27.7890756 C303.102353,24.8677311 301.520168,23.3742857 299.281513,23.3067227 C297.528908,23.3067227 296.052605,24.1295798 294.851597,25.7747899 C293.585546,27.4870588 292.936639,30.2566387 292.90437,34.0840336 C292.870588,36.6529412 293.357143,39.1290756 294.363025,41.512437 C294.881345,42.6040336 295.643193,43.4934454 296.648067,44.1816807 C297.604034,44.9369748 298.794958,45.3146218 300.221345,45.3146218" id="Fill-39" fill="#FFFFFF"></path>
                        <path d="M327.84958,32.7247059 C327.295462,33.1109244 326.464034,33.5137815 325.355294,33.9332773 C324.246555,34.3361345 323.162017,34.7642017 322.102185,35.217479 C319.426387,36.107395 318.121513,37.685042 318.189076,39.9514286 C318.189076,41.4957983 318.571765,42.7547899 319.338655,43.7284034 C320.104538,44.752437 321.262185,45.2642017 322.811597,45.2642017 C323.333445,45.2642017 323.89563,45.1638655 324.49916,44.9621849 C325.069412,44.8280672 325.607899,44.5507563 326.113109,44.1312605 C326.602185,43.7117647 327.034286,43.1828571 327.409916,42.545042 C327.702857,41.8905882 327.84958,41.042521 327.84958,40.0018487 L327.84958,32.7247059 Z M332.32084,40.8327731 C332.32084,42.3771429 332.516471,43.4768067 332.907227,44.1312605 C333.216807,44.8194958 333.599496,45.1976471 334.055798,45.2642017 C334.935126,45.4321008 335.790252,45.4154622 336.621681,45.2142857 L336.914622,46.4344538 C334.922017,47.4302521 332.961176,47.9445378 331.033109,47.9778151 C330.206723,47.9778151 329.550756,47.6868908 329.064706,47.1055462 C328.562521,46.5569748 328.141513,45.8258824 327.801176,44.9117647 C327.004034,45.4436975 325.970924,46.0502521 324.701849,46.7314286 C323.367731,47.4458824 321.920168,47.8613445 320.358151,47.9778151 C317.998992,47.9440336 316.218151,47.1811765 315.014118,45.6892437 C313.777815,44.2976471 313.159664,42.6211765 313.159664,40.6593277 C313.159664,39.3857143 313.492941,38.1952941 314.16,37.0880672 C314.827059,35.9652101 316.047227,35.1105882 317.820504,34.5231933 C319.918992,33.8359664 321.952437,33.1648739 323.92084,32.5114286 C325.840336,31.8912605 327.149748,31.2539496 327.84958,30.6 L327.84958,28.4369748 C327.817311,26.4257143 327.369076,25.0593277 326.505378,24.3378151 C325.609412,23.6505882 324.639832,23.3067227 323.597143,23.3067227 C322.603361,23.3067227 321.641849,23.6682353 320.713109,24.3897479 C319.767731,25.1455462 319.01042,26.4630252 318.440168,28.3426891 C318.342857,28.7626891 318.197647,29.1065546 318.003529,29.3752941 C317.776134,29.6606723 317.395966,29.8033613 316.862017,29.8033613 C316.359832,29.8033613 315.793109,29.5941176 315.162353,29.1741176 C314.46605,28.7717647 314.102017,28.1677311 314.069748,27.3620168 C314.102017,25.852437 315.099832,24.5016807 317.062689,23.3102521 C318.928235,22.1364706 321.288908,21.532437 324.144706,21.4986555 C326.042521,21.4986555 327.551092,21.7084034 328.670924,22.1278992 C329.741345,22.5307563 330.544538,23.0757983 331.08,23.7635294 C331.598824,24.4512605 331.963866,25.1894118 332.175126,25.977479 C332.272437,26.7660504 332.32084,27.5546218 332.32084,28.3426891 L332.32084,40.8327731 Z" id="Fill-40" fill="#FFFFFF"></path>
                        <path d="M357.261681,29.5265546 C357.294958,28.267563 357.140672,27.2773109 356.798824,26.5552941 C356.344034,25.4470588 355.678487,24.6166387 354.801681,24.062521 C353.908739,23.5588235 352.861513,23.3067227 351.66,23.3067227 C349.143025,23.3405042 347.283529,24.3897479 346.082017,26.4544538 C344.848235,28.5030252 344.231092,31.2307563 344.231092,34.6381513 C344.231092,37.6265546 344.815462,40.1193277 345.984706,42.1169748 C347.121176,44.1478992 348.83395,45.1805042 351.124034,45.2142857 C352.455126,45.2142857 353.616303,44.9208403 354.606555,44.3329412 C355.646218,43.7788235 356.409076,42.8389916 356.896134,41.512437 C357.139664,40.6734454 357.261681,39.7084034 357.261681,38.6168067 L357.261681,29.5265546 Z M357.602521,47.3490756 L357.212773,47.0001681 L357.212773,44.4826891 C354.648908,46.7798319 352.068908,47.9445378 349.472773,47.9778151 C346.162689,47.9440336 343.623529,46.7541176 341.85479,44.4070588 C339.988235,42.1436975 339.055966,39.0927731 339.055966,35.2537815 C339.087731,30.7442017 340.239832,27.3413445 342.511765,25.0442017 C344.60521,22.7142857 347.671765,21.532437 351.711933,21.4986555 C354.016134,21.532437 355.86605,21.9428571 357.261681,22.7294118 L357.261681,14.2810084 C357.261681,13.3255462 357.16437,12.6973109 356.969244,12.3952941 C356.725714,12.1104202 356.287059,11.9515966 355.654286,11.9178151 L353.754454,11.7166387 L353.754454,10.4344538 L361.593277,9.12655462 L361.934118,9.45378151 L361.934118,42.8984874 C361.900336,44.1398319 362.086891,44.9117647 362.493782,45.2137815 C362.915294,45.5490756 363.977647,45.7759664 365.680336,45.8929412 L365.680336,47.3490756 L357.602521,47.3490756 Z" id="Fill-41" fill="#FFFFFF"></path>
                        <path d="M383.04,31.8615126 C383.738824,31.8615126 384.210252,31.6855462 384.454286,31.3331092 C384.649412,31.0648739 384.747227,30.6872269 384.747227,30.2011765 C384.747227,29.647563 384.714454,28.9764706 384.649412,28.1878992 C384.519328,27.4331092 384.283361,26.6783193 383.942521,25.9235294 C383.616807,25.1687395 383.104538,24.5314286 382.405714,24.0115966 C381.673613,23.5416807 380.722689,23.3067227 379.551933,23.3067227 C378.251092,23.3067227 377.235126,23.6344538 376.503529,24.2878992 C375.706387,24.9761345 375.088235,25.7979832 374.64958,26.7539496 C373.916975,28.8504202 373.567059,30.5531092 373.60084,31.8615126 L383.04,31.8615126 Z M373.552437,33.8183193 C373.417815,36.6357983 373.872605,39.234958 374.916303,41.6168067 C375.43563,42.7068908 376.198992,43.5957983 377.206387,44.2830252 C378.132101,45.0045378 379.358319,45.365042 380.885042,45.365042 C382.849916,45.365042 384.384706,44.82 385.489412,43.7294118 C386.577479,42.6902521 387.45479,41.4156303 388.12084,39.9060504 L389.630924,40.7329412 C388.997647,42.7885714 387.918151,44.4852101 386.392941,45.8218487 C384.818319,47.1423529 382.651765,47.8608403 379.892773,47.9778151 C372.081176,47.7262185 368.242185,43.3759664 368.376807,34.9270588 C368.376807,30.9877311 369.326218,27.7603361 371.225546,25.2453782 C373.123866,22.7813445 375.996807,21.532437 379.843361,21.4986555 C382.148067,21.4986555 383.981849,21.8763025 385.34521,22.6305882 C386.709076,23.3848739 387.723025,24.3494118 388.388571,25.5226891 C389.086387,26.6127731 389.516471,27.7447059 389.678824,28.9184874 C389.841176,30.0756303 389.922353,31.0568067 389.922353,31.8615126 C389.922353,32.6576471 389.736303,33.1744538 389.363697,33.4114286 C388.974958,33.6826891 388.496471,33.8183193 387.930252,33.8183193 L373.552437,33.8183193 Z" id="Fill-42" fill="#FFFFFF"></path>
                        <path d="M400.576134,21.4986555 L401.036471,25.3966387 C401.991933,24.647395 403.241345,23.8230252 404.783697,22.9230252 C406.292773,22.0068908 408.044874,21.5319328 410.04,21.4986555 C411.817311,21.4986555 413.259328,21.8405042 414.36605,22.5236975 C415.422353,23.2401681 416.243697,24.2147899 416.831092,25.447563 C417.317143,25.1309244 417.870252,24.7396639 418.49042,24.2727731 C419.111092,23.8230252 419.781681,23.389916 420.502689,22.9734454 C422.011261,22.0235294 423.814286,21.5319328 425.909748,21.4986555 C430.956303,21.5657143 433.513613,24.3015126 433.580672,29.7060504 L433.580672,42.8969748 C433.546891,44.1393277 433.725882,44.9117647 434.117143,45.2132773 C434.555798,45.5490756 435.620672,45.7754622 437.311765,45.8929412 L437.311765,47.3490756 L424.995126,47.3490756 L424.995126,45.8929412 C426.800168,45.7754622 427.932605,45.5490756 428.392941,45.2127731 C428.766555,44.9097479 428.936975,44.1373109 428.903697,42.8929412 L428.903697,30.7164706 C428.835126,26.2633613 427.081008,24.1114286 423.641345,24.2626891 C422.176639,24.2964706 420.933277,24.657479 419.911765,25.3467227 C418.872605,26.0354622 418.123361,26.9097479 417.664034,27.9685714 C417.391765,28.6915966 417.272773,29.6405042 417.306555,30.8168067 L417.306555,42.8929412 C417.272773,44.1373109 417.459832,44.9097479 417.868235,45.2127731 C418.328067,45.5490756 419.443361,45.7754622 421.214622,45.8929412 L421.214622,47.3490756 L408.725546,47.3490756 L408.725546,45.8929412 C410.530588,45.7754622 411.663025,45.5490756 412.122857,45.2127731 C412.496975,44.9097479 412.667395,44.1373109 412.633613,42.8929412 L412.633613,30.7164706 C412.633613,29.8764706 412.599832,29.0611765 412.531765,28.2710924 C412.429412,27.5147899 412.208067,26.8260504 411.867731,26.2038655 C411.509748,25.5988235 410.998992,25.1026891 410.334958,24.7164706 C409.67042,24.4139496 408.767899,24.2626891 407.626891,24.2626891 C406.196471,24.2964706 404.936471,24.657479 403.846387,25.3467227 C402.807731,26.1030252 402.007059,27.0105882 401.445378,28.0694118 C401.139328,28.6915966 401.002689,29.6072269 401.036471,30.8168067 L401.036471,42.8929412 C401.002689,44.1373109 401.190252,44.9097479 401.598655,45.2127731 C402.057983,45.5490756 403.173782,45.7754622 404.945042,45.8929412 L404.945042,47.3490756 L392.636471,47.3490756 L392.636471,45.8929412 C394.355798,45.7754622 395.43479,45.5490756 395.872437,45.2127731 C396.23042,44.9097479 396.392773,44.1373109 396.359496,42.8929412 L396.359496,26.6319328 C396.359496,25.6910924 396.262185,25.0860504 396.068067,24.8168067 C395.825042,24.5480672 395.395966,24.3801681 394.78084,24.312605 L392.819496,24.0388235 L392.819496,22.7687395 L400.576134,21.4986555" id="Fill-43" fill="#FFFFFF"></path>
                        <path d="M449.376807,22.127395 L449.376807,23.5835294 L447.163866,23.7852101 C446.611261,23.8189916 446.303193,23.9788235 446.238655,24.2642017 C446.173613,24.5329412 446.222521,24.9110924 446.38437,25.3981513 C448.348235,30.7260504 450.538487,36.4905882 452.954118,42.6917647 L453.058487,42.6917647 C455.69395,35.4317647 457.587731,29.7347899 458.739328,25.6003361 C459.091261,24.5248739 458.863866,23.9369748 458.058151,23.8356303 L455.456471,23.5835294 L455.456471,22.127395 L465.012101,22.127395 L465.012101,23.5835294 C463.798487,23.6173109 462.966555,23.8018487 462.517815,24.1371429 C462.068571,24.5228571 461.644538,25.2110924 461.245714,26.2008403 C458.884034,31.8710924 455.732773,40.3270588 451.790924,51.5677311 C451.175294,53.4635294 450.560168,54.9564706 449.945042,56.0470588 C449.262857,57.1542857 448.614454,57.9761345 447.999328,58.5131092 C447.384202,59.0667227 446.793277,59.4105882 446.228067,59.5447059 C445.612941,59.7292437 445.047227,59.8215126 444.531933,59.8215126 C443.45042,59.7887395 442.602857,59.4993277 441.987227,58.9537815 C441.305042,58.4082353 440.964706,57.8132773 440.964706,57.1689076 C440.964706,56.3848739 441.22437,55.7011765 441.743697,55.1173109 C442.181849,54.5667227 442.652773,54.2919328 443.155966,54.2919328 C443.723697,54.2919328 444.218824,54.534958 444.64084,55.0210084 C445.078992,55.4737815 445.444034,55.7667227 445.736471,55.9013445 C446.012269,56.0354622 446.263866,56.102521 446.490756,56.102521 C446.783193,56.102521 447.132101,55.9341176 447.537983,55.5983193 C447.943361,55.2786555 448.325042,54.7240336 448.682017,53.9344538 C449.444874,52.2539496 449.842185,50.7917647 449.874958,49.5484034 C449.874958,48.6907563 449.745378,47.8507563 449.486218,47.027395 C447.523866,41.4141176 444.913109,34.4904202 441.65395,26.2557983 C441.264706,25.1631933 440.835126,24.4406723 440.36521,24.0877311 C439.862017,23.7519328 439.035126,23.5835294 437.884034,23.5835294 L437.884034,22.127395 L449.376807,22.127395" id="Fill-44" fill="#FFFFFF"></path>
                    </g>
                </g>
            </g>
        </g>
    </g>
</svg>