<svg width="30" height="38" viewBox="0 0 30 38" fill="none" xmlns="http://www.w3.org/2000/svg">
<path d="M29.6606 4.59875L5.11157 29.1422C5.55751 29.7665 6.04247 30.3853 6.56645 31.004L29.6662 7.91544V4.71581C29.6662 4.67679 29.6606 4.64335 29.6606 4.60433V4.59875Z" fill="white"/>
<path d="M14.7216 38C14.7216 38 14.7662 37.9832 14.8331 37.9498C14.9 37.9777 14.9446 38 14.9446 38C27.7542 29.895 29.6662 19.0085 29.6662 13.8746V10.1621L7.62555 32.1972C9.50965 34.2095 11.8341 36.1716 14.7216 38Z" fill="white"/>
<path d="M14.8331 0C5.86412 0 1.61654 2.16839 0.512832 3.26094C0.150505 3.6177 0 4.1584 0 4.70468V13.8688C0 16.0873 0.356753 19.3761 1.79491 23.0496L23.8969 0.94205C21.6616 0.401347 18.6849 0 14.8331 0Z" fill="white"/>
<path d="M25.6472 1.44373L2.46381 24.6215C2.79826 25.3406 3.17731 26.0708 3.60096 26.8066L27.9716 2.43594C27.3863 2.11264 26.6227 1.76703 25.6416 1.44373H25.6472Z" fill="white"/>
</svg>
