<svg width="134" height="158" viewBox="0 0 134 158" fill="none" xmlns="http://www.w3.org/2000/svg">
<g clip-path="url(#clip0)">
<path d="M14.4931 135.759C14.4931 140.874 17.6828 143.595 21.509 143.595C24.6032 143.595 25.9635 141.574 26.743 140.031C26.8385 139.936 27.093 139.959 27.1646 140.103C26.9975 141.367 26.3691 142.918 26.0351 143.388C25.7566 143.436 25.4703 143.531 25.2157 143.595C24.6987 143.762 23.0839 144.136 21.4374 144.136C19.4408 144.136 17.4044 143.738 15.6863 142.545C13.8329 141.256 12.3772 139.212 12.3772 135.998C12.3772 133.373 13.6181 131.233 15.3363 129.897C17.0226 128.561 19.1862 127.9 21.668 127.9C22.8214 127.9 24.6907 128.091 25.7964 128.37C26.0748 128.417 26.2419 128.465 26.3851 128.441C26.3851 129.102 26.576 130.486 26.7589 131.798C26.6873 131.894 26.4328 131.894 26.3373 131.846C25.9396 130.366 24.9532 128.441 21.3419 128.441C17.6351 128.433 14.4931 130.78 14.4931 135.759Z" fill="white"/>
<path d="M33.21 131.957C33.21 130.621 33.1384 129.515 32.8838 129.141C32.6929 128.863 32.1997 128.744 31.7782 128.672L31.2134 128.576C31.1179 128.409 31.1179 128.274 31.2373 128.203C32.3191 128.25 33.0668 128.274 34.0054 128.274C34.944 128.274 35.7872 128.25 36.8213 128.203C36.9406 128.274 36.9168 128.417 36.8452 128.576L36.3997 128.648C35.8588 128.744 35.5327 128.863 35.294 129.141C35.0395 129.491 34.9918 130.621 34.9918 131.957V134.582C34.9918 135.258 35.0395 135.33 36.1213 135.33H43.0656C44.1235 135.33 44.1712 135.282 44.1712 134.582V131.957C44.1712 130.645 44.0758 129.467 43.8451 129.141C43.6303 128.839 43.1451 128.767 42.7633 128.672L42.294 128.576C42.1985 128.457 42.1985 128.274 42.3417 128.203C43.2803 128.25 44.0758 128.274 44.9906 128.274C46.0724 128.274 46.844 128.25 47.8064 128.203C47.9258 128.274 47.9496 128.433 47.8542 128.576L47.361 128.696C47.011 128.767 46.5178 128.839 46.2792 129.117C46.0246 129.467 45.9531 130.645 45.9531 131.957V140.079C45.9531 141.439 46.0246 142.56 46.2792 142.918C46.5099 143.205 47.003 143.292 47.361 143.364L47.9258 143.459C48.0212 143.579 47.9974 143.762 47.878 143.833C46.9394 143.785 45.9292 143.762 45.0144 143.762C44.0997 143.762 43.1849 143.785 42.3417 143.833C42.2224 143.762 42.1985 143.571 42.294 143.459L42.7872 143.364C43.3042 143.245 43.6542 143.157 43.869 142.847C44.0758 142.497 44.1712 141.439 44.1712 140.079V136.817C44.1712 136.109 44.1235 136.07 43.0656 136.07H36.1213C35.0395 136.07 34.9918 136.117 34.9918 136.817V140.079C34.9918 141.439 35.0634 142.545 35.3179 142.895C35.5486 143.173 35.9781 143.292 36.3997 143.364L37.1554 143.459C37.227 143.579 37.227 143.738 37.1315 143.833C36.0736 143.785 35.0872 143.762 34.0134 143.762C33.0747 143.762 32.4622 143.785 31.4997 143.833C31.3804 143.785 31.3566 143.571 31.452 143.459L31.802 143.388C32.2236 143.316 32.6929 143.173 32.8838 142.895C33.1145 142.545 33.21 141.439 33.21 140.079V131.957Z" fill="white"/>
<path d="M67.7962 135.918C67.7962 140.731 64.2564 144.127 59.6826 144.127C54.5201 144.127 51.4497 140.397 51.4497 136.173C51.4497 131.48 54.9656 127.892 59.7303 127.892C65.028 127.892 67.7962 131.742 67.7962 135.918ZM53.5576 135.354C53.5576 138.941 55.2679 143.587 59.9133 143.587C62.936 143.587 65.6882 141.59 65.6882 136.547C65.6882 132.864 63.978 128.425 59.3803 128.425C56.7713 128.433 53.5576 130.08 53.5576 135.354Z" fill="white"/>
<path d="M75.4006 137.517C74.8358 137.517 74.7881 137.541 74.6528 138.011L73.4119 141.67C73.221 142.234 73.1574 142.513 73.1574 142.823C73.1574 143.086 73.3165 143.221 73.8574 143.316L74.7244 143.459C74.796 143.579 74.796 143.738 74.7006 143.833C74.0642 143.786 73.3403 143.785 72.3779 143.762C71.5347 143.762 70.8745 143.786 70.1745 143.833C70.0551 143.738 70.0551 143.571 70.1267 143.459L71.0176 143.245C71.5824 143.125 71.8369 142.99 72.2585 142.004C72.7279 140.946 73.221 139.705 74.3506 136.794L76.6971 130.573C77.0949 129.515 77.1187 129.117 77.071 128.791C77.9619 128.441 78.129 127.9 78.2005 127.9C78.3676 127.9 78.4551 127.948 78.5028 128.115C78.646 128.513 78.9244 129.499 79.696 131.774L82.7744 140.691C83.4744 142.736 83.7369 143.157 84.6994 143.34L85.4073 143.459C85.5028 143.555 85.4789 143.738 85.3834 143.833C84.6516 143.786 83.88 143.762 82.663 143.762C81.7244 143.762 80.8573 143.809 80.1017 143.833C79.9823 143.738 79.9585 143.571 80.0539 143.459L80.738 143.316C81.2312 143.221 81.5096 143.101 81.5096 142.751C81.5096 142.497 81.3903 142.075 81.2073 141.511L80.0778 138.011C79.9108 137.517 79.8471 137.517 79.3221 137.517H75.4006ZM79.0199 136.786C79.6562 136.786 79.6323 136.762 79.4176 136.149L78.1051 132.228C77.9142 131.639 77.6835 130.844 77.4687 130.446C77.3733 130.677 76.9517 131.567 76.5301 132.769L75.3131 136.173C75.0824 136.762 75.0824 136.786 75.7585 136.786H79.0199Z" fill="white"/>
<path d="M98.914 128.274C99.6697 128.274 100.163 128.25 100.561 128.131C100.752 128.083 100.934 127.9 101.078 127.662C101.173 127.614 101.356 127.638 101.404 127.733C101.149 128.648 100.982 130.549 101.054 131.114C100.982 131.233 100.752 131.257 100.632 131.162C100.465 130.247 100.282 129.682 99.9958 129.443C99.3833 128.926 98.4924 128.815 97.2038 128.815H95.5811C94.8811 128.815 94.8572 128.839 94.8572 129.73V140.055C94.8572 141.415 94.9288 142.56 95.1834 142.918C95.4141 143.205 95.9072 143.316 96.2811 143.364L97.0765 143.459C97.172 143.579 97.172 143.738 97.0527 143.833C96.0425 143.785 95.1754 143.762 93.9822 143.762C92.622 143.762 91.6595 143.785 90.697 143.833C90.5777 143.738 90.5777 143.571 90.6732 143.459L91.7073 143.34C92.0811 143.292 92.5027 143.205 92.7413 142.918C93.0038 142.592 93.0675 141.415 93.0675 140.055V129.73C93.0675 128.839 93.0436 128.815 92.3436 128.815H90.9834C89.5277 128.815 88.5175 128.887 88.0243 129.404C87.4834 129.945 87.2289 130.486 86.9187 131.066C86.7755 131.114 86.5448 131.066 86.4971 130.899C86.8709 129.937 87.2448 128.553 87.388 127.686C87.5073 127.614 87.6187 127.614 87.7141 127.686C87.7618 127.805 87.8573 128.012 88.1118 128.107C88.3664 128.203 89.1936 128.274 89.7982 128.274H98.914Z" fill="white"/>
<path d="M106.471 131.981C106.471 130.43 106.375 129.563 106.145 129.213C105.93 128.934 105.604 128.791 105.063 128.672L104.617 128.576C104.522 128.457 104.546 128.298 104.665 128.203C105.206 128.227 105.651 128.25 106.121 128.25C106.566 128.274 107.012 128.274 107.481 128.274H111.8C113.304 128.274 114.616 128.274 114.966 128.203C115.062 128.6 115.197 130.287 115.316 131.186C115.245 131.281 115.038 131.305 114.895 131.257C114.64 130.199 114.258 129.284 112.97 129.006C112.476 128.887 111.729 128.815 110.671 128.815H109.382C108.587 128.815 108.42 128.911 108.372 129.117C108.324 129.308 108.253 129.706 108.253 130.828V134.558C108.253 135.282 108.276 135.354 108.961 135.354H110.273C111.307 135.354 112.055 135.306 112.429 135.187C112.659 135.115 112.922 134.884 113.089 134.296L113.328 133.405C113.423 133.333 113.678 133.333 113.749 133.429C113.749 133.898 113.678 134.837 113.678 135.704C113.678 136.595 113.749 137.486 113.749 137.979C113.678 138.074 113.423 138.074 113.328 138.003L113.073 137.064C112.93 136.595 112.747 136.34 112.437 136.221C112.039 136.078 111.307 135.99 110.281 135.99H108.968C108.284 135.99 108.261 136.062 108.261 136.786V140.095C108.261 141.2 108.308 142.274 108.658 142.672C108.921 142.95 109.39 143.213 111.426 143.213C114.266 143.26 115.324 142.95 116.334 140.54C116.454 140.468 116.732 140.54 116.756 140.659C116.637 141.407 116.167 143.197 115.77 143.825C114.712 143.801 113.678 143.778 112.675 143.778C111.689 143.754 110.703 143.754 109.716 143.754H107.489C106.32 143.754 105.262 143.778 104.18 143.825C104.061 143.754 104.037 143.563 104.132 143.451L105.071 143.308C105.445 143.26 105.938 143.093 106.129 142.863C106.383 142.537 106.479 141.407 106.479 140.047V131.981H106.471Z" fill="white"/>
<path d="M1.20906 150.913C1.20906 150.133 1.15338 149.568 1.04202 149.393C0.930655 149.218 0.771565 149.091 0.437477 149.067L0.119297 149.043C0.0636158 148.988 0.0636158 148.892 0.135206 148.829C1.1852 148.733 2.11587 148.717 3.21359 148.717C3.97722 148.717 4.82835 148.797 5.41699 149.115C6.07721 149.473 6.55448 150.133 6.55448 151.088C6.55448 152.321 5.55221 153.06 4.86017 153.315C4.80449 153.41 4.84426 153.53 4.91585 153.657C6.01357 155.423 6.73743 156.513 7.70788 157.364C7.97038 157.594 8.29651 157.69 8.74992 157.706C8.78969 157.746 8.78969 157.841 8.74992 157.873C8.61469 157.897 8.40787 157.944 8.18515 157.944C6.92834 157.944 6.26812 157.602 5.29767 156.218C4.93972 155.709 4.36699 154.779 3.9295 154.134C3.72268 153.832 3.56359 153.673 3.01473 153.673C2.27496 153.673 2.2511 153.697 2.2511 154.015V155.606C2.2511 156.401 2.29087 157.085 2.44201 157.292C2.57723 157.467 2.8636 157.523 3.08632 157.563L3.35677 157.618C3.39655 157.682 3.39655 157.793 3.32496 157.833C2.68064 157.809 2.27496 157.793 1.7261 157.793C1.17724 157.793 0.771565 157.809 0.0556614 157.833C-0.015929 157.793 -0.015929 157.682 0.0317979 157.618L0.373841 157.563C0.588612 157.523 0.882928 157.467 1.01815 157.292C1.16929 157.085 1.20906 156.401 1.20906 155.606V150.913ZM2.24315 152.901C2.24315 153.116 2.27496 153.204 2.31474 153.259C2.37042 153.315 2.63292 153.355 3.22155 153.355C3.77836 153.355 4.31927 153.299 4.70108 152.997C5.0829 152.695 5.40903 152.233 5.40903 151.255C5.40903 150.101 4.70904 149.028 3.22155 149.028C2.80791 149.028 2.44201 149.067 2.36246 149.147C2.28292 149.203 2.26701 149.37 2.2511 149.855V152.901H2.24315Z" fill="white"/>
<path d="M20.4669 153.211C20.4669 156.019 18.3987 158 15.734 158C12.7192 158 10.9294 155.821 10.9294 153.363C10.9294 150.626 12.9817 148.534 15.7578 148.534C18.8442 148.526 20.4669 150.777 20.4669 153.211ZM12.1544 152.885C12.1544 154.977 13.1567 157.69 15.8612 157.69C17.6271 157.69 19.226 156.528 19.226 153.585C19.226 151.438 18.2237 148.852 15.543 148.852C14.0317 148.844 12.1544 149.799 12.1544 152.885Z" fill="white"/>
<path d="M28.6202 148.677C28.7714 148.701 28.9225 148.749 29.0896 148.757C29.2089 149.083 29.3361 149.879 29.3361 150.356C29.2964 150.427 29.1611 150.451 29.0896 150.388C28.8589 149.759 28.5009 148.836 27.1566 148.836C25.8044 148.836 25.518 149.894 25.518 150.467C25.518 151.302 26.218 151.891 26.6953 152.193L27.9839 152.989C28.5964 153.371 29.4793 154.166 29.4793 155.478C29.4793 156.958 28.3577 158 26.5919 158C25.5259 158 24.826 157.642 24.5794 157.491C24.3487 157.221 24.1816 156.425 24.1816 155.646C24.2373 155.566 24.3566 155.574 24.4123 155.63C24.6589 156.346 25.3271 157.682 26.8384 157.682C27.9839 157.682 28.5646 156.886 28.5646 155.972C28.5646 155.351 28.4134 154.627 27.4112 154.015L26.21 153.259C25.4146 152.766 24.6907 152.042 24.6907 150.833C24.6907 149.576 25.693 148.518 27.3873 148.518C27.7691 148.526 28.2782 148.598 28.6202 148.677Z" fill="white"/>
<path d="M34.1646 150.913C34.1646 150.006 34.1089 149.505 33.9737 149.298C33.8544 149.131 33.6634 149.051 33.3453 148.988L33.0828 148.932C33.0271 148.86 33.043 148.765 33.1146 148.709C33.4328 148.725 33.6873 148.741 33.9657 148.741C34.2282 148.757 34.4828 148.757 34.7612 148.757H37.2827C38.1577 148.757 38.9214 148.757 39.1282 148.717C39.1839 148.948 39.2634 149.934 39.335 150.459C39.2952 150.515 39.168 150.531 39.0884 150.499C38.9373 149.886 38.7225 149.354 37.9668 149.187C37.6805 149.115 37.243 149.075 36.6225 149.075H35.8668C35.3975 149.075 35.3021 149.131 35.2782 149.25C35.2543 149.362 35.2066 149.592 35.2066 150.252V152.424C35.2066 152.846 35.2225 152.885 35.6203 152.885H36.3839C36.9884 152.885 37.4259 152.861 37.6407 152.79C37.7759 152.75 37.9271 152.615 38.0225 152.273L38.1577 151.756C38.2134 151.716 38.3645 151.716 38.4043 151.772C38.4043 152.042 38.3645 152.591 38.3645 153.1C38.3645 153.617 38.4043 154.142 38.4043 154.429C38.3645 154.484 38.2134 154.484 38.1577 154.444L38.0066 153.896C37.9271 153.625 37.8157 153.474 37.6407 153.402C37.41 153.323 36.9805 153.267 36.3839 153.267H35.6203C35.2225 153.267 35.2066 153.307 35.2066 153.736V155.661C35.2066 156.306 35.2305 156.934 35.4373 157.165C35.5884 157.332 35.8589 157.483 37.0521 157.483C38.7066 157.507 39.327 157.332 39.9157 155.924C39.9873 155.884 40.1464 155.924 40.1623 155.996C40.0907 156.433 39.8202 157.475 39.5895 157.841C38.9691 157.825 38.3725 157.817 37.7839 157.817C37.2111 157.801 36.6305 157.801 36.0577 157.801H34.7612C34.0771 157.801 33.4646 157.817 32.8282 157.841C32.7566 157.801 32.7487 157.69 32.8044 157.626L33.3532 157.547C33.568 157.515 33.8623 157.419 33.9657 157.284C34.1169 157.093 34.1725 156.433 34.1725 155.646V150.913H34.1646Z" fill="white"/>
<path d="M43.2405 157.547C43.4712 157.491 43.7496 157.435 43.8689 157.284C44.0201 157.117 44.0837 156.696 44.1314 156.314C44.203 155.63 44.2667 154.524 44.3383 153.1C44.378 152.169 44.4337 151.008 44.4496 150.197C44.4496 149.743 44.3701 149.441 44.2349 149.29C44.0996 149.139 43.8212 149.059 43.511 148.988L43.2326 148.924C43.1769 148.852 43.1928 148.749 43.2644 148.701C43.4553 148.717 43.8371 148.741 44.3303 148.741C44.6485 148.741 45.1258 148.741 45.428 148.701C45.4996 149.497 45.9212 150.348 46.5257 151.629L47.703 154.134C48.2201 155.232 48.4985 155.749 48.7132 156.202C48.9916 155.749 49.4132 154.89 49.8905 153.927L50.8769 151.939C51.195 151.31 51.9825 149.871 52.2848 148.693C52.6268 148.733 52.8575 148.733 53.12 148.733C53.3825 148.733 53.9791 148.717 54.3371 148.693C54.3927 148.733 54.4086 148.86 54.353 148.916L53.9393 148.996C53.7166 149.035 53.47 149.147 53.3507 149.258C53.1598 149.425 53.12 149.775 53.1041 150.364C53.0882 150.762 53.0643 151.867 53.0802 152.472C53.0962 153.212 53.1359 155.057 53.1916 156.322C53.2155 156.831 53.2473 157.157 53.3666 157.308C53.4621 157.419 53.6689 157.483 53.828 157.515L54.2973 157.594C54.3371 157.674 54.3371 157.761 54.2734 157.809C53.7246 157.785 53.1518 157.769 52.6984 157.769C52.1496 157.769 51.6405 157.785 51.0837 157.809C51.02 157.769 51.0041 157.674 51.0598 157.594L51.4973 157.523C51.8155 157.467 52.0462 157.372 52.0859 157.181C52.1416 156.934 52.1416 156.616 52.1416 156.33L52.1098 151.294C52.1098 151.048 52.1098 150.594 52.0541 150.491C51.8871 150.833 51.4257 151.7 51.1075 152.337L49.9303 154.731C49.3416 155.924 48.6973 157.221 48.4826 157.865C48.411 157.921 48.3314 157.921 48.2757 157.881C48.0053 157.125 47.361 155.789 47.0428 155.105L45.7701 152.297C45.1973 151 44.9905 150.531 44.8792 150.419C44.8394 150.587 44.7678 152.36 44.7598 152.941C44.7201 153.776 44.6883 154.993 44.6883 155.956C44.6883 156.735 44.7201 157.038 44.7837 157.189C44.8633 157.364 45.086 157.475 45.3167 157.515L45.8337 157.594C45.8894 157.658 45.8894 157.769 45.8337 157.809C45.3723 157.785 44.8314 157.769 44.3144 157.769C43.861 157.769 43.4394 157.785 42.9621 157.809C42.8905 157.785 42.8826 157.642 42.9462 157.594L43.2405 157.547Z" fill="white"/>
<path d="M59.4677 154.142C59.1416 154.142 59.1098 154.158 59.0302 154.428L58.3064 156.56C58.195 156.886 58.1552 157.053 58.1552 157.228C58.1552 157.38 58.2507 157.459 58.5688 157.515L59.0779 157.594C59.1177 157.658 59.1177 157.761 59.062 157.809C58.6961 157.785 58.2666 157.785 57.7098 157.769C57.2166 157.769 56.8348 157.785 56.4211 157.809C56.3495 157.753 56.3495 157.658 56.3973 157.594L56.9143 157.467C57.2405 157.396 57.3916 157.316 57.6382 156.743C57.9086 156.123 58.2029 155.399 58.8552 153.705L60.2234 150.077C60.4541 149.465 60.47 149.226 60.4461 149.035C60.9632 148.829 61.0586 148.518 61.1063 148.518C61.2018 148.518 61.2575 148.542 61.2813 148.646C61.3609 148.876 61.5279 149.457 61.9813 150.777L63.7711 155.98C64.1847 157.173 64.3359 157.419 64.8927 157.523L65.3063 157.594C65.362 157.65 65.3461 157.761 65.2904 157.809C64.8688 157.785 64.4154 157.769 63.6995 157.769C63.1506 157.769 62.6495 157.801 62.204 157.809C62.1325 157.753 62.1245 157.658 62.1802 157.594L62.5779 157.515C62.8643 157.459 63.0313 157.388 63.0313 157.189C63.0313 157.038 62.9597 156.791 62.8563 156.465L62.1961 154.428C62.1006 154.142 62.0609 154.142 61.7586 154.142H59.4677ZM61.5757 153.721C61.9416 153.721 61.9336 153.705 61.8063 153.355L61.0427 151.064C60.9313 150.722 60.7961 150.26 60.6768 150.022C60.6211 150.157 60.3745 150.682 60.1279 151.374L59.412 153.355C59.2768 153.697 59.2768 153.713 59.6745 153.713H61.5757V153.721Z" fill="white"/>
<path d="M69.3234 150.913C69.3234 150.133 69.2677 149.568 69.1563 149.393C69.045 149.218 68.8779 149.091 68.5518 149.067L68.2336 149.043C68.1779 148.988 68.1779 148.892 68.2495 148.829C69.2995 148.733 70.2302 148.717 71.3279 148.717C72.0915 148.717 72.9427 148.797 73.5313 149.115C74.1915 149.473 74.6688 150.133 74.6688 151.088C74.6688 152.321 73.6665 153.06 72.9745 153.315C72.9188 153.41 72.9586 153.53 73.0302 153.657C74.1279 155.423 74.8517 156.513 75.8222 157.364C76.0847 157.594 76.4108 157.69 76.8642 157.706C76.904 157.746 76.904 157.841 76.8642 157.873C76.729 157.897 76.5222 157.944 76.2994 157.944C75.0426 157.944 74.3824 157.602 73.412 156.218C73.054 155.709 72.4813 154.779 72.0438 154.134C71.837 153.832 71.6779 153.673 71.129 153.673C70.3893 153.673 70.3654 153.697 70.3654 154.015V155.606C70.3654 156.401 70.4052 157.085 70.5563 157.292C70.6915 157.467 70.9779 157.523 71.2006 157.563L71.479 157.618C71.5188 157.682 71.5188 157.793 71.4472 157.833C70.8029 157.809 70.3972 157.793 69.8484 157.793C69.2995 157.793 68.8859 157.809 68.1779 157.833C68.1063 157.793 68.1063 157.682 68.1461 157.618L68.4881 157.563C68.7109 157.523 68.9972 157.467 69.1325 157.292C69.2836 157.085 69.3234 156.401 69.3234 155.606V150.913ZM70.3654 152.901C70.3654 153.116 70.3972 153.204 70.437 153.259C70.4927 153.315 70.7552 153.355 71.3438 153.355C71.9086 153.355 72.4415 153.299 72.8233 152.997C73.2052 152.695 73.5392 152.233 73.5392 151.255C73.5392 150.101 72.8392 149.028 71.3518 149.028C70.9381 149.028 70.5722 149.067 70.4927 149.147C70.4131 149.203 70.3972 149.37 70.3813 149.855V152.901H70.3654Z" fill="white"/>
<path d="M82.8618 155.622C82.8618 156.417 82.9016 157.085 83.0528 157.292C83.188 157.459 83.4743 157.515 83.6971 157.539L84.2618 157.61C84.3175 157.674 84.3016 157.785 84.23 157.825C83.6732 157.801 83.1243 157.785 82.3846 157.785C81.78 157.785 81.3187 157.801 80.5948 157.825C80.5232 157.801 80.5153 157.658 80.563 157.61L81.0244 157.539C81.2073 157.515 81.4937 157.459 81.6289 157.292C81.78 157.101 81.8198 156.417 81.8198 155.622V155.009C81.8198 154.882 81.8198 154.612 81.78 154.325C81.7482 154.102 81.5732 153.705 81.3823 153.315L79.9903 150.483C79.7198 149.918 79.4732 149.481 79.2664 149.29C79.0994 149.139 78.8687 149.059 78.6778 149.02L78.3119 148.94C78.2562 148.868 78.2721 148.749 78.3357 148.717C78.7176 148.749 79.2425 148.757 79.8153 148.757C80.388 148.757 80.913 148.741 81.3187 148.717C81.3823 148.757 81.3982 148.868 81.3346 148.94L80.8971 149.051C80.6823 149.107 80.5709 149.163 80.5709 149.258C80.5709 149.433 80.7619 149.863 81.0244 150.396C81.5414 151.462 82.0505 152.52 82.6153 153.554C83.0846 152.742 83.5141 151.939 83.9834 151.12C84.3971 150.364 84.8425 149.465 84.8425 149.258C84.8425 149.163 84.6755 149.091 84.4209 149.043L83.9834 148.948C83.9277 148.876 83.9437 148.773 84.0073 148.725C84.5005 148.757 84.8982 148.765 85.3198 148.765C85.7414 148.765 86.1311 148.749 86.513 148.725C86.5845 148.765 86.5925 148.892 86.5448 148.948L86.147 149.059C85.805 149.139 85.6698 149.25 85.463 149.552C84.7789 150.523 84.1902 151.581 83.5857 152.607C83.0687 153.482 82.9971 153.752 82.9255 154.047C82.8857 154.254 82.8698 154.731 82.8698 155.017V155.622H82.8618Z" fill="white"/>
<path d="M94.2448 150.897C94.2448 150.117 94.205 149.473 94.0539 149.258C93.9425 149.091 93.6561 149.027 93.4096 148.988L93.0834 148.932C93.0277 148.836 93.0277 148.757 93.0993 148.709C93.7277 148.741 94.1652 148.749 94.7141 148.749C95.2629 148.749 95.7561 148.733 96.3527 148.709C96.4163 148.749 96.4084 148.836 96.3686 148.932L96.1061 148.972C95.7879 149.027 95.597 149.099 95.4618 149.258C95.3107 149.465 95.2789 150.125 95.2789 150.897V152.432C95.2789 152.83 95.3107 152.869 95.9391 152.869H99.9879C100.6 152.869 100.632 152.838 100.632 152.432V150.897C100.632 150.133 100.577 149.449 100.441 149.258C100.322 149.083 100.028 149.035 99.8129 148.988L99.5425 148.932C99.4868 148.86 99.4868 148.757 99.5663 148.709C100.115 148.741 100.577 148.749 101.109 148.749C101.738 148.749 102.191 148.733 102.756 148.709C102.828 148.749 102.836 148.844 102.788 148.932L102.502 148.996C102.295 149.035 102.008 149.075 101.873 149.242C101.722 149.449 101.682 150.133 101.682 150.897V155.638C101.682 156.433 101.722 157.085 101.873 157.292C102.008 157.459 102.295 157.515 102.502 157.555L102.828 157.61C102.883 157.674 102.867 157.785 102.804 157.825C102.255 157.801 101.666 157.785 101.133 157.785C100.6 157.785 100.067 157.801 99.5743 157.825C99.5027 157.785 99.4947 157.674 99.5504 157.61L99.8368 157.555C100.139 157.483 100.338 157.427 100.465 157.252C100.592 157.046 100.64 156.433 100.64 155.638V153.736C100.64 153.323 100.608 153.299 99.9959 153.299H95.947C95.3186 153.299 95.2868 153.323 95.2868 153.736V155.638C95.2868 156.433 95.3266 157.077 95.4777 157.284C95.6129 157.451 95.8595 157.515 96.1061 157.555L96.5436 157.61C96.5834 157.674 96.5834 157.777 96.5277 157.825C95.9152 157.801 95.3345 157.785 94.7061 157.785C94.1573 157.785 93.7993 157.801 93.2425 157.825C93.1789 157.801 93.163 157.674 93.2186 157.61L93.4255 157.571C93.672 157.531 93.9425 157.451 94.0539 157.284C94.1891 157.077 94.2448 156.433 94.2448 155.638V150.897Z" fill="white"/>
<path d="M108.221 154.142C107.895 154.142 107.863 154.158 107.783 154.428L107.059 156.56C106.948 156.886 106.908 157.053 106.908 157.228C106.908 157.38 107.004 157.459 107.322 157.515L107.831 157.594C107.871 157.658 107.871 157.761 107.815 157.809C107.449 157.785 107.02 157.785 106.455 157.769C105.962 157.769 105.58 157.785 105.166 157.809C105.095 157.753 105.095 157.658 105.142 157.594L105.659 157.467C105.986 157.396 106.137 157.316 106.383 156.743C106.654 156.123 106.948 155.399 107.6 153.705L108.969 150.077C109.199 149.465 109.215 149.226 109.191 149.035C109.708 148.829 109.804 148.518 109.843 148.518C109.939 148.518 109.995 148.542 110.018 148.646C110.098 148.876 110.265 149.457 110.718 150.777L112.508 155.98C112.922 157.173 113.073 157.419 113.63 157.523L114.043 157.594C114.099 157.65 114.083 157.761 114.028 157.809C113.606 157.785 113.153 157.769 112.437 157.769C111.888 157.769 111.379 157.801 110.949 157.809C110.878 157.753 110.87 157.658 110.917 157.594L111.315 157.515C111.601 157.459 111.768 157.388 111.768 157.189C111.768 157.038 111.697 156.791 111.593 156.465L110.933 154.428C110.838 154.142 110.798 154.142 110.496 154.142H108.221ZM110.329 153.721C110.695 153.721 110.687 153.705 110.559 153.355L109.796 151.064C109.684 150.722 109.549 150.26 109.43 150.022C109.374 150.157 109.128 150.682 108.881 151.374L108.173 153.355C108.038 153.697 108.038 153.713 108.436 153.713H110.329V153.721Z" fill="white"/>
<path d="M119.389 155.646C119.389 156.29 119.413 156.918 119.612 157.149C119.747 157.3 120.049 157.467 121.258 157.467C122.777 157.467 123.231 157.372 123.875 155.908C123.971 155.876 124.082 155.892 124.122 155.964C124.042 156.417 123.764 157.451 123.549 157.825C123.135 157.809 122.618 157.801 122.014 157.801C121.425 157.785 120.741 157.785 120.001 157.785H118.88C118.331 157.785 117.925 157.801 117.154 157.825C117.082 157.785 117.082 157.674 117.13 157.61L117.528 157.555C117.75 157.515 118.037 157.459 118.172 157.284C118.323 157.077 118.363 156.393 118.363 155.598V150.944C118.363 150.149 118.323 149.449 118.172 149.258C118.037 149.083 117.75 149.027 117.528 148.988L117.13 148.932C117.074 148.852 117.074 148.765 117.146 148.709C117.885 148.741 118.323 148.749 118.888 148.749C119.476 148.749 119.954 148.733 120.542 148.709C120.614 148.749 120.614 148.844 120.558 148.932L120.248 148.988C120.025 149.027 119.739 149.083 119.604 149.258C119.453 149.465 119.413 150.149 119.413 150.944V155.646H119.389Z" fill="white"/>
<path d="M128.918 155.646C128.918 156.29 128.942 156.918 129.133 157.149C129.268 157.3 129.571 157.467 130.772 157.467C132.291 157.467 132.744 157.372 133.389 155.908C133.484 155.876 133.596 155.892 133.635 155.964C133.556 156.417 133.277 157.451 133.063 157.825C132.649 157.809 132.132 157.801 131.527 157.801C130.939 157.785 130.255 157.785 129.515 157.785H128.393C127.844 157.785 127.431 157.801 126.667 157.825C126.596 157.785 126.596 157.674 126.643 157.61L127.041 157.555C127.264 157.515 127.55 157.459 127.685 157.284C127.837 157.077 127.876 156.393 127.876 155.598V150.944C127.876 150.149 127.837 149.449 127.685 149.258C127.55 149.083 127.264 149.027 127.041 148.988L126.643 148.932C126.588 148.852 126.588 148.765 126.651 148.709C127.391 148.741 127.829 148.749 128.393 148.749C128.982 148.749 129.459 148.733 130.048 148.709C130.119 148.749 130.119 148.844 130.064 148.932L129.746 148.988C129.531 149.027 129.237 149.083 129.101 149.258C128.95 149.465 128.91 150.149 128.91 150.944V155.646H128.918Z" fill="white"/>
<path d="M64.6222 115.054C41.6576 103.361 26.7748 86.6404 20.3714 65.3621C15.4078 48.8645 15.5828 30.0362 20.9043 9.4023L21.0793 8.71821L21.7077 8.39208C22.3441 8.06595 37.7838 0.254639 65.3381 0.254639C92.8527 0.254639 108.324 8.06595 108.968 8.40003L109.597 8.72617L109.772 9.41026C115.085 30.0442 115.26 48.8725 110.297 65.3701C103.894 86.6483 89.0107 103.361 66.054 115.062L65.3381 115.428L64.6222 115.054Z" fill="#092846"/>
<path d="M65.3381 0.501133C92.7811 0.501133 108.213 8.28858 108.857 8.62267L109.382 8.89312L109.533 9.46584C114.839 30.0521 115.014 48.8406 110.066 65.2904C103.687 86.4971 88.8436 103.162 65.9426 114.831L65.3461 115.133L64.7495 114.831C41.8485 103.17 27.0054 86.4971 20.6259 65.2904C15.6782 48.8406 15.8532 30.0521 21.1589 9.46584L21.31 8.89312L21.835 8.62267C22.4634 8.28858 37.8872 0.501133 65.3381 0.501133ZM65.3381 0C37.7281 0 22.2407 7.84313 21.5884 8.17721L21.0634 8.44767L20.8646 8.55107L20.8089 8.76585L20.6577 9.33857C15.3282 30.0202 15.1532 48.8883 20.1327 65.4336C26.552 86.7755 41.4826 103.544 64.5108 115.276L65.1074 115.579L65.3381 115.698L65.5688 115.579L66.1654 115.276C89.1857 103.552 104.116 86.7835 110.536 65.4336C115.515 48.8883 115.332 30.0202 110.011 9.33857L109.859 8.76585L109.804 8.55107L109.605 8.44767L109.08 8.17721C108.436 7.84313 92.9084 0 65.3381 0Z" fill="#092846"/>
<path d="M65.3381 113.646C115.268 88.2152 116.987 43.7258 108.245 9.79193C108.245 9.79193 92.7731 1.82153 65.3381 1.82153C37.8951 1.82153 22.4236 9.79193 22.4236 9.79193C13.6816 43.7258 15.4078 88.2152 65.3381 113.646Z" fill="#FFB91E"/>
<path d="M65.338 110.186C112.612 86.1073 114.242 43.9883 105.962 11.8601C105.962 11.8601 91.3174 4.31128 65.338 4.31128C39.3586 4.31128 24.7144 11.8601 24.7144 11.8601C16.4338 43.9883 18.0645 86.1073 65.338 110.186Z" fill="white"/>
<path d="M104.021 14.668L36.4236 82.9016C42.9542 91.7788 52.3087 99.8685 65.3382 106.503C109.478 84.0152 111.522 44.895 104.021 14.668Z" fill="#6E8CD2"/>
<path d="M102.788 13.1011C99.2878 11.542 86.1629 6.41138 65.3381 6.41138C40.7746 6.41138 26.9338 13.5466 26.9338 13.5466C21.5327 34.5225 20.602 60.0008 35.2621 81.2631L102.788 13.1011Z" fill="#092846"/>
<path d="M55.8165 28.5008C55.5699 28.3576 55.2835 28.3815 55.1801 28.5565C55.0767 28.7315 55.196 28.994 55.4426 29.1372C55.6892 29.2803 55.9756 29.2565 56.071 29.0815C56.1824 28.9065 56.0631 28.644 55.8165 28.5008Z" fill="#FFB91E"/>
<path d="M63.3495 32.5817C62.9597 34.1805 61.4404 35.6203 61.337 36.3124C61.2257 37.0044 61.9654 37.2112 62.2279 37.1953C62.6256 37.1555 63.1347 37.1873 63.8109 36.0737C64.5984 34.7692 65.1234 33.3533 65.1234 31.5397C65.1234 29.8613 64.2961 28.1829 62.7291 27.0613C63.7154 28.8192 63.8347 30.609 63.3495 32.5817Z" fill="#FFB91E"/>
<path d="M68.2733 37.76C67.4778 37.6327 66.5631 37.5293 65.7438 37.5054C65.2745 37.4895 64.1529 37.4736 63.5086 37.4179C63.1029 37.7202 62.729 37.7918 62.379 37.8236L62.2915 37.8316C62.2597 37.8316 62.2279 37.8395 62.1881 37.8395C61.8461 37.8395 61.329 37.6963 60.979 37.2907C60.9631 37.2668 60.9472 37.2429 60.9313 37.227C60.3109 37.3384 59.1495 37.5373 58.6404 37.6407C58.3938 37.6884 58.1631 37.7043 58.1075 37.4657C58.0597 37.227 58.2029 36.9327 58.4495 36.885C58.712 36.8293 59.8734 36.6304 60.6688 36.4952C60.6688 36.3998 60.6688 36.3043 60.6847 36.2089C60.7563 35.7714 61.0745 35.31 61.4802 34.7293C61.9415 34.0691 62.5142 33.2418 62.7131 32.4305C62.8881 31.7225 62.9677 31.0623 62.9677 30.4259C62.2836 29.8453 61.2733 29.1135 60.6052 28.8032C57.5029 27.3794 58.6006 24.9214 54.0666 22.6146C52.8734 22.0021 51.7757 21.4771 50.7257 21.0078C52.3007 23.5294 50.8371 25.876 49.5484 25.6532C49.6598 25.5419 51.1791 25.0805 50.5746 22.8453C49.9621 20.6181 48.9837 18.876 47.7905 17.7942C46.6053 16.7045 45.2291 16.3704 45.2291 16.3704C45.2291 16.3704 45.1735 18.176 44.6485 19.1624C43.9644 20.4272 43.7416 22.4476 44.3303 23.7124C44.9189 24.9851 46.0246 25.5817 46.478 25.7407C43.2723 25.351 42.811 21.3578 43.9246 19.1226C39.9951 17.6749 35.469 19.6874 33.0349 17.5954C33.0349 18.5976 33.5042 19.9419 35.9303 21.684C35.9303 21.684 33.8383 21.8908 32.4224 20.4749C32.1758 23.5533 32.486 26.043 33.7906 29.6066C35.5167 34.3157 38.1178 35.0714 39.478 40.3372C40.1383 42.8747 39.6053 45.9213 38.4042 47.1224C40.9894 47.1224 43.8769 43.9883 43.8769 43.9883C43.8769 43.9883 44.2905 44.6645 43.7973 45.3406C45.3564 45.3406 47.6234 43.0418 47.6234 43.0418C47.6234 43.0418 48.1643 43.5906 47.7348 44.3463C48.92 44.1633 50.5268 42.6997 51.8393 42.2463C53.2473 41.7611 54.1143 41.8486 54.4086 41.9202C57.4791 40.027 60.5813 39.6213 61.6711 39.8759C62.4506 40.0588 63.5563 39.4225 64.3438 39.2713C64.821 39.1759 65.8472 39.2316 66.746 39.0327C67.804 38.7782 68.4483 38.0782 68.2733 37.76ZM49.1268 23.3544C48.9916 23.9749 49.1268 24.2533 49.0632 24.3408C48.9996 24.4283 48.4268 24.0146 48.3155 23.2271C48.2041 22.4396 48.4905 22.2646 48.403 21.676C48.3155 21.0794 47.7746 20.5465 47.4962 20.3397C47.2098 20.1328 47.0109 20.0692 47.0666 19.9976C47.1223 19.9181 47.2575 19.9419 47.6473 20.0931C48.045 20.2442 49.0871 20.7851 49.2064 21.6283C49.3098 22.4158 49.2541 22.726 49.1268 23.3544ZM56.7075 29.193C56.4847 29.6146 55.9597 29.9566 55.3791 29.8453C54.5757 29.6782 53.5495 28.3816 53.7007 27.7691C53.812 27.2839 54.8859 27.4032 55.7291 27.7373C55.6654 27.6578 55.5859 27.5782 55.4904 27.4987C54.7904 26.8782 53.6291 26.7907 53.0882 26.8226C52.5473 26.8544 52.237 26.9896 52.237 26.8464C52.2211 26.7032 52.412 26.5919 53.0245 26.3851C53.637 26.1782 55.1404 26.0907 56.0393 26.7987C57.0018 27.5623 56.9222 27.9919 57.3597 28.8191C57.8291 29.718 58.9347 29.8373 58.9427 30.0044C58.9506 30.1714 57.8609 30.235 56.9461 29.4237C56.8506 29.3441 56.7711 29.2646 56.7075 29.193Z" fill="#FFB91E"/>
<path d="M75.6313 53.3745L76.8642 53.4938C76.8642 53.4938 75.9415 56.1824 75.9415 59.229C75.9415 62.2676 76.8642 64.9642 76.8642 64.9642L75.6313 65.0835C75.6313 65.0835 74.2393 63.2619 74.2393 59.229C74.2393 55.1961 75.6313 53.3745 75.6313 53.3745Z" fill="#FFB91E"/>
<path d="M94.0061 57.9086C89.7028 57.6063 80.0381 57.5745 76.8722 57.5745C76.8244 58.004 76.7926 58.4495 76.7847 58.9108C80.7937 58.9426 93.6243 59.0779 93.6243 59.237C93.6243 59.396 80.7858 59.5233 76.7847 59.5631C76.7926 59.9847 76.8165 60.3904 76.8563 60.7881C80.1096 60.7801 89.7187 60.7483 93.9982 60.454C96.7425 60.2631 99.1527 59.587 100.394 59.1892C99.1447 58.7756 96.6948 58.0915 94.0061 57.9086Z" fill="white"/>
<path d="M69.029 65.6562L70.262 65.7756C70.262 65.7756 69.3393 68.4642 69.3393 71.5108C69.3393 74.5494 70.262 77.2459 70.262 77.2459L69.029 77.3653C69.029 77.3653 67.637 75.5516 67.637 71.5108C67.629 67.4778 69.029 65.6562 69.029 65.6562Z" fill="#FFB91E"/>
<path d="M87.4038 70.1903C83.1005 69.8801 73.4198 69.8562 70.2699 69.8562C70.2221 70.2857 70.1903 70.7392 70.1824 71.1926C74.1755 71.2244 87.03 71.3596 87.03 71.5187C87.03 71.6778 74.1755 71.813 70.1824 71.8448C70.1903 72.2664 70.2142 72.6721 70.254 73.0698C73.4994 73.0619 83.1243 73.03 87.4038 72.7278C90.1481 72.5369 92.5583 71.8607 93.7992 71.463C92.5424 71.0573 90.1004 70.3732 87.4038 70.1903Z" fill="white"/>
<path d="M62.4189 77.938L63.6518 78.0573C63.6518 78.0573 62.7291 80.7459 62.7291 83.7925C62.7291 86.8311 63.6518 89.5277 63.6518 89.5277L62.4189 89.647C62.4189 89.647 61.0269 87.8334 61.0269 83.7925C61.0269 79.7516 62.4189 77.938 62.4189 77.938Z" fill="#FFB91E"/>
<path d="M80.8098 82.464C76.4984 82.1537 66.794 82.1299 63.6519 82.1299C63.6042 82.5594 63.5804 83.0128 63.5645 83.4662C67.5417 83.4981 80.428 83.6333 80.428 83.7924C80.428 83.9515 67.5337 84.0867 63.5645 84.1185C63.5724 84.5401 63.5963 84.9458 63.636 85.3435C66.8656 85.3435 76.5144 85.3037 80.8018 85.0094C83.5461 84.8185 85.9563 84.1424 87.1972 83.7446C85.9484 83.331 83.5064 82.6549 80.8098 82.464Z" fill="white"/>
<path d="M70.6995 32.9078C69.4745 32.6691 68.3609 32.8441 67.9393 33.8703C67.6768 34.5146 67.1996 34.3157 67.303 33.91C67.4302 33.401 68.0825 32.8044 68.0825 32.8044C68.0825 32.8044 66.953 32.5657 65.7518 32.2476C65.6405 33.6953 65.195 35.0316 64.3757 36.3998C64.3121 36.5032 64.2485 36.5907 64.1848 36.6862C64.678 36.718 65.4496 36.7418 65.7518 36.7577C66.7382 36.7816 67.82 36.9248 68.695 37.06C69.0291 37.0441 69.3393 36.9884 69.4825 36.8452C70.0552 36.2725 69.8882 35.3259 70.2382 34.5941C70.5882 33.8703 71.145 33.0032 70.6995 32.9078ZM69.2598 35.1828C68.7746 35.1907 68.7746 35.8589 68.5041 35.7873C68.2257 35.7157 68.9496 34.1885 69.4427 34.0771C70.1109 33.91 69.7927 35.1748 69.2598 35.1828Z" fill="#FFB91E"/>
<path d="M60.1836 83.7927C60.1836 83.2677 60.2075 82.7745 60.2472 82.3211L55.4745 82.7983C55.1961 82.4484 54.7825 82.2097 54.2973 82.2097C53.4541 82.2097 52.77 82.8938 52.77 83.737C52.77 84.5722 53.4541 85.2563 54.2973 85.2563C54.7348 85.2563 55.1246 85.0654 55.403 84.779L60.2472 85.2722C60.1995 84.8029 60.1836 84.3177 60.1836 83.7927Z" fill="#FFB91E"/>
<path d="M66.7859 71.5108C66.7859 70.9858 66.8098 70.4926 66.8495 70.0392L62.0768 70.5165C61.7984 70.1665 61.3848 69.9199 60.8996 69.9199C60.0644 69.9199 59.3723 70.604 59.3723 71.4472C59.3723 72.2824 60.0564 72.9665 60.8996 72.9665C61.3371 72.9665 61.7189 72.7835 61.9973 72.4813L66.8495 72.9744C66.8098 72.529 66.7859 72.0358 66.7859 71.5108Z" fill="#FFB91E"/>
<path d="M73.396 59.2292C73.396 58.7042 73.4199 58.211 73.4596 57.7496L68.6869 58.2349C68.4085 57.8769 67.9949 57.6462 67.5097 57.6462C66.6665 57.6462 65.9824 58.3303 65.9824 59.1735C65.9824 60.0087 66.6665 60.6928 67.5097 60.6928C67.9472 60.6928 68.329 60.5019 68.6074 60.2155L73.4596 60.7087C73.4199 60.2474 73.396 59.7542 73.396 59.2292Z" fill="#FFB91E"/>
</g>
<defs>
<clipPath id="clip0">
<rect width="133.635" height="158" fill="white"/>
</clipPath>
</defs>
</svg>
