<svg width="190" height="67" viewBox="0 0 190 67" fill="none" xmlns="http://www.w3.org/2000/svg">
    <path d="M134.918 34.9795L134.898 35.006L134.922 35.0258L134.918 34.9795Z" fill="white"/>
    <path d="M161.381 43.7709C161.292 43.7576 161.202 43.7643 161.119 43.7775L153.953 44.1316L160.077 45.8726L159.736 49.5232L161.925 45.5085L162.058 45.2901H162.051C162.141 45.161 162.204 45.0187 162.224 44.8532C162.294 44.3203 161.915 43.8338 161.385 43.7676L161.381 43.7709Z" fill="black"/>
    <path d="M170.949 44.5383C170.949 38.8092 166.275 34.1458 160.532 34.1458C157.009 34.1458 153.748 35.9132 151.81 38.8754L151.754 38.9614L151.807 39.0508C152.135 39.5969 152.424 40.2092 152.66 40.8711L152.792 41.2418L152.965 40.8877C154.368 38.0049 157.337 36.1415 160.532 36.1415C165.174 36.1415 168.949 39.908 168.949 44.5383C168.949 49.1687 165.174 52.9351 160.532 52.9351C157.872 52.9351 155.4 51.6874 153.811 49.5724V52.4585C155.695 54.0571 158.057 54.9309 160.532 54.9309C166.275 54.9309 170.949 50.2675 170.949 44.5383Z" fill="#FFC425"/>
    <path d="M163.135 28.8138L161.43 23.1807L159.787 28.6053C154.851 28.8337 150.505 31.3127 147.725 35.0295C148.677 35.526 149.871 36.3203 150.933 37.5482C153.099 34.5926 156.593 32.6631 160.534 32.6631C167.096 32.6631 172.437 37.9917 172.437 44.5384C172.437 51.0851 167.096 56.4137 160.534 56.4137C158.039 56.4137 155.727 55.6327 153.812 54.3154V58.9887C155.634 59.836 157.634 60.3623 159.748 60.4682L161.43 66.0186L163.175 60.253C170.112 59.0979 175.546 53.4846 176.398 46.4647L181.992 44.78L176.458 43.1119C175.811 35.847 170.261 29.9822 163.138 28.8138H163.135Z" fill="white"/>
    <path d="M136.064 34.1499C137.037 33.6799 139.405 32.7399 142.457 32.9518L161.517 7.45022L184.777 40.071V65.8936H189.176V38.671L161.603 0L136.064 34.1499Z" fill="white"/>
    <path d="M176.965 15.0037L180.067 19.3924H185.139V26.8492L189.373 32.8398L189.538 33.1708V15.0037H176.965Z" fill="white"/>
    <path d="M1.18859 27.5867L0.611328 36.9268H2.40614L2.72795 35.6459C3.56066 32.4454 4.33034 30.8468 10.1029 30.8468H14.2731V56.6329C14.2731 63.0307 13.5665 64.1196 8.4375 64.1196V65.9763H27.8055V64.1196C22.6732 64.1196 21.9699 63.0307 21.9699 56.6329V30.8501H26.1368C31.9724 30.8501 32.6791 32.4487 33.5118 35.6492L33.8336 36.9301H35.5654L35.0511 27.59H1.18859V27.5867Z" fill="white"/>
    <path d="M45.2317 33.9206C47.4114 33.9206 49.2095 32.1929 49.2095 30.0184C49.2095 27.8439 47.4147 26.1162 45.2317 26.1162C43.0488 26.1162 41.3203 27.8439 41.3203 30.0184C41.3203 32.1929 43.0521 33.9206 45.2317 33.9206Z" fill="white"/>
    <path d="M49.014 57.0159V37.3726L37.084 38.8454V40.636C41.1878 40.636 41.8314 41.662 41.8314 47.8015V57.0159C41.8314 63.0959 41.0618 64.1814 37.084 64.1814V65.972H53.7582V64.1814C49.7804 64.1814 49.0107 63.0925 49.0107 57.0159H49.014Z" fill="white"/>
    <path d="M67.389 57.0174V26.0515L55.459 27.5872V29.3778C59.5628 29.3778 60.2064 30.4005 60.2064 36.5434V57.0174C60.2064 63.0974 59.3737 64.183 55.7808 64.183V65.9736H71.8147V64.183C68.2217 64.183 67.389 63.0941 67.389 57.0174Z" fill="white"/>
    <path d="M85.2175 62.7132C83.1639 62.7132 82.653 61.3695 82.653 58.169V41.2761H88.2962V38.3337H82.653V30.1421H79.3188C78.8046 34.9412 77.0728 38.0126 71.8145 38.8434V41.2761H75.4704V58.169C75.4704 63.865 77.4577 66.6154 82.4606 66.6154C85.5393 66.6154 87.9114 65.0797 89.8986 62.5213L88.7441 60.6645C87.4602 62.0711 86.435 62.7132 85.2175 62.7132Z" fill="white"/>
    <path d="M104.178 37.1826C96.0338 37.1826 90.3242 43.5803 90.3242 52.093C90.3242 60.6056 96.0338 67.0001 104.178 67.0001C112.323 67.0001 118.033 60.6023 118.033 52.093C118.033 43.5837 112.131 37.1826 104.178 37.1826ZM104.178 63.8657C100.267 63.8657 98.021 60.4733 98.021 52.093C98.021 43.7127 100.267 40.3203 104.178 40.3203C108.09 40.3203 110.336 43.7756 110.336 52.093C110.336 60.4104 107.964 63.8657 104.178 63.8657Z" fill="white"/>
    <path d="M148.506 57.0159V47.8015C148.506 41.7877 145.875 37.4354 139.847 37.4354C135.422 37.4354 132.087 40.252 130.226 43.0024C130.226 41.2119 129.394 38.2033 128.942 37.3726L118.359 38.8454V40.636C122.463 40.636 123.04 41.7249 123.04 47.8015V57.0159C123.04 63.0959 122.271 64.1814 118.293 64.1814V65.972H134.264V64.1814C130.863 64.1814 130.223 63.0925 130.223 57.0159V49.8503C130.223 45.0512 133.879 41.4667 137.021 41.4667C139.844 41.4667 141.317 43.3864 141.317 47.4805V57.0126C141.317 63.0925 140.677 64.1781 137.276 64.1781V65.9687H153.181V64.1781C149.203 64.1781 148.5 63.0892 148.5 57.0126L148.506 57.0159Z" fill="white"/>
    <path d="M161.381 43.7746C161.292 43.7613 161.202 43.7679 161.119 43.7812L153.953 44.1353L160.077 45.8762L159.736 49.5269L161.925 45.5122L162.058 45.2937H162.051C162.141 45.1646 162.204 45.0223 162.224 44.8568C162.294 44.324 161.915 43.8374 161.385 43.7712L161.381 43.7746Z" fill="white"/>
</svg>
